<?xml version="1.0" encoding="UTF-8" standalone="no"?>
<svg
   version="1.0"
   width="32"
   height="32"
   id="svg2"
   sodipodi:docname="bird.svg"
   inkscape:version="1.2.2 (b0a8486541, 2022-12-01)"
   xmlns:inkscape="http://www.inkscape.org/namespaces/inkscape"
   xmlns:sodipodi="http://sodipodi.sourceforge.net/DTD/sodipodi-0.dtd"
   xmlns="http://www.w3.org/2000/svg"
   xmlns:svg="http://www.w3.org/2000/svg">
  <sodipodi:namedview
     id="namedview3127"
     pagecolor="#ffffff"
     bordercolor="#eeeeee"
     borderopacity="1"
     inkscape:showpageshadow="0"
     inkscape:pageopacity="0"
     inkscape:pagecheckerboard="0"
     inkscape:deskcolor="#505050"
     showgrid="false"
     inkscape:zoom="37.71875"
     inkscape:cx="16"
     inkscape:cy="16"
     inkscape:window-width="1884"
     inkscape:window-height="2091"
     inkscape:window-x="1206"
     inkscape:window-y="32"
     inkscape:window-maximized="0"
     inkscape:current-layer="svg2"
     showguides="true">
    <sodipodi:guide
       position="19.857498,16"
       orientation="0,1"
       id="guide5842"
       inkscape:locked="false"
       inkscape:label=""
       inkscape:color="rgb(0,134,229)" />
    <sodipodi:guide
       position="16,27.572494"
       orientation="-1,0"
       id="guide5844"
       inkscape:locked="false"
       inkscape:label=""
       inkscape:color="rgb(0,134,229)" />
  </sodipodi:namedview>
    <g
     id="g5746"
     transform="matrix(1.3333333,0,0,-1.3333333,-215.81287,565.78206)">
    <path
       d="m 173.2765,414.3823 c -2,-0.063 -2.438,-1.188 -3.406,-1.188 -1.422,0 -1.953,0.094 -1.657,-0.25 0.377,-0.435 1.25,-1.531 2.594,-2.187 0.953,-0.465 2.598,-0.563 3.407,-0.375 0.937,0.219 2.062,1 2.031,1.97 -0.031,0.967 -1.188,1.375 -1.188,1.75 0,0.375 0.094,0.483 0.563,0.453 0.469,-0.031 0.609,0 0.953,-0.095 0.344,-0.094 -1.141,0.375 -1.297,0.892 -0.139,0.452 -0.156,0.843 -1,0.875 -0.844,0.03 -1.188,-0.907 -0.906,-1.314 0.222,-0.32 -0.094,-0.531 -0.094,-0.531"
       style="fill:#2ea948;fill-opacity:1;fill-rule:nonzero;stroke:none"
       id="path998"
       clip-path="url(#clipPath5264)" />
    <path
       d="m 174.2765,408.8511 v 2.281 m -1.004,-2.687 v 2.281 m 3.41,3.688 -2.109,0.563"
       style="fill:none;stroke:#2ea948;stroke-width:0.34;stroke-linecap:butt;stroke-linejoin:miter;stroke-miterlimit:3.864;stroke-dasharray:none;stroke-opacity:1"
       id="path1002"
       clip-path="url(#clipPath5586)" />
  </g>
</svg>
