<?xml version="1.0" encoding="UTF-8" standalone="no"?>
<svg
   version="1.0"
   width="32"
   height="32"
   id="svg2"
   sodipodi:docname="current.svg"
   inkscape:version="1.2.2 (b0a8486541, 2022-12-01)"
   xmlns:inkscape="http://www.inkscape.org/namespaces/inkscape"
   xmlns:sodipodi="http://sodipodi.sourceforge.net/DTD/sodipodi-0.dtd"
   xmlns="http://www.w3.org/2000/svg"
   xmlns:svg="http://www.w3.org/2000/svg">

  <g
     id="g10267"
     transform="matrix(0,-1.0123177,-1.0123177,0,538.74649,155.11541)"
     style="stroke-width:1.31711">
    <g
       id="g10269"
       clip-path="url(#clipPath10273)"
       style="stroke-width:1.31711">
      <g
         id="g10275"
         transform="translate(122.1192,516.5565)"
         style="stroke-width:1.31711">
        <path
           d="M 0,0 H 30.33 V -0.34 H 0 C -0.256,-0.34 -0.241,0 0,0"
           style="fill:#231f20;fill-opacity:1;fill-rule:nonzero;stroke:none;stroke-width:1.31711"
           id="path10277" />
      </g>
      <g
         id="g10279"
         transform="translate(151.5509,515.1117)"
         style="stroke-width:1.31711">
        <path
           d="M 0,0 C 0.57,0.438 1.027,0.763 1.676,1.231 1.722,1.265 1.715,1.294 1.684,1.317 1.068,1.778 0.493,2.179 -0.016,2.548 -0.105,2.612 -0.258,2.434 -0.083,2.255 0.223,1.944 0.875,1.282 0.875,1.282 c 0,0 -0.544,-0.572 -0.958,-1 C -0.258,0.102 -0.102,-0.078 0,0"
           style="fill:#231f20;fill-opacity:1;fill-rule:nonzero;stroke:none;stroke-width:1.31711"
           id="path10281" />
      </g>
      <g
         id="g10283"
         transform="translate(130.3321,517.8704)"
         style="stroke-width:1.31711">
        <path
           d="m 0,0 c 0.365,-0.523 1.023,-1.484 1.023,-1.484 0,0 -0.69,-0.996 -1.027,-1.485 -0.054,-0.077 -0.246,0.035 -0.199,0.117 0.258,0.454 0.738,1.368 0.738,1.368 0,0 -0.422,0.804 -0.734,1.359 C -0.247,-0.042 -0.055,0.079 0,0"
           style="fill:#231f20;fill-opacity:1;fill-rule:nonzero;stroke:none;stroke-width:1.31711"
           id="path10285" />
      </g>
      <g
         id="g10287"
         transform="translate(128.6309,517.8704)"
         style="stroke-width:1.31711">
        <path
           d="m 0,0 c 0.365,-0.523 1.024,-1.484 1.024,-1.484 0,0 -0.69,-0.996 -1.028,-1.485 -0.054,-0.077 -0.246,0.035 -0.199,0.117 0.258,0.454 0.738,1.368 0.738,1.368 0,0 -0.422,0.804 -0.734,1.359 C -0.246,-0.042 -0.055,0.079 0,0"
           style="fill:#231f20;fill-opacity:1;fill-rule:nonzero;stroke:none;stroke-width:1.31711"
           id="path10289" />
      </g>
      <g
         id="g10291"
         transform="translate(126.9303,517.8704)"
         style="stroke-width:1.31711">
        <path
           d="m 0,0 c 0.365,-0.523 1.023,-1.484 1.023,-1.484 0,0 -0.69,-0.996 -1.027,-1.485 -0.054,-0.077 -0.246,0.035 -0.199,0.117 0.258,0.454 0.738,1.368 0.738,1.368 0,0 -0.422,0.804 -0.734,1.359 C -0.246,-0.042 -0.055,0.079 0,0"
           style="fill:#231f20;fill-opacity:1;fill-rule:nonzero;stroke:none;stroke-width:1.31711"
           id="path10293" />
      </g>
      <g
         id="g10295"
         transform="translate(125.2296,517.8704)"
         style="stroke-width:1.31711">
        <path
           d="m 0,0 c 0.365,-0.523 1.023,-1.484 1.023,-1.484 0,0 -0.69,-0.996 -1.027,-1.485 -0.054,-0.077 -0.246,0.035 -0.199,0.117 0.258,0.454 0.738,1.368 0.738,1.368 0,0 -0.422,0.804 -0.734,1.359 C -0.247,-0.042 -0.055,0.079 0,0"
           style="fill:#231f20;fill-opacity:1;fill-rule:nonzero;stroke:none;stroke-width:1.31711"
           id="path10297" />
      </g>
      <g
         id="g10299"
         transform="translate(123.5289,517.8704)"
         style="stroke-width:1.31711">
        <path
           d="m 0,0 c 0.365,-0.523 1.023,-1.484 1.023,-1.484 0,0 -0.69,-0.996 -1.027,-1.485 -0.054,-0.077 -0.246,0.035 -0.2,0.117 0.259,0.454 0.739,1.368 0.739,1.368 0,0 -0.422,0.804 -0.734,1.359 C -0.247,-0.042 -0.055,0.079 0,0"
           style="fill:#231f20;fill-opacity:1;fill-rule:nonzero;stroke:none;stroke-width:1.31711"
           id="path10301" />
      </g>
      <g
         id="g10303"
         transform="translate(121.8277,517.8704)"
         style="stroke-width:1.31711">
        <path
           d="m 0,0 c 0.365,-0.523 1.023,-1.484 1.023,-1.484 0,0 -0.689,-0.996 -1.027,-1.485 -0.054,-0.077 -0.246,0.035 -0.199,0.117 0.258,0.454 0.738,1.368 0.738,1.368 0,0 -0.422,0.804 -0.734,1.359 C -0.246,-0.042 -0.055,0.079 0,0"
           style="fill:#231f20;fill-opacity:1;fill-rule:nonzero;stroke:none;stroke-width:1.31711"
           id="path10305" />
      </g>
    </g>
  </g>
</svg>
