<?xml version="1.0" encoding="UTF-8" standalone="no"?>
<svg
   version="1.0"
   width="32"
   height="32"
   id="svg2"
   sodipodi:docname="fishingharbour.svg"
   inkscape:version="1.2.2 (b0a8486541, 2022-12-01)"
   xmlns:inkscape="http://www.inkscape.org/namespaces/inkscape"
   xmlns:sodipodi="http://sodipodi.sourceforge.net/DTD/sodipodi-0.dtd"
   xmlns="http://www.w3.org/2000/svg"
   xmlns:svg="http://www.w3.org/2000/svg">
  <sodipodi:namedview
     id="namedview22131"
     pagecolor="#ffffff"
     bordercolor="#666666"
     borderopacity="1.0"
     inkscape:showpageshadow="2"
     inkscape:pageopacity="0.0"
     inkscape:pagecheckerboard="0"
     inkscape:deskcolor="#d1d1d1"
     showgrid="false"
     showguides="true"
     inkscape:zoom="33.71875"
     inkscape:cx="15.733086"
     inkscape:cy="15.614458"
     inkscape:window-width="1792"
     inkscape:window-height="1297"
     inkscape:window-x="1685"
     inkscape:window-y="692"
     inkscape:window-maximized="0"
     inkscape:current-layer="svg2">
    <sodipodi:guide
       position="10.083411,16"
       orientation="0,1"
       id="guide22613"
       inkscape:locked="false"
       inkscape:label=""
       inkscape:color="rgb(0,134,229)" />
    <sodipodi:guide
       position="16,24.496756"
       orientation="-1,0"
       id="guide22615"
       inkscape:locked="false"
       inkscape:label=""
       inkscape:color="rgb(0,134,229)" />
  </sodipodi:namedview>

  <g
     id="g126822"
     transform="matrix(1.3333333,0,0,-1.3333333,-90.306397,232.01653)">
    <g
       id="g2058"
       transform="translate(80.1503,160.5954)"
       clip-path="url(#clipPath114996)">
      <path
         d="m 0,0 c -1.648,0.034 -3.981,1.417 -3.981,1.417 0,0 2.333,1.382 3.981,1.419 C 1.751,2.871 4.26,1.417 4.26,1.417 4.26,1.417 1.751,-0.037 0,0"
         style="fill:#ec008c;fill-opacity:1;fill-rule:evenodd;stroke:none"
         id="path2060" />
    </g>
    <g
       id="g2062"
       transform="translate(74.9823,163.4124)"
       clip-path="url(#clipPath114990)">
      <path
         d="M 0,0 1.195,-1.398 -0.003,-2.82 c -0.134,0.449 -0.206,0.926 -0.206,1.42 0,0.488 0.015,0.955 0.209,1.4"
         style="fill:#ec008c;fill-opacity:1;fill-rule:nonzero;stroke:none"
         id="path2064" />
    </g>
    <g
       id="g2066"
       transform="translate(84.6793,162.2974)"
       clip-path="url(#clipPath114984)">
      <path
         d="m 0,0 c -0.202,2.598 -2.296,4.676 -4.946,4.676 -2.068,0 -3.883,-1.266 -4.596,-3.065 l 0.43,-0.496 c 0.584,1.74 2.229,2.993 4.166,2.993 2.213,0 4.004,-1.638 4.401,-3.783 L 0,0"
         style="fill:#ec008c;fill-opacity:1;fill-rule:nonzero;stroke:none"
         id="path2068" />
    </g>
    <g
       id="g2070"
       transform="translate(84.0873,161.4124)"
       clip-path="url(#clipPath114978)">
      <path
         d="m 0,0 c -0.291,-2.144 -2.129,-3.794 -4.354,-3.794 -1.941,0 -3.588,1.259 -4.169,3.005 l -0.429,-0.508 c 0.704,-1.799 2.53,-3.064 4.598,-3.064 2.642,0 4.802,2.069 4.953,4.673 L 0,0"
         style="fill:#ec008c;fill-opacity:1;fill-rule:nonzero;stroke:none"
         id="path2072" />
    </g>
  </g>
</svg>
