<?xml version="1.0" encoding="UTF-8" standalone="no"?>
<svg
   version="1.0"
   width="32"
   height="32"
   id="svg2"
   sodipodi:docname="flood-tide.svg"
   inkscape:version="1.2.2 (b0a8486541, 2022-12-01)"
   xmlns:inkscape="http://www.inkscape.org/namespaces/inkscape"
   xmlns:sodipodi="http://sodipodi.sourceforge.net/DTD/sodipodi-0.dtd"
   xmlns="http://www.w3.org/2000/svg"
   xmlns:svg="http://www.w3.org/2000/svg">
  <sodipodi:namedview
     id="namedview22131"
     pagecolor="#ffffff"
     bordercolor="#666666"
     borderopacity="1.0"
     inkscape:showpageshadow="2"
     inkscape:pageopacity="0.0"
     inkscape:pagecheckerboard="0"
     inkscape:deskcolor="#d1d1d1"
     showgrid="false"
     showguides="true"
     inkscape:zoom="32.90625"
     inkscape:cx="15.984805"
     inkscape:cy="16"
     inkscape:window-width="1792"
     inkscape:window-height="1297"
     inkscape:window-x="1795"
     inkscape:window-y="676"
     inkscape:window-maximized="0"
     inkscape:current-layer="svg2">
    <sodipodi:guide
       position="10.083411,16"
       orientation="0,1"
       id="guide22613"
       inkscape:locked="false"
       inkscape:label=""
       inkscape:color="rgb(0,134,229)" />
    <sodipodi:guide
       position="16,24.496756"
       orientation="-1,0"
       id="guide22615"
       inkscape:locked="false"
       inkscape:label=""
       inkscape:color="rgb(0,134,229)" />
  </sodipodi:namedview>
   <g
     id="g7791"
     transform="matrix(0,-1.0578554,1.0578554,0,-0.2247774,31.943699)"
     style="stroke-width:0.945309">
    <g
       id="g6924"
       transform="matrix(0.90571055,0,0,-0.90571055,1.1967354,15.190839)"
       clip-path="url(#clipPath7769)"
       style="stroke-width:1.39163">
      <path
         d="M 0,0 H 30.331 V -0.34 H 0 C -0.256,-0.34 -0.241,0 0,0"
         style="fill:#231f20;fill-opacity:1;fill-rule:nonzero;stroke:none;stroke-width:1.39163"
         id="path6926" />
    </g>
    <g
       id="g6928"
       transform="matrix(0.90571055,0,0,-0.90571055,27.853336,16.499862)"
       clip-path="url(#clipPath7763)"
       style="stroke-width:1.39163">
      <path
         d="M 0,0 C 0.57,0.438 1.027,0.763 1.676,1.232 1.722,1.265 1.715,1.294 1.684,1.317 1.069,1.778 0.493,2.18 -0.016,2.548 -0.105,2.613 -0.258,2.435 -0.083,2.256 0.223,1.943 0.875,1.282 0.875,1.282 c 0,0 -0.544,-0.571 -0.958,-0.999 C -0.258,0.102 -0.102,-0.078 0,0"
         style="fill:#231f20;fill-opacity:1;fill-rule:nonzero;stroke:none;stroke-width:1.39163"
         id="path6930" />
    </g>
    <g
       id="g6932"
       transform="matrix(0.90571055,0,0,-0.90571055,9.5621498,15.344719)"
       clip-path="url(#clipPath7757)"
       style="stroke-width:1.39163">
      <path
         d="m 0,0 c 0,0 -0.69,-0.996 -1.027,-1.484 -0.055,-0.079 -0.246,0.035 -0.2,0.117 C -0.969,-0.914 -0.489,0 -0.489,0 Z"
         style="fill:#231f20;fill-opacity:1;fill-rule:nonzero;stroke:none;stroke-width:1.39163"
         id="path6934" />
    </g>
    <g
       id="g6936"
       transform="matrix(0.90571055,0,0,-0.90571055,8.0218984,15.344719)"
       clip-path="url(#clipPath7751)"
       style="stroke-width:1.39163">
      <path
         d="M 0,0 C 0,0 -0.69,-0.996 -1.028,-1.484 -1.082,-1.563 -1.273,-1.449 -1.227,-1.367 -0.969,-0.914 -0.489,0 -0.489,0 Z"
         style="fill:#231f20;fill-opacity:1;fill-rule:nonzero;stroke:none;stroke-width:1.39163"
         id="path6938" />
    </g>
    <g
       id="g6940"
       transform="matrix(0.90571055,0,0,-0.90571055,6.4811036,15.344719)"
       clip-path="url(#clipPath7745)"
       style="stroke-width:1.39163">
      <path
         d="m 0,0 c 0,0 -0.69,-0.996 -1.027,-1.484 -0.054,-0.079 -0.246,0.035 -0.2,0.117 C -0.969,-0.914 -0.488,0 -0.488,0 Z"
         style="fill:#231f20;fill-opacity:1;fill-rule:nonzero;stroke:none;stroke-width:1.39163"
         id="path6942" />
    </g>
    <g
       id="g6944"
       transform="matrix(0.90571055,0,0,-0.90571055,4.9407617,15.344719)"
       clip-path="url(#clipPath7739)"
       style="stroke-width:1.39163">
      <path
         d="m 0,0 c 0,0 -0.69,-0.996 -1.027,-1.484 -0.054,-0.079 -0.246,0.035 -0.2,0.117 C -0.969,-0.914 -0.488,0 -0.488,0 Z"
         style="fill:#231f20;fill-opacity:1;fill-rule:nonzero;stroke:none;stroke-width:1.39163"
         id="path6946" />
    </g>
    <g
       id="g6948"
       transform="matrix(0.90571055,0,0,-0.90571055,3.4004197,15.344719)"
       clip-path="url(#clipPath7733)"
       style="stroke-width:1.39163">
      <path
         d="m 0,0 c 0,0 -0.69,-0.996 -1.027,-1.484 -0.055,-0.079 -0.246,0.035 -0.2,0.117 C -0.969,-0.914 -0.489,0 -0.489,0 Z"
         style="fill:#231f20;fill-opacity:1;fill-rule:nonzero;stroke:none;stroke-width:1.39163"
         id="path6950" />
    </g>
    <g
       id="g6952"
       transform="matrix(0.90571055,0,0,-0.90571055,1.8600778,15.344719)"
       clip-path="url(#clipPath7727)"
       style="stroke-width:1.39163">
      <path
         d="M 0,0 C 0,0 -0.69,-0.996 -1.028,-1.484 -1.082,-1.563 -1.273,-1.449 -1.227,-1.367 -0.969,-0.914 -0.489,0 -0.489,0 Z"
         style="fill:#231f20;fill-opacity:1;fill-rule:nonzero;stroke:none;stroke-width:1.39163"
         id="path6954" />
    </g>
  </g>
</svg>
