<?xml version="1.0" encoding="UTF-8" standalone="no"?>
<svg
   version="1.0"
   width="32"
   height="32"
   id="svg2"
   xmlns="http://www.w3.org/2000/svg"
   xmlns:svg="http://www.w3.org/2000/svg">
  <g
     id="g10055"
     transform="matrix(1.3333333,0,0,-1.3333333,-72.648075,870.02074)">
    <path
       d="m 61.8768,643.4453 0.069,0.106 c 0.999,1.432 2.658,2.369 4.536,2.369 1.904,0 3.536,-0.962 4.556,-2.425 l 0.053,-0.087"
       style="fill:none;stroke:#ec008c;stroke-width:0.567;stroke-linecap:butt;stroke-linejoin:miter;stroke-miterlimit:3.864;stroke-dasharray:none;stroke-opacity:1"
       id="path6432" />
    <path
       d="m 66.3358,641.5703 -0.418,3.76 -0.08,0.559 c 0.138,0.019 0.474,0.034 0.656,0.035 0.185,10e-4 0.461,-0.007 0.629,-0.039 l -0.071,-0.555 -0.419,-3.76 h -0.297"
       style="fill:#ec008c;fill-opacity:1;fill-rule:nonzero;stroke:none"
       id="path6436"/>
    <path
       d="m 65.8138,641.3793 -1.968,3.231 -0.308,0.473 c 0.115,0.075 0.413,0.231 0.579,0.308 0.166,0.079 0.421,0.189 0.587,0.231 l 0.17,-0.532 1.209,-3.585 -0.269,-0.126"
       style="fill:#ec008c;fill-opacity:1;fill-rule:nonzero;stroke:none"
       id="path6440"/>
    <path
       d="m 66.8757,641.4923 1.21,3.585 0.164,0.54 c 0.132,-0.041 0.443,-0.169 0.61,-0.246 0.166,-0.077 0.414,-0.201 0.553,-0.301 l -0.299,-0.473 -1.968,-3.231 -0.27,0.126"
       style="fill:#ec008c;fill-opacity:1;fill-rule:nonzero;stroke:none"
       id="path6444" />
    <path
       d="m 65.5078,641.0553 -3.148,2.097 -0.48,0.298 c 0.073,0.117 0.277,0.384 0.395,0.525 0.118,0.141 0.301,0.348 0.434,0.457 l 0.379,-0.412 2.611,-2.737 -0.191,-0.228"
       style="fill:#ec008c;fill-opacity:1;fill-rule:nonzero;stroke:none"
       id="path6448" />
    <path
       d="m 67.2807,641.2393 2.612,2.736 0.376,0.42 c 0.103,-0.091 0.33,-0.339 0.449,-0.479 0.119,-0.14 0.291,-0.358 0.374,-0.507 l -0.47,-0.301 -3.15,-2.097 -0.191,0.228"
       style="fill:#ec008c;fill-opacity:1;fill-rule:nonzero;stroke:none"
       id="path6452" />
  </g>
</svg>
