<?xml version="1.0" encoding="UTF-8" standalone="no"?>
<svg
   version="1.0"
   width="32"
   height="32"
   id="svg2"
   sodipodi:docname="monument.svg"
   inkscape:version="1.2.2 (b0a8486541, 2022-12-01)"
   xmlns:inkscape="http://www.inkscape.org/namespaces/inkscape"
   xmlns:sodipodi="http://sodipodi.sourceforge.net/DTD/sodipodi-0.dtd"
   xmlns="http://www.w3.org/2000/svg"
   xmlns:svg="http://www.w3.org/2000/svg">
  <sodipodi:namedview
     id="namedview367"
     pagecolor="#ffffff"
     bordercolor="#eeeeee"
     borderopacity="1"
     inkscape:showpageshadow="0"
     inkscape:pageopacity="1"
     inkscape:pagecheckerboard="0"
     inkscape:deskcolor="#505050"
     showgrid="false"
     inkscape:zoom="36.125"
     inkscape:cx="16"
     inkscape:cy="15.986159"
     inkscape:window-width="1920"
     inkscape:window-height="2091"
     inkscape:window-x="1920"
     inkscape:window-y="32"
     inkscape:window-maximized="0"
     inkscape:current-layer="svg2"
     showguides="true">
    <sodipodi:guide
       position="16.941176,16"
       orientation="0,1"
       id="guide1290"
       inkscape:locked="false"
       inkscape:label=""
       inkscape:color="rgb(0,134,229)" />
    <sodipodi:guide
       position="16,30.754325"
       orientation="-1,0"
       id="guide1292"
       inkscape:locked="false"
       inkscape:label=""
       inkscape:color="rgb(0,134,229)" />
  </sodipodi:namedview>

  <g
     id="g9833"
     transform="matrix(3.7795276,0,0,3.7795276,-2606.5013,446.66212)">
    <path
       d="m 694.72015,-113.94043 h -0.64064 m -0.45191,0 h -0.60749"
       style="fill:none;stroke:#231f20;stroke-width:0.119944;stroke-linecap:butt;stroke-linejoin:miter;stroke-miterlimit:3.864;stroke-dasharray:none;stroke-opacity:1"
       id="path3965" />
    <g
       id="g3969"
       clip-path="url(#clipPath3973-3)"
       transform="matrix(0.35277777,0,0,-0.35277777,646.82319,5.295286)">
      <g
         id="g3975"
         transform="translate(132.0145,337.991)">
        <path
           d="M 0,0 0.621,4.216 C 0.33,4.437 0.142,4.785 0.142,5.178 c 0,0.665 0.539,1.205 1.205,1.205 0.665,0 1.204,-0.54 1.204,-1.205 0,-0.393 -0.188,-0.741 -0.479,-0.962 L 2.693,0"
           style="fill:none;stroke:#231f20;stroke-width:0.397;stroke-linecap:butt;stroke-linejoin:miter;stroke-miterlimit:3.864;stroke-dasharray:none;stroke-opacity:1"
           id="path3977" />
      </g>
    </g>
    <path
       d="m 693.46853,-115.55241 0.56162,-0.56162 m -0.4826,1.03293 0.77329,-0.77364 m -0.84631,1.39665 0.68262,-0.68298 m -0.67416,1.22449 0.78282,-0.78281 m -0.19086,0.74083 0.24166,-0.24201"
       style="fill:none;stroke:#231f20;stroke-width:0.0998361;stroke-linecap:butt;stroke-linejoin:miter;stroke-miterlimit:3.864;stroke-dasharray:none;stroke-opacity:1"
       id="path3981" />
    <g
       id="g3991"
       transform="matrix(0.35277777,0,0,-0.35277777,693.6301,-113.94043)"
       clip-path="url(#clipPath9820)">
      <path
         d="M 0,0 C 0,0.376 0.305,0.681 0.68,0.681 1.056,0.681 1.36,0.376 1.36,0 1.36,-0.376 1.056,-0.681 0.68,-0.681 0.305,-0.681 0,-0.376 0,0 Z"
         style="fill:none;stroke:#231f20;stroke-width:0.34;stroke-linecap:butt;stroke-linejoin:miter;stroke-miterlimit:3.864;stroke-dasharray:none;stroke-opacity:1"
         id="path3993" />
    </g>
  </g>
</svg>
