<?xml version="1.0" encoding="UTF-8" standalone="no"?>
<svg
   version="1.0"
   width="32"
   height="32"
   id="svg2"
   sodipodi:docname="seal.svg"
   inkscape:version="1.2.2 (b0a8486541, 2022-12-01)"
   xmlns:inkscape="http://www.inkscape.org/namespaces/inkscape"
   xmlns:sodipodi="http://sodipodi.sourceforge.net/DTD/sodipodi-0.dtd"
   xmlns="http://www.w3.org/2000/svg"
   xmlns:svg="http://www.w3.org/2000/svg">

  <path
     d="m 175.5578,299.2657 c 0.127,0.146 0.228,0.288 0.303,0.412 0.468,0.773 0.316,0.961 0.388,1.41 0.043,0.253 0.012,0.475 0.118,0.752 0.144,0.384 0.656,0.497 0.638,0.829 0.063,0.751 -0.283,0.783 -1.021,0.815 -0.563,0.024 -0.975,0.511 -1.524,-0.511 -0.175,-0.328 -0.336,-0.517 -0.65,-1.048 l -0.141,-0.223 c -0.244,0.046 -0.508,0.07 -0.705,0.057 -1.431,-0.096 -1.857,-0.671 -2.58,-0.974 -0.449,-0.189 -1.217,-0.211 -1.853,-0.511 -0.371,-0.174 -0.457,-0.698 -0.631,-1.374 -0.106,-0.414 -2.549,-1.483 -0.252,-1.23 0.351,0.038 0.754,0.86 0.996,0.781 0.601,-0.2 1.119,-0.244 1.738,-0.013 0.213,-0.095 0.875,-0.371 1.434,-0.417 1.187,-0.097 2.064,0.036 2.74,0.426 0.143,-0.26 0.248,-0.62 0.186,-0.998 -0.057,-0.352 0.789,0.373 0.863,0.5 0.266,0.453 0.117,0.95 0.047,1.111 -0.037,0.086 -0.094,0.206 -0.094,0.206"
     style="fill:#2ea948;fill-opacity:1;fill-rule:nonzero;stroke:none"
     id="path1976"
     clip-path="url(#clipPath7824)"
     transform="matrix(1.3333333,0,0,-1.3333333,-214.77036,416.64912)" />
</svg>
