<?xml version="1.0" encoding="UTF-8" standalone="no"?>
<svg
   version="1.0"
   width="32"
   height="32"
   id="svg2"
   sodipodi:docname="spherical.svg"
   inkscape:version="1.2.2 (b0a8486541, 2022-12-01)"
   xmlns:inkscape="http://www.inkscape.org/namespaces/inkscape"
   xmlns:sodipodi="http://sodipodi.sourceforge.net/DTD/sodipodi-0.dtd"
   xmlns="http://www.w3.org/2000/svg"
   xmlns:svg="http://www.w3.org/2000/svg">
  <style
     type="text/css"
     id="base">
      .outline {
        fill: none;
        stroke: black;
        stroke-width: 0.3;
      }
      .inline {
        fill: none;
        stroke: none;
        stroke-width: 0.8;
      }
      .fill {
        fill: none;
        stroke: none;
        stroke-width: 0.3;
      }
      .baseline {
        fill: none;
        stroke: black;
        stroke-width: 0.5;
      }
      .basepoint {
        fill: white;
        stroke: black;
        stroke-width: 0.5;
      }
      COLORING{}
  </style>
  <path
     class="fill uniform vertical02 vertical03 horizontal02 horizontal03 horizontal04 cross02" style="fill:#808080; stroke:none;"
     id="BOYSHP_3"
     d="m 16.359375,11.552277 c -2.628455,0 -3.898406,2.669853 -3.241562,4.447723 h 6.483124 c 0.656844,-1.77787 -0.613107,-4.447723 -3.241562,-4.447723" />
  <path
     id="path372"
     class="fill vertical12" style="fill:none; stroke:none;"
     d="M 17.166016 11.644531 L 16 16 L 19.601562 16 C 20.187002 14.4154 19.239497 12.124381 17.166016 11.644531 z " />
  <path
     id="path383"
     class="fill vertical13" style="fill:none; stroke:none;"
     d="M 16.054688 11.566406 L 14.867188 16 L 19.601562 16 C 20.258406 14.222132 18.987827 11.552734 16.359375 11.552734 C 16.255328 11.552734 16.154442 11.55826 16.054688 11.566406 z " />
  <path
     id="path388"
     class="fill vertical23" style="fill:none; stroke:none;"
     d="M 18.208984 12.085938 L 17.160156 16 L 19.601562 16 C 20.077589 14.711547 19.540796 12.955472 18.208984 12.085938 z " />
  <path
     id="path301"
     class="fill horizontal13" style="fill:none; stroke:none;"
     d="M 14.123047 12.384766 C 13.078925 13.315725 12.690483 14.845047 13.117188 16 L 19.601562 16 C 19.84433 15.342905 19.821884 14.564448 19.566406 13.84375 L 14.123047 12.384766 z " />
  <path
     id="path371"
     class="fill horizontal23" style="fill:none; stroke:none;"
     d="M 19.708984 15.628906 L 13.142578 13.869141 C 12.895146 14.582581 12.877166 15.35034 13.117188 16 L 19.601562 16 C 19.645943 15.879876 19.682134 15.756048 19.708984 15.628906 z " />
  <path
     id="path304"
     class="fill horizontal14" style="fill:#00a650; stroke:none;"
     d="M 14.548828 12.0625 C 13.189344 12.923299 12.636645 14.699323 13.117188 16 L 19.601562 16 C 19.901336 15.188606 19.798469 14.192042 19.349609 13.347656 L 14.548828 12.0625 z " />
  <path
     id="path984"
     class="fill horizontal24 horizontal12" style="fill:#808080; stroke:none;"
     d="M 19.761719 14.771484 L 13.515625 13.097656 C 12.944034 13.988984 12.787094 15.106541 13.117188 16 L 19.601562 16 C 19.74209 15.619637 19.792319 15.198479 19.761719 14.771484 z " />
  <path
     id="path989"
     class="fill horizontal34" style="fill:#00a650; stroke:none;"
     d="M 19.457031 16 L 13.027344 14.277344 C 12.898027 14.86784 12.922492 15.473022 13.117188 16 L 19.457031 16 z " />
  <path
     class="inline cross12" style="fill:none; stroke:none;"
     d="m 16,16 1.166016,-4.355469"
     id="path262" />
  <path
     class="inline cross12" style="fill:none; stroke:none;"
     d="m 13.518203,13.097656 c 1.874311,0.89326 3.934649,1.484975 6.243516,1.673828"
     id="path264" />
  <path
     class="outline" style="fill:none; stroke:black; stroke-width:0.3;"
     id="path8447"
     d="m 16.359375,11.552277 c -2.628455,0 -3.898406,2.669853 -3.241562,4.447723 h 6.483124 c 0.656844,-1.77787 -0.613107,-4.447723 -3.241562,-4.447723" />
  <path
     class="baseline" style="fill:none; stroke:black; stroke-width:0.5;"
     d="m 11.816507,16 h 9.085736"
     id="path915" />
  <circle
     class="basepoint" style="fill:white; stroke:black; stroke-width:0.5;"
     id="path5349"
     cx="16"
     cy="16"
     r="1" />
</svg>
