<?xml version="1.0" encoding="UTF-8" standalone="no"?>
<!-- Created with Inkscape (http://www.inkscape.org/) -->

<svg
   width="32"
   height="32"
   viewBox="0 0 8.4666665 8.4666666"
   version="1.1"
   id="svg59485"
   inkscape:version="1.4.2 (ebf0e940d0, 2025-05-08)"
   sodipodi:docname="charttools.svg"
   xmlns:inkscape="http://www.inkscape.org/namespaces/inkscape"
   xmlns:sodipodi="http://sodipodi.sourceforge.net/DTD/sodipodi-0.dtd"
   xmlns="http://www.w3.org/2000/svg"
   xmlns:svg="http://www.w3.org/2000/svg">
  <sodipodi:namedview
     id="namedview59487"
     pagecolor="#ffffff"
     bordercolor="#eeeeee"
     borderopacity="1"
     inkscape:showpageshadow="0"
     inkscape:pageopacity="0"
     inkscape:pagecheckerboard="0"
     inkscape:deskcolor="#505050"
     inkscape:document-units="px"
     showgrid="false"
     inkscape:zoom="46.125"
     inkscape:cx="16"
     inkscape:cy="15.98916"
     inkscape:window-width="2488"
     inkscape:window-height="1977"
     inkscape:window-x="26"
     inkscape:window-y="23"
     inkscape:window-maximized="0"
     inkscape:current-layer="layer1"
     showguides="true">
    <sodipodi:guide
       position="4.2333333,6.2302506"
       orientation="-1,0"
       id="guide1"
       inkscape:locked="false"
       inkscape:label=""
       inkscape:color="rgb(0,134,229)" />
    <sodipodi:guide
       position="15.575519,4.2333333"
       orientation="0,1"
       id="guide2"
       inkscape:locked="false"
       inkscape:label=""
       inkscape:color="rgb(0,134,229)" />
  </sodipodi:namedview>
  <defs
     id="defs59482" />
  <g
     inkscape:label="Ebene 1"
     inkscape:groupmode="layer"
     id="layer1">
    <path
       d="M 1.6774848,6.9652415 1.7396422,6.8201806 A 1.3425149,1.3425149 0 0 1 0.91678878,5.574922 c 0,-0.7924089 0.62050162,-1.3477548 1.22037252,-1.8847648 A 3.5478413,3.5478413 0 0 0 3.1882558,2.4334358 2.5363709,2.5363709 0 0 0 4.4967154,1.3672805 L 4.2131496,1.2035609 A 2.185025,2.185025 0 0 1 3.2471958,2.0562245 0.81729692,0.81729692 0 0 0 3.10541,1.6334965 0.83825323,0.83825323 0 0 0 2.3902769,1.285415 c -0.5890654,0 -1.1460489,0.4374659 -1.1460489,0.9004752 A 0.3261329,0.3261329 0 0 0 1.342135,2.4213157 1.2400253,1.2400253 0 0 0 2.1771085,2.595195 h 0.049472 A 2.9741618,2.9741618 0 0 0 2.7681686,2.5471066 4.5727369,4.5727369 0 0 1 1.9187801,3.4462556 C 1.2956607,4.0042193 0.58936107,4.6361837 0.58936107,5.5749682 A 1.6617716,1.6617716 0 0 0 1.6450453,7.1375178 0.44433972,0.44433972 0 0 1 1.6774502,6.9656105 Z M 2.2266034,2.2677442 H 2.1758624 C 1.809445,2.2700542 1.606113,2.2415662 1.5717246,2.1858672 c 0,-0.2580282 0.3778686,-0.5730244 0.8186096,-0.5730244 a 0.52030641,0.52030641 0 0 1 0.4459766,0.2069415 0.51081056,0.51081056 0 0 1 0.080609,0.356915 2.552743,2.552743 0 0 1 -0.6902471,0.090987 z M 7.3137503,1.4556848 A 0.31598218,0.31598218 0 0 0 6.8602423,1.445306 L 2.5533853,5.7524801 1.9784004,7.0936847 A 0.12148123,0.12148123 0 0 0 2.1381877,7.2531491 L 3.4793923,6.6781642 7.7862504,2.3719588 a 0.31598218,0.31598218 0 0 0 -0.0098,-0.4535069 z m -4.831748,5.294093 0.3150078,-0.7334689 0.4191185,0.41913 z M 3.4692442,6.2258797 3.0065693,5.7628704 6.3782467,2.3908712 6.8412502,2.853869 Z M 7.4499662,2.2454875 7.0727526,2.6223644 6.6097491,2.1593666 6.9925291,1.7765854 a 0.13752592,0.13752592 0 0 1 0.1961384,0.00231 l 0.2632637,0.2743921 a 0.13752592,0.13752592 0 0 1 -0.00196,0.1922151 z"
       id="path1"
       style="stroke-width:8.81943" />
    <path
       fill="none"
       d="M 0.3040207,0.30402187 H 8.1626455 V 8.1626443 H 0.3040207 Z"
       id="path2"
       style="stroke-width:8.81943" />
  </g>
</svg>
