<?xml version="1.0" encoding="UTF-8" standalone="no"?>
<svg
   version="1.0"
   width="32"
   height="32"
   id="svg2"
   sodipodi:docname="can.svg"
   inkscape:version="1.2.2 (b0a8486541, 2022-12-01)"
   xmlns:inkscape="http://www.inkscape.org/namespaces/inkscape"
   xmlns:sodipodi="http://sodipodi.sourceforge.net/DTD/sodipodi-0.dtd"
   xmlns="http://www.w3.org/2000/svg"
   xmlns:svg="http://www.w3.org/2000/svg">
  <style
     type="text/css"
     id="base">
      .outline {
        fill: none;
        stroke: black;
        stroke-width: 0.3;
      }
      .inline {
        fill: none;
        stroke: none;
        stroke-width: 0.8;
      }
      .fill {
        fill: none;
        stroke: none;
        stroke-width: 0.3;
      }
      .baseline {
        fill: none;
        stroke: black;
        stroke-width: 0.5;
      }
      .basepoint {
        fill: white;
        stroke: black;
        stroke-width: 0.5;
      }
      COLORING{}
  </style>
  <g
     id="BOYSHP_2"
     transform="rotate(15,16,16)">
    <path
       class="fill horizontal04 horizontal03 horizontal02 vertical02 vertical03 uniform cross02" style="fill:#ffffff; stroke:none;"
       id="path3994"
       d="m 12.871094,11.953125 v 4.885263 l 6.257812,-1.676776 v -3.208487 z" />
    <path
       class="fill vertical12" style="fill:none; stroke:none;"
       id="path3983"
       d="M 16,11.953125 V 16 l 3.128906,-0.837891 v -3.208984 z" />
    <path
       id="path459"
       class="fill vertical13" style="fill:none; stroke:none;"
       d="M 14.911411 11.952423 L 14.911447 16.291677 L 19.129826 15.161366 L 19.129382 11.952533 L 14.911411 11.952423 z " />
    <path
       id="path466"
       class="fill vertical23" style="fill:none; stroke:none;"
       d="M 17.107333 11.952437 L 17.107419 15.703268 L 19.129826 15.161366 L 19.129382 11.952533 L 17.107333 11.952437 z " />
    <path
       class="fill horizontal13" style="fill:none; stroke:none;"
       id="path1030"
       d="m 12.871841,13.302182 -7.47e-4,3.536206 6.257812,-1.676776 0.0014,-1.858119 z" />
    <path
       class="fill horizontal23" style="fill:none; stroke:none;"
       id="path1763"
       d="m 19.128007,14.660396 -6.2569,-0.01793 -1.3e-5,2.195922 6.255878,-1.676258 z" />
    <path
       class="fill horizontal14" style="fill:none; stroke:none;"
       id="path3997"
       d="m 12.872994,12.96532 -0.0019,3.873068 6.257812,-1.676776 0.0019,-2.196292 z" />
    <path
       class="fill horizontal24 horizontal12" style="fill:none; stroke:none;"
       id="path4000"
       d="m 12.872994,13.976719 -0.0019,2.861669 6.259746,-1.676122 v -1.185547 z" />
    <path
       class="fill horizontal34" style="fill:none; stroke:none;"
       id="path1750"
       d="m 19.128906,14.988778 h -6.257812 v 1.84961 l 6.257812,-1.675782 z" />
    <path
       class="inline cross12" style="fill:none; stroke:#000000; stroke-width:0.8;"
       d="m 16,16 0,-4.047194"
       id="path357" />
    <path
       class="inline cross12" style="fill:none; stroke:#000000; stroke-width:0.8;"
       d="m 12.737214,13.652157 6.258515,0.0013"
       id="path455" />
    <path
       class="outline" style="fill:none; stroke:black; stroke-width:0.3;"
       id="path349"
       d="m 19.128906,15.161612 v -3.208806 h -6.257812 v 4.885582" />
  </g>
  <path
     class="baseline" style="fill:none; stroke:black; stroke-width:0.5;"
     d="m 11.457132,16 h 9.085736"
     id="path5179" />
  <circle
     class="basepoint" style="fill:white; stroke:black; stroke-width:0.5;"
     id="path5349"
     cx="16"
     cy="16"
     r="1" />
</svg>
