<?xml version="1.0" encoding="UTF-8" standalone="no"?>
<svg
   version="1.0"
   width="32"
   height="32"
   id="svg2"
   sodipodi:docname="anchor.svg"
   inkscape:version="1.2.2 (b0a8486541, 2022-12-01)"
   xmlns:inkscape="http://www.inkscape.org/namespaces/inkscape"
   xmlns:sodipodi="http://sodipodi.sourceforge.net/DTD/sodipodi-0.dtd"
   xmlns="http://www.w3.org/2000/svg"
   xmlns:svg="http://www.w3.org/2000/svg">
  <sodipodi:namedview
     id="namedview22131"
     pagecolor="#ffffff"
     bordercolor="#666666"
     borderopacity="1.0"
     inkscape:showpageshadow="2"
     inkscape:pageopacity="0.0"
     inkscape:pagecheckerboard="0"
     inkscape:deskcolor="#d1d1d1"
     showgrid="false"
     showguides="true"
     inkscape:zoom="33.71875"
     inkscape:cx="16"
     inkscape:cy="16"
     inkscape:window-width="1792"
     inkscape:window-height="1297"
     inkscape:window-x="1685"
     inkscape:window-y="692"
     inkscape:window-maximized="0"
     inkscape:current-layer="svg2">
    <sodipodi:guide
       position="10.083411,16"
       orientation="0,1"
       id="guide22613"
       inkscape:locked="false"
       inkscape:label=""
       inkscape:color="rgb(0,134,229)" />
    <sodipodi:guide
       position="16,24.496756"
       orientation="-1,0"
       id="guide22615"
       inkscape:locked="false"
       inkscape:label=""
       inkscape:color="rgb(0,134,229)" />
  </sodipodi:namedview>
  <g
     id="g51830"
     transform="matrix(1.3333333,0,0,-1.3333333,-638.16021,573.65455)">
    <g
       id="g2110"
       transform="translate(489.1087,423.7348)"
       clip-path="url(#clipPath43575)">
      <path
         d="M 0,0 C 0,0.84 0.681,1.521 1.521,1.521 2.361,1.521 3.042,0.84 3.042,0 3.042,-0.84 2.361,-1.521 1.521,-1.521 0.681,-1.521 0,-0.84 0,0 Z"
         style="fill:none;stroke:#ec008c;stroke-width:0.567;stroke-linecap:butt;stroke-linejoin:miter;stroke-miterlimit:3.864;stroke-dasharray:none;stroke-opacity:1"
         id="path2112" />
    </g>
    <g
       id="g43590">
      <g
         id="g2114"
         transform="translate(490.0827,412.8738)"
         clip-path="url(#clipPath43569-3)">
        <path
           d="m 0,0 c 0.031,0.888 0.089,4.176 0.089,9.57 0.204,0.011 0.639,0.011 0.843,0 0,-5.395 0.088,-8.729 0.129,-9.628 0.002,-0.059 0.09,-0.166 0.004,-0.268 -0.124,-0.108 -0.509,-0.95 -0.509,-0.95 0,0 -0.223,0.64 -0.519,0.937 C -0.03,-0.181 -0.002,-0.069 0,0"
           style="fill:#ec008c;fill-opacity:1;fill-rule:nonzero;stroke:none"
           id="path2116" />
      </g>
      <g
         id="g2118"
         transform="translate(486.6967,415.9888)"
         clip-path="url(#clipPath43563-5)">
        <path
           d="m 0,0 c 0.693,-1.71 2.055,-2.563 3.9,-2.516 1.727,0.045 3.129,0.782 3.834,2.36 L 8.109,-0.328 C 7.321,-2.09 5.854,-3.432 3.924,-3.481 1.862,-3.535 0.384,-2.069 -0.391,-0.156 L 0,0"
           style="fill:#ec008c;fill-opacity:1;fill-rule:nonzero;stroke:none"
           id="path2120" />
      </g>
      <g
         id="g2122"
         transform="translate(495.4967,414.0458)"
         clip-path="url(#clipPath43557-6)">
        <path
           d="m 0,0 c 0,0 -0.427,1.005 -0.487,1.664 -0.026,0.289 0.044,0.748 0.054,0.902 0.002,0.037 -0.088,0.078 -0.116,0.052 C -0.668,2.512 -0.994,2.163 -1.244,1.997 -1.821,1.615 -2.814,1.308 -2.814,1.308 l 0.059,-0.152 c 0,0 1.317,0.164 1.741,0.318 0.151,-0.415 0.86,-1.521 0.86,-1.521 L 0,0"
           style="fill:#ec008c;fill-opacity:1;fill-rule:nonzero;stroke:none"
           id="path2124" />
      </g>
      <g
         id="g2126"
         transform="translate(488.3587,415.5898)"
         clip-path="url(#clipPath43551-1)">
        <path
           d="M 0,0 C 0,0 -1.045,0.319 -1.588,0.697 -1.826,0.862 -2.132,1.211 -2.244,1.317 -2.271,1.343 -2.36,1.301 -2.359,1.262 -2.353,1.103 -2.295,0.629 -2.329,0.331 -2.408,-0.357 -2.811,-1.315 -2.811,-1.315 l 0.155,-0.052 c 0,0 0.72,1.113 0.875,1.538 0.415,-0.151 1.718,-0.319 1.718,-0.319 L 0,0"
           style="fill:#ec008c;fill-opacity:1;fill-rule:nonzero;stroke:none"
           id="path2128" />
      </g>
      <path
         d="m 488.149,419.694 h 4.961 v 0.736 h -4.961 z"
         style="fill:#ec008c;fill-opacity:1;fill-rule:nonzero;stroke:none"
         id="path2130"
         clip-path="url(#clipPath43545-0)" />
    </g>
  </g>
</svg>
