<?xml version="1.0" encoding="UTF-8" standalone="no"?>
<svg
   version="1.0"
   width="11"
   height="7"
   id="svg2"
   sodipodi:docname="barrel.svg"
   inkscape:version="1.4.3 (0d15f75042, 2025-12-25)"
   xmlns:inkscape="http://www.inkscape.org/namespaces/inkscape"
   xmlns:sodipodi="http://sodipodi.sourceforge.net/DTD/sodipodi-0.dtd"
   xmlns="http://www.w3.org/2000/svg"
   xmlns:svg="http://www.w3.org/2000/svg">
  <defs
     id="defs1" />
  <sodipodi:namedview
     id="namedview1"
     pagecolor="#ffffff"
     bordercolor="#000000"
     borderopacity="0.25"
     inkscape:showpageshadow="2"
     inkscape:pageopacity="0.0"
     inkscape:pagecheckerboard="0"
     inkscape:deskcolor="#d1d1d1"
     showguides="true"
     inkscape:zoom="59.125"
     inkscape:cx="5.0570825"
     inkscape:cy="4.397463"
     inkscape:window-width="3840"
     inkscape:window-height="2094"
     inkscape:window-x="0"
     inkscape:window-y="0"
     inkscape:window-maximized="1"
     inkscape:current-layer="svg2">
    <sodipodi:guide
       position="17.506541,2"
       orientation="0,1"
       id="guide1"
       inkscape:locked="false"
       inkscape:label=""
       inkscape:color="rgb(0,134,229)" />
    <sodipodi:guide
       position="5.5,9.5591305"
       orientation="-1,0"
       id="guide2"
       inkscape:locked="false"
       inkscape:label=""
       inkscape:color="rgb(0,134,229)" />
  </sodipodi:namedview>
  <style
     type="text/css"
     id="base">
      .outline {
        fill: none;
        stroke: black;
        stroke-width: 0.3;
      }
      .inline {
        fill: none;
        stroke: none;
        stroke-width: 0.8;
      }
      .fill {
        fill: none;
        stroke: none;
        stroke-width: 0.3;
      }
      .baseline {
        fill: none;
        stroke: black;
        stroke-width: 0.5;
      }
      .basepoint {
        fill: white;
        stroke: black;
        stroke-width: 0.5;
      }
      COLORING{}
  </style>
  <path
     class="fill uniform horizontal02 vertical02 vertical03 cross02"
     d="m 1.8303409,4.9999999 c -0.566614,-2.093318 -0.385011,-4.21915405 3.311629,-4.25043905 3.69664,-0.03129 4.019936,2.33162105 3.509291,4.25043905 z"
     id="BOYSHP_6" />
  <path
     class="fill horizontal12"
     id="path4699"
     d="m 8.7566939,2.8794189 -4.310291,0.380967 -2.839203,-0.195933 c -0.05971,0.60335 -0.0401,1.085541 0.139892,1.750513 h 6.822265 c 0.167907,-0.630933 0.290037,-1.309488 0.187337,-1.935547 z" />
  <path
     class="fill vertical13"
     id="path4640"
     d="m 5.1405709,0.75001085 c -0.331759,0.0028 -0.634974,0.02358 -0.91211,0.05859 0.03791,0.02337 0.07466,0.04849 0.111328,0.07422 0.03742,0.02625 0.07329,0.05341 0.109376,0.08203 0.03608,0.02862 0.07271,0.0589299 0.107421,0.0898399 0.03471,0.03091 0.06827,0.06259 0.101563,0.0957 0.0333,0.03312 0.06581,0.06632 0.09766,0.101562 0.03184,0.03524 0.0634,0.07209 0.09375,0.109375 0.03035,0.03728 0.05908,0.076 0.08789,0.115234 0.02881,0.03924 0.05675,0.07998 0.08398,0.121094 0.02724,0.04112 0.05446,0.08209 0.08008,0.125 0.02562,0.04291 0.05026,0.08624 0.07422,0.13086 0.02396,0.04462 0.04805,0.09047 0.07031,0.136718 0.02227,0.04625 0.04197,0.09283 0.0625,0.1406251 0.02053,0.04779 0.0418,0.09723 0.06055,0.146485 0.01875,0.04926 0.0358,0.09975 0.05273,0.15039 0.01693,0.05064 0.03376,0.100408 0.04883,0.152344 0.01507,0.05194 0.02784,0.105051 0.04102,0.1582029 0.01317,0.05315 0.02588,0.107825 0.03711,0.1621101 0.01123,0.05428 0.022,0.108727 0.03125,0.164062 0.0092,0.05534 0.01621,0.111666 0.02344,0.1679689 0.0072,0.0563 0.01437,0.112734 0.01953,0.169922 0.0052,0.05719 0.0087,0.113885 0.01172,0.171875 0.0031,0.05799 0.0049,0.1170711 0.0059,0.1757811 9.17e-4,0.05871 0.0013,0.1183869 0,0.177734 -0.0013,0.05935 -0.0043,0.1178329 -0.0078,0.1777349 -0.0035,0.0599 -0.0079,0.121267 -0.01367,0.18164 -0.0058,0.06037 -0.01147,0.1208781 -0.01953,0.181641 -0.0081,0.06076 -0.01693,0.120571 -0.02734,0.181641 -0.01041,0.06107 -0.02236,0.1223 -0.03516,0.183593 -0.01158,0.05544 -0.0255,0.110456 -0.03906,0.166016 h 3.153202 C 9.2197109,3.3749809 8.5132249,2.1783978 8.1863009,1.7495027 7.8593769,1.3206077 7.3697609,1.0913537 6.8954779,0.970066 6.4211939,0.848778 5.7215429,0.7543 5.4311399,0.752151 Z" />
  <path
     class="fill vertical12"
     id="path3887"
     d="m 5.1414809,0.75001285 c -0.14046,0.0012 -0.273835,0.0046 -0.404297,0.01172 0.03823,0.02354 0.07436,0.05024 0.111328,0.07617 0.03741,0.02625 0.07525,0.05341 0.111328,0.08203 0.03608,0.02862 0.07076,0.05893 0.105469,0.0898399 0.03471,0.03091 0.06827,0.06259 0.101562,0.0957 0.0333,0.03312 0.06582,0.06632 0.09766,0.101562 0.03184,0.03524 0.0634,0.07209 0.09375,0.109375 0.03035,0.03728 0.05908,0.076 0.08789,0.115235 0.02881,0.03924 0.0587,0.07802 0.08594,0.11914 0.02724,0.04112 0.0525,0.08404 0.07813,0.126953 0.02562,0.04291 0.05025,0.08624 0.07422,0.13086 0.02396,0.04462 0.04805,0.09047 0.07031,0.136718 0.02227,0.04625 0.04393,0.09283 0.06445,0.1406261 0.02053,0.04779 0.03984,0.09723 0.05859,0.146484 0.01875,0.04926 0.0358,0.0978 0.05273,0.148437 0.01693,0.05064 0.03376,0.1023611 0.04883,0.1542971 0.01507,0.05194 0.02785,0.105051 0.04102,0.1582029 0.01317,0.05315 0.02588,0.1078251 0.03711,0.1621101 0.01123,0.05429 0.022,0.108727 0.03125,0.164062 0.0092,0.05534 0.01816,0.1097131 0.02539,0.1660159 0.0072,0.0563 0.01241,0.114687 0.01758,0.171875 0.0052,0.05719 0.0087,0.1138849 0.01172,0.171875 0.0031,0.05799 0.0049,0.1170711 0.0059,0.1757811 9.17e-4,0.05871 0.0013,0.1164339 0,0.1757812 -0.0013,0.05935 -0.0024,0.1197856 -0.0059,0.1796876 -0.0035,0.0599 -0.0099,0.1193142 -0.01563,0.1796871 -0.0058,0.06037 -0.01147,0.120878 -0.01953,0.181641 -0.0081,0.06076 -0.01693,0.122524 -0.02734,0.183594 -0.01041,0.06107 -0.02236,0.1223 -0.03516,0.183593 -0.0128,0.06129 -0.02774,0.122159 -0.04297,0.1835941 -0.0023,0.0091 -0.0055,0.01824 -0.0078,0.02734 h 2.65625 c 0.510645,-1.918812 0.186871,-4.28128595 -3.509765,-4.24999595 z" />
  <path
     class="fill vertical23"
     id="path4637"
     d="m 6.0400329,0.79687185 c 0.03791,0.02337 0.07466,0.04654 0.111328,0.07227 0.03741,0.02625 0.07525,0.05536 0.111329,0.08398 0.03608,0.02862 0.07076,0.0569799 0.105468,0.0878899 0.03471,0.03091 0.06827,0.06454 0.101563,0.09766 0.0333,0.03312 0.06581,0.06632 0.09766,0.1015619 0.03184,0.03524 0.0634,0.0721 0.09375,0.109375 0.03035,0.03728 0.06103,0.07599 0.08984,0.1152349 0.02881,0.03924 0.05675,0.07802 0.08398,0.11914 0.02724,0.04112 0.05251,0.08404 0.07813,0.1269541 0.02562,0.04291 0.05025,0.08624 0.07422,0.1308591 0.02396,0.04462 0.04805,0.09047 0.07031,0.136719 0.02227,0.04625 0.04393,0.09283 0.06445,0.140625 0.02053,0.04779 0.03984,0.09723 0.05859,0.146484 0.01875,0.04926 0.0358,0.0978 0.05273,0.148437 0.01693,0.05064 0.03376,0.102361 0.04883,0.154297 0.01507,0.05194 0.02785,0.105051 0.04102,0.158203 0.01317,0.05315 0.02588,0.105872 0.03711,0.1601569 0.01123,0.05429 0.022,0.11068 0.03125,0.166015 0.0092,0.05533 0.01816,0.109713 0.02539,0.166016 0.0072,0.0563 0.01242,0.114687 0.01758,0.171875 0.0052,0.05719 0.0087,0.1138849 0.01172,0.171875 0.0031,0.05799 0.0069,0.1170719 0.0078,0.175781 9.17e-4,0.05871 -6.86e-4,0.1164351 -0.002,0.1757811 -0.0013,0.05935 -0.0024,0.1197858 -0.0059,0.1796879 -0.0035,0.0599 -0.0079,0.119314 -0.01367,0.1796879 -0.0058,0.06037 -0.01342,0.120877 -0.02148,0.18164 -0.0081,0.06076 -0.01693,0.122524 -0.02734,0.183594 -0.01041,0.06107 -0.02236,0.1223 -0.03516,0.183594 -0.01238,0.05929 -0.02636,0.118306 -0.04102,0.1777341 h 1.34375 c 0.465746,-1.7501009 0.237205,-3.867737 -2.611328,-4.2031253 z" />
  <path
     class="inline cross12"
     d="m 5.5396259,1.0151969 c 0.647684,0.848941 1.003683,2.599475 0.746456,3.862069"
     id="path6944"
     stroke-linecap="round" />
  <path
     class="inline cross12"
     d="m 1.6071999,3.0644529 2.839203,0.195933 4.310291,-0.380967"
     id="path6942" />
  <path
     class="outline"
     d="m 3.0456729,1.1062519 c 1.238614,0.761382 1.692184,2.042572 1.291128,3.893748"
     id="path1059" />
  <path
     class="outline"
     d="m 1.8303409,4.9999999 c -0.566614,-2.093318 -0.385011,-4.21915405 3.311629,-4.25043905 3.69664,-0.03129 4.019936,2.33162105 3.509291,4.25043905 z"
     id="path407" />
  <path
     class="baseline"
     d="M 0.43570089,4.9999999 H 9.4705489"
     id="path5179" />
  <circle
     class="basepoint"
     id="path5349"
     cx="5.5"
     cy="5"
     r="1" />
</svg>
