<?xml version="1.0" encoding="UTF-8" standalone="no"?>
<svg
   version="1.0"
   width="32"
   height="32"
   id="svg2"
   sodipodi:docname="beacon.svg"
   inkscape:version="1.2.2 (b0a8486541, 2022-12-01)"
   xmlns:inkscape="http://www.inkscape.org/namespaces/inkscape"
   xmlns:sodipodi="http://sodipodi.sourceforge.net/DTD/sodipodi-0.dtd"
   xmlns="http://www.w3.org/2000/svg"
   xmlns:svg="http://www.w3.org/2000/svg">
  <sodipodi:namedview
     id="namedview10"
     pagecolor="#ffffff"
     bordercolor="#eeeeee"
     borderopacity="1"
     inkscape:showpageshadow="0"
     inkscape:pageopacity="0"
     inkscape:pagecheckerboard="0"
     inkscape:deskcolor="#505050"
     showgrid="false"
     inkscape:zoom="78.5"
     inkscape:cx="15.910828"
     inkscape:cy="10.350318"
     inkscape:window-width="2285"
     inkscape:window-height="1809"
     inkscape:window-x="1529"
     inkscape:window-y="140"
     inkscape:window-maximized="0"
     inkscape:current-layer="svg2"
     showguides="true">
    <sodipodi:guide
       position="29.834395,16"
       orientation="0,1"
       id="guide1528"
       inkscape:locked="false"
       inkscape:label=""
       inkscape:color="rgb(0,134,229)" />
    <sodipodi:guide
       position="16,20.585987"
       orientation="-1,0"
       id="guide1530"
       inkscape:locked="false"
       inkscape:label=""
       inkscape:color="rgb(0,134,229)" />
    <sodipodi:guide
       position="17.171975,27.159236"
       orientation="0,-1"
       id="guide3117"
       inkscape:locked="false" />
    <sodipodi:guide
       position="17,16"
       orientation="1,0"
       id="guide3217"
       inkscape:locked="false" />
  </sodipodi:namedview>
  <defs
     id="defs20" />
  <style
     type="text/css"
     id="base">
      .outline {
        fill: none;
        stroke: #111111;
        stroke-width: 0.5;
      }
      .fill {
        stroke: none;
        stroke-width: 0.3;
        fill: none;
      }
      .base {
        fill: white;
      }
      FILL{}
  </style>
  <g>
    <path
       class="fill v02"
       id="path303"
       d="M 16 4.8398438 L 15 4.8398438 L 15 16 L 16 16 L 16 4.8398438 z " />
    <path
       class="fill v12"
       id="path1019"
       d="M 16 4.8398438 L 16 16 L 17 16 L 17 4.8398438 L 16 4.8398438 z " />
    <path
       class="fill h34 h12"
       id="path4777"
       d="M 17 13.210938 L 15 13.210938 L 15 16 L 17 16 L 17 13.210938 z " />
    <path
       class="fill h24 h12"
       id="path4785"
       d="M 15 10.419922 L 15 13.210938 L 17 13.210938 L 17 10.419922 L 15 10.419922 z " />
    <path
       class="fill h14 h02"
       id="path4782"
       d="M 15 7.6308594 L 15 10.419922 L 17 10.419922 L 17 7.6308594 L 15 7.6308594 z " />
    <path
       class="fill h04 h02"
       id="path4779"
       d="M 15 4.8398438 L 15 7.6308594 L 17 7.6308594 L 17 4.8398438 L 15 4.8398438 z " />
    <path
       class="fill h23"
       id="path4686"
       d="M 17 12.279297 L 15 12.279297 L 15 16 L 17 16 L 17 12.279297 z " />
    <path
       class="fill h13"
       id="path4791"
       d="M 15 8.5605469 L 15 12.279297 L 17 12.279297 L 17 8.5605469 L 15 8.5605469 z " />
    <path
       class="fill h03"
       id="path4788"
       d="M 15 4.8398438 L 15 8.5605469 L 17 8.5605469 L 17 4.8398438 L 15 4.8398438 z " />
    <path
       class="outline"
       d="M 15,16 V 4.840764 h 2 V 16"
       id="path3219" />
  </g>
  <path
     class="outline"
     d="m 13,16 h 6"
     id="path5181" />
  <circle
     class="outline base"
     id="path5349"
     cx="16"
     cy="16"
     r="1" />
</svg>
