<?xml version="1.0" encoding="UTF-8" standalone="no"?>
<svg
   version="1.0"
   width="32"
   height="32"
   id="svg2"
   sodipodi:docname="caution.svg"
   inkscape:version="1.2.2 (b0a8486541, 2022-12-01)"
   xmlns:inkscape="http://www.inkscape.org/namespaces/inkscape"
   xmlns:sodipodi="http://sodipodi.sourceforge.net/DTD/sodipodi-0.dtd"
   xmlns="http://www.w3.org/2000/svg"
   xmlns:svg="http://www.w3.org/2000/svg">
  <sodipodi:namedview
     id="namedview22131"
     pagecolor="#ffffff"
     bordercolor="#666666"
     borderopacity="1.0"
     inkscape:showpageshadow="2"
     inkscape:pageopacity="0.0"
     inkscape:pagecheckerboard="0"
     inkscape:deskcolor="#d1d1d1"
     showgrid="false"
     showguides="true"
     inkscape:zoom="33.71875"
     inkscape:cx="15.733086"
     inkscape:cy="15.614458"
     inkscape:window-width="1792"
     inkscape:window-height="1297"
     inkscape:window-x="1685"
     inkscape:window-y="692"
     inkscape:window-maximized="0"
     inkscape:current-layer="svg2">
    <sodipodi:guide
       position="10.083411,16"
       orientation="0,1"
       id="guide22613"
       inkscape:locked="false"
       inkscape:label=""
       inkscape:color="rgb(0,134,229)" />
    <sodipodi:guide
       position="16,24.496756"
       orientation="-1,0"
       id="guide22615"
       inkscape:locked="false"
       inkscape:label=""
       inkscape:color="rgb(0,134,229)" />
  </sodipodi:namedview>
    <g
     id="g84246"
     transform="matrix(1.3333333,0,0,-1.3333333,-663.52277,772.44945)">
    <g
       id="g2168"
       transform="translate(505.5207,563.3778)"
       clip-path="url(#clipPath43485)">
      <path
         d="m 0,0 c 2.681,0 6.688,0.02 8.231,0.029 0.52,0 0.357,0.336 0.219,0.587 C 7.248,2.709 5.067,6.619 4.383,7.759 4.255,7.972 3.929,7.973 3.806,7.761 3.131,6.607 0.943,2.589 -0.273,0.47 -0.424,0.231 -0.34,0 0,0 Z"
         style="fill:none;stroke:#ec008c;stroke-width:0.85;stroke-linecap:butt;stroke-linejoin:miter;stroke-miterlimit:3.864;stroke-dasharray:none;stroke-opacity:1"
         id="path2170" />
    </g>
    <g
       id="g2172"
       transform="translate(509.0837,564.8048)"
       clip-path="url(#clipPath43479)">
      <path
         d="M 0,0 C 0,0.308 0.249,0.557 0.557,0.557 0.865,0.557 1.115,0.308 1.115,0 1.115,-0.308 0.865,-0.557 0.557,-0.557 0.249,-0.557 0,-0.308 0,0"
         style="fill:#ec008c;fill-opacity:1;fill-rule:nonzero;stroke:none"
         id="path2174" />
    </g>
    <g
       id="g2176"
       transform="translate(509.6207,569.2268)"
       clip-path="url(#clipPath43473)">
      <path
         d="M 0,0 C 0.62,0 0.488,-0.616 0.488,-0.616 L 0.266,-3.239 c 0,0 -0.008,-0.24 -0.107,-0.24 h -0.28 c -0.091,0 -0.104,0.241 -0.104,0.241 l -0.222,2.612 C -0.447,-0.626 -0.568,0 0,0"
         style="fill:#ec008c;fill-opacity:1;fill-rule:nonzero;stroke:none"
         id="path2178" />
    </g>
  </g>
</svg>
