<?xml version="1.0" encoding="UTF-8" standalone="no"?>
<svg
   version="1.0"
   width="5"
   height="7"
   id="svg2"
   sodipodi:docname="circle.svg"
   inkscape:version="1.4.3 (0d15f75042, 2025-12-25)"
   xmlns:inkscape="http://www.inkscape.org/namespaces/inkscape"
   xmlns:sodipodi="http://sodipodi.sourceforge.net/DTD/sodipodi-0.dtd"
   xmlns="http://www.w3.org/2000/svg"
   xmlns:svg="http://www.w3.org/2000/svg">
  <defs
     id="defs1" />
  <sodipodi:namedview
     id="namedview1"
     pagecolor="#ffffff"
     bordercolor="#000000"
     borderopacity="0.25"
     inkscape:showpageshadow="2"
     inkscape:pageopacity="0.0"
     inkscape:pagecheckerboard="0"
     inkscape:deskcolor="#d1d1d1"
     inkscape:zoom="59.125"
     inkscape:cx="2.1649049"
     inkscape:cy="6.2579281"
     inkscape:window-width="3840"
     inkscape:window-height="2094"
     inkscape:window-x="0"
     inkscape:window-y="0"
     inkscape:window-maximized="1"
     inkscape:current-layer="svg2" />
  <style
     type="text/css"
     id="base">
      .outline {
        fill: none;
        stroke: black;
        stroke-width: 0.3;
      }
      .inline {
        fill: none;
        stroke: none;
        stroke-width: 0.8;
      }
      .fill {
        fill: none;
        stroke: none;
        stroke-width: 0.3;
      }
      .baseline {
        fill: none;
        stroke: black;
        stroke-width: 0.5;
      }
      .basepoint {
        fill: white;
        stroke: black;
        stroke-width: 0.5;
      }
      COLORING{}
  </style>
  <g
     id="g1"
     transform="translate(0.34019613,0.7455851)">
    <path
       class="baseline"
       d="m 2.1598038,4.1686229 v 2.085792"
       id="TOPSHP_26" />
    <circle
       class="fill uniform border12 vertical02 horizontal02 vertical03 horizontal03 cross02 saltire02 squared02"
       id="path348"
       cx="2.1598039"
       cy="2.1598039"
       r="2.0098038" />
    <path
       id="path366"
       class="fill vertical12 vertical23"
       d="M 2.1598038,0.14900885 V 4.1699569 a 2.0098038,2.0098038 0 0 0 2.010474,-2.010475 2.0098038,2.0098038 0 0 0 -2.010474,-2.01047305 z" />
    <path
       id="circle369"
       class="fill horizontal12 horizontal23"
       d="M 4.1702778,2.1594819 H 0.14932878 a 2.0098038,2.0098038 0 0 0 2.01047502,2.010475 2.0098038,2.0098038 0 0 0 2.010474,-2.010475 z" />
    <path
       class="inline cross12 horizontal13"
       d="m 0.14932878,2.1594819 4.02027902,3.22e-4"
       id="path309" />
    <path
       class="inline cross12 vertical13"
       d="M 2.1596298,0.14950345 2.1593078,4.1697829"
       id="path311" />
    <path
       class="inline saltire12"
       d="M 3.5809658,0.73837395 0.73797178,3.5809129"
       id="path313" />
    <path
       class="inline saltire12"
       d="M 0.73797178,0.73837395 3.5809658,3.5809129"
       id="path369" />
    <path
       id="circle303"
       class="fill squared12"
       d="M 2.1598038,2.1606649 H 0.15003778 a 2.0098038,2.0098038 0 0 0 2.00976602,2.009766 z" />
    <path
       id="path438"
       class="fill squared12"
       d="M 2.1598038,0.15089935 V 2.1606649 h 2.009766 A 2.0098038,2.0098038 0 0 0 2.1598038,0.15089935 Z" />
    <circle
       class="outline border02"
       id="circle13"
       cx="2.1598039"
       cy="2.1598039"
       r="2.0098038" />
  </g>
</svg>
