<?xml version="1.0" encoding="UTF-8"?>
<svg xmlns="http://www.w3.org/2000/svg" version="1.0" width="5" height="7" id="svg2">
  <style type="text/css" id="base">
      .outline {
        fill: none;
        stroke: black;
        stroke-width: 0.3;
      }
      .inline {
        fill: none;
        stroke: none;
        stroke-width: 0.8;
      }
      .fill {
        fill: none;
        stroke: none;
        stroke-width: 0.3;
      }
      .baseline {
        fill: none;
        stroke: black;
        stroke-width: 0.5;
      }
      .basepoint {
        fill: white;
        stroke: black;
        stroke-width: 0.5;
      }
      COLORING{}
  </style>
  <g id="g1" transform="translate(0.34019613,0.7455851)">
    <path
      class="baseline"
      d="m 2.1598038,4.1686229 v 2.085792" id="TOPSHP_26"/>
    <circle
      class="fill uniform border12 vertical02 horizontal02 vertical03 horizontal03 cross02 saltire02 squared02"
      cx="2.1598039" cy="2.1598039" r="2.0098038"/>
    <path
      class="fill vertical12 vertical23"
      d="M 2.1598038,0.14900885 V 4.1699569 a 2.0098038,2.0098038 0 0 0 2.010474,-2.010475 2.0098038,2.0098038 0 0 0 -2.010474,-2.01047305 z"/>
    <path id="circle369"
      class="fill horizontal12 horizontal23"
      d="M 4.1702778,2.1594819 H 0.14932878 a 2.0098038,2.0098038 0 0 0 2.01047502,2.010475 2.0098038,2.0098038 0 0 0 2.010474,-2.010475 z"/>
    <path
      class="inline cross12 horizontal13"
      d="m 0.14932878,2.1594819 4.02027902,3.22e-4"/>
    <path
      class="inline cross12 vertical13"
      d="M 2.1596298,0.14950345 2.1593078,4.1697829"/>
    <path
      class="inline saltire12"
      d="M 3.5809658,0.73837395 0.73797178,3.5809129"/>
    <path
      class="inline saltire12"
      d="M 0.73797178,0.73837395 3.5809658,3.5809129"/>
    <path id="circle303"
      class="fill squared12"
      d="M 2.1598038,2.1606649 H 0.15003778 a 2.0098038,2.0098038 0 0 0 2.00976602,2.009766 z"/>
    <path
      class="fill squared12"
      d="M 2.1598038,0.15089935 V 2.1606649 h 2.009766 A 2.0098038,2.0098038 0 0 0 2.1598038,0.15089935 Z"/>
    <circle
      class="outline border02"
      id="circle13" cx="2.1598039" cy="2.1598039" r="2.0098038"/>
  </g>
</svg>
