<?xml version="1.0" encoding="UTF-8" standalone="no"?>
<svg
   version="1.0"
   width="10"
   height="9"
   id="svg2"
   sodipodi:docname="conical.svg"
   inkscape:version="1.4.3 (0d15f75042, 2025-12-25)"
   xmlns:inkscape="http://www.inkscape.org/namespaces/inkscape"
   xmlns:sodipodi="http://sodipodi.sourceforge.net/DTD/sodipodi-0.dtd"
   xmlns="http://www.w3.org/2000/svg"
   xmlns:svg="http://www.w3.org/2000/svg">
  <defs
     id="defs1" />
  <sodipodi:namedview
     id="namedview1"
     pagecolor="#ffffff"
     bordercolor="#000000"
     borderopacity="0.25"
     inkscape:showpageshadow="2"
     inkscape:pageopacity="0.0"
     inkscape:pagecheckerboard="0"
     inkscape:deskcolor="#d1d1d1"
     showguides="true"
     inkscape:zoom="59.125"
     inkscape:cx="4.5496829"
     inkscape:cy="6.2241015"
     inkscape:window-width="3840"
     inkscape:window-height="2094"
     inkscape:window-x="0"
     inkscape:window-y="0"
     inkscape:window-maximized="1"
     inkscape:current-layer="svg2">
    <sodipodi:guide
       position="14.055034,2"
       orientation="0,1"
       id="guide1"
       inkscape:locked="false"
       inkscape:label=""
       inkscape:color="rgb(0,134,229)" />
    <sodipodi:guide
       position="5,5.2601744"
       orientation="-1,0"
       id="guide2"
       inkscape:locked="false"
       inkscape:label=""
       inkscape:color="rgb(0,134,229)" />
  </sodipodi:namedview>
  <style
     type="text/css"
     id="base">
      .outline {
        fill: none;
        stroke: black;
        stroke-width: 0.3;
      }
      .inline {
        fill: none;
        stroke: none;
        stroke-width: 0.8;
      }
      .fill {
        fill: none;
        stroke: none;
        stroke-width: 0.3;
      }
      .baseline {
        fill: none;
        stroke: black;
        stroke-width: 0.5;
      }
      .basepoint {
        fill: white;
        stroke: black;
        stroke-width: 0.5;
      }
      COLORING{}
  </style>
  <g
     id="BOYSHP_1"
     transform="rotate(15,44.683427,-30.276314)">
    <path
       id="path295"
       class="fill vertical02 vertical03 uniform horizontal02 horizontal03 horizontal04 cross02"
       d="m 16,9.7506672 c -2.447035,1.9115558 -2.942256,5.2686078 -3.128906,7.0878908 l 6.070053,-1.626636 C 18.511423,12.953334 17.473098,11.179022 16,9.7506672 Z" />
    <path
       id="path376"
       class="fill vertical13"
       d="m 15.033697,10.688245 3.77e-4,5.570574 3.907095,-1.046903 C 18.511445,12.95333 17.472661,11.178395 15.999564,9.7500412 15.636111,10.033961 15.316418,10.350323 15.033697,10.688245 Z" />
    <path
       id="path1002"
       class="fill vertical12"
       d="m 16,9.7506672 v 6.2499998 l 2.941406,-0.787109 C 18.615585,13.801826 18.113656,11.689146 16,9.7506672 Z" />
    <path
       id="path381"
       class="fill vertical23"
       d="m 16.965571,10.81967 3.55e-4,4.921511 1.975243,-0.529265 c -0.32844,-1.726243 -1.013604,-3.169863 -1.975598,-4.392246 z" />
    <path
       id="path1008"
       class="fill horizontal13"
       d="m 14.261719,11.817158 c -0.420836,0.831853 -1.353303,3.134089 -1.390625,5.021315 l 6.070053,-1.626466 c -0.256094,-1.073121 -0.668573,-2.501029 -1.273178,-3.394849 -1.150091,0.240672 -2.283414,0.206323 -3.40625,0 z" />
    <path
       id="path968"
       class="fill horizontal23"
       d="m 18.568358,13.883479 c -1.739701,0.397901 -3.455999,0.364736 -5.154296,0 -0.323835,1.110772 -0.46289,2.174553 -0.542968,2.955079 l 6.070311,-1.625 c -0.09696,-0.365508 -0.211154,-0.821843 -0.373047,-1.330079 z" />
    <path
       id="path1033"
       class="fill horizontal14"
       d="m 14.578125,11.301448 c -0.538461,0.911582 -1.691659,3.262627 -1.707031,5.53694 l 6.070053,-1.626466 c -0.344398,-1.723627 -0.882343,-2.708436 -1.59935,-3.910474 -0.948275,0.139634 -1.862927,0.105707 -2.763672,0 z" />
    <path
       id="path1036"
       class="fill horizontal24 horizontal12"
       d="m 13.771484,12.850276 c -0.454878,1.341689 -0.761298,2.585755 -0.90039,3.988282 l 6.070312,-1.625 c -0.06091,-0.761453 -0.514982,-1.803335 -0.755859,-2.363282 -1.556811,0.257636 -3.010349,0.197141 -4.414063,0 z" />
    <path
       id="path966"
       class="fill horizontal34"
       d="m 18.722656,14.401058 c -1.865326,0.34895 -3.6745,0.310596 -5.447265,0 -0.227276,0.91922 -0.33675,1.779105 -0.404297,2.4375 l 6.070312,-1.625 c -0.06272,-0.236417 -0.13387,-0.511067 -0.21875,-0.8125 z" />
    <path
       class="inline cross12"
       d="m 13.706306,13.116998 c 1.284343,0.221609 3.081784,0.311932 4.573887,0.106426"
       id="path488" />
    <path
       class="inline cross12"
       d="M 16,16 16.0013,9.9138547"
       id="path486" />
    <path
       class="outline"
       id="path390"
       d="M 18.941147,15.211922 C 18.610435,13.965312 18.113658,11.689148 16,9.7506672 13.552963,11.662225 13.057744,15.019104 12.871094,16.838388" />
  </g>
  <path
     class="baseline"
     d="M 0.45730476,6.9993556 H 9.5430408"
     id="path5179" />
  <circle
     class="basepoint"
     id="path5349"
     cx="5.0001731"
     cy="6.9993553"
     r="1" />
</svg>
