<?xml version="1.0" encoding="UTF-8" standalone="no"?>
<svg
   version="1.0"
   width="32"
   height="32"
   id="svg2"
   sodipodi:docname="dir-buoyage.svg"
   inkscape:version="1.2.2 (b0a8486541, 2022-12-01)"
   xml:space="preserve"
   xmlns:inkscape="http://www.inkscape.org/namespaces/inkscape"
   xmlns:sodipodi="http://sodipodi.sourceforge.net/DTD/sodipodi-0.dtd"
   xmlns="http://www.w3.org/2000/svg"
   xmlns:svg="http://www.w3.org/2000/svg">
  <style
   type="text/css"
   id="base">
      .outline {
        fill: none;
        stroke: black;
        stroke-width: 0.3;
      }
      .inline {
        fill: none;
        stroke: none;
        stroke-width: 0.8;
      }
      .fill {
        fill: none;
        stroke: none;
        stroke-width: 0.3;
      }
      .baseline {
        fill: none;
        stroke: black;
        stroke-width: 0.5;
      }
      .basepoint {
        fill: white;
        stroke: black;
        stroke-width: 0.5;
      }
      COLORING{}
  </style>



















<g
   id="g2164"
   transform="matrix(1.0154085,0,0,-1.0109459,-161.16764,190.06588)"
   style="stroke-width:1.316"><g
     id="g2166"
     clip-path="url(#clipPath2170)"
     style="stroke-width:1.316"><g
       id="g2172"
       transform="translate(174.4744,183.7437)"
       style="stroke-width:1.316"><path
         d="M 0,0 V 0 L 13.18,-16.44 H 8.396 v -8.219 H -8.328 v 8.219 h -4.85 z m -13.778,-1.158 c 0,1.487 1.206,2.692 2.693,2.692 1.487,0 2.692,-1.206 2.693,-2.692 0,-1.488 -1.206,-2.694 -2.693,-2.694 -1.487,0 -2.693,1.206 -2.693,2.694 z M 8.643,-1.409 c 0,1.487 1.206,2.692 2.693,2.692 1.487,0 2.693,-1.205 2.693,-2.692 0,-1.487 -1.206,-2.694 -2.693,-2.694 -1.487,10e-4 -2.693,1.207 -2.693,2.694 z"
         style="fill:none;stroke:#6e2c8c;stroke-width:1.316;stroke-linecap:butt;stroke-linejoin:miter;stroke-miterlimit:3.864;stroke-dasharray:none;stroke-opacity:1"
         id="path2174" /></g></g></g></svg>
