<?xml version="1.0" encoding="UTF-8" standalone="no"?>
<svg
   version="1.0"
   width="32"
   height="32"
   id="svg2"
   sodipodi:docname="dish_aerial.svg"
   inkscape:version="1.2.2 (b0a8486541, 2022-12-01)"
   xmlns:inkscape="http://www.inkscape.org/namespaces/inkscape"
   xmlns:sodipodi="http://sodipodi.sourceforge.net/DTD/sodipodi-0.dtd"
   xmlns="http://www.w3.org/2000/svg"
   xmlns:svg="http://www.w3.org/2000/svg">
  <defs
     id="defs16">
    <clipPath
       clipPathUnits="userSpaceOnUse"
       id="clipPath3749">
      <path
         d="m 76.203,444.544 h 122.4 v 25.423 h -122.4 z"
         id="path3747" />
    </clipPath>
  </defs>
  <sodipodi:namedview
     id="namedview14"
     pagecolor="#ffffff"
     bordercolor="#eeeeee"
     borderopacity="1"
     inkscape:showpageshadow="0"
     inkscape:pageopacity="0"
     inkscape:pagecheckerboard="0"
     inkscape:deskcolor="#505050"
     showgrid="false"
     showguides="true"
     inkscape:zoom="30.75"
     inkscape:cx="15.300813"
     inkscape:cy="15.98374"
     inkscape:window-width="1702"
     inkscape:window-height="1471"
     inkscape:window-x="465"
     inkscape:window-y="29"
     inkscape:window-maximized="0"
     inkscape:current-layer="svg2">
    <sodipodi:guide
       position="17.333333,16"
       orientation="0,1"
       id="guide745"
       inkscape:locked="false"
       inkscape:label=""
       inkscape:color="rgb(0,134,229)" />
    <sodipodi:guide
       position="16,33.691057"
       orientation="-1,0"
       id="guide1473"
       inkscape:locked="false"
       inkscape:label=""
       inkscape:color="rgb(0,134,229)" />
  </sodipodi:namedview>
  <g
     id="CATLMK_4"
     transform="matrix(1.3333333,0,0,-1.3333333,-166.84123,619.72055)">
    <g
       id="g3745"
       clip-path="url(#clipPath3749)">
      <g
         id="g3751"
         transform="translate(136.496,455.5459)">
        <path
           d="m 0,0 h 1.276 l 0.212,-2.834 c 0,0 -0.244,0.625 -0.852,0.679 -0.609,0.054 -0.848,-0.679 -0.848,-0.679 z"
           style="fill:#231f20;fill-opacity:1;fill-rule:nonzero;stroke:none"
           id="path3753" />
      </g>
      <g
         id="g3755"
         transform="translate(136.7264,456.2812)">
        <path
           d="M 0,0 0.844,-0.281 V -0.844 L 0,-0.875 Z"
           style="fill:#231f20;fill-opacity:1;fill-rule:nonzero;stroke:none"
           id="path3757" />
      </g>
      <g
         id="g3759"
         transform="translate(136.5116,452.6523)">
        <path
           d="m 0,0 h -1.503 v 0.283 h 1.502 z"
           style="fill:#231f20;fill-opacity:1;fill-rule:nonzero;stroke:none"
           id="path3761" />
      </g>
      <g
         id="g3763"
         transform="translate(137.7831,452.9355)">
        <path
           d="M 0,0 H 1.477 V -0.283 H -0.008 Z"
           style="fill:#231f20;fill-opacity:1;fill-rule:nonzero;stroke:none"
           id="path3765" />
      </g>
      <g
         id="g3767"
         transform="translate(136.4257,452.7939)">
        <path
           d="M 0,0 C 0,0.392 0.317,0.709 0.709,0.709 1.1,0.709 1.418,0.392 1.418,0 1.418,-0.392 1.1,-0.709 0.709,-0.709 0.317,-0.709 0,-0.392 0,0 Z"
           style="fill:none;stroke:#231f20;stroke-width:0.283;stroke-linecap:butt;stroke-linejoin:miter;stroke-miterlimit:3.864;stroke-dasharray:none;stroke-opacity:1"
           id="path3769" />
      </g>
      <g
         id="g3771"
         transform="translate(139.8495,455.917)">
        <path
           d="m 0,0 c -0.348,-0.121 -0.723,-0.187 -1.113,-0.187 -1.881,0 -3.406,1.526 -3.406,3.407 0,0.74 0.237,1.426 0.701,1.984 z"
           style="fill:none;stroke:#231f20;stroke-width:0.283;stroke-linecap:butt;stroke-linejoin:miter;stroke-miterlimit:3.864;stroke-dasharray:none;stroke-opacity:1"
           id="path3773" />
      </g>
      <g
         id="g3775"
         transform="translate(137.9432,458.3819)">
        <path
           d="M 0,0 0.955,0.785"
           style="fill:none;stroke:#231f20;stroke-width:0.283;stroke-linecap:butt;stroke-linejoin:miter;stroke-miterlimit:3.864;stroke-dasharray:none;stroke-opacity:1"
           id="path3777" />
      </g>
    </g>
  </g>
</svg>
