<?xml version="1.0" encoding="UTF-8" standalone="no"?>
<svg
   version="1.0"
   width="4"
   height="32"
   id="svg2"
   sodipodi:docname="ebb-tide.svg"
   inkscape:version="1.4.3 (0d15f75042, 2025-12-25)"
   xmlns:inkscape="http://www.inkscape.org/namespaces/inkscape"
   xmlns:sodipodi="http://sodipodi.sourceforge.net/DTD/sodipodi-0.dtd"
   xmlns="http://www.w3.org/2000/svg"
   xmlns:svg="http://www.w3.org/2000/svg">
  <defs
     id="defs1" />
  <sodipodi:namedview
     id="namedview22131"
     pagecolor="#ffffff"
     bordercolor="#666666"
     borderopacity="1.0"
     inkscape:showpageshadow="2"
     inkscape:pageopacity="0.0"
     inkscape:pagecheckerboard="0"
     inkscape:deskcolor="#d1d1d1"
     showgrid="false"
     showguides="true"
     inkscape:zoom="32.90625"
     inkscape:cx="1.2155745"
     inkscape:cy="15.133903"
     inkscape:window-width="3840"
     inkscape:window-height="2094"
     inkscape:window-x="0"
     inkscape:window-y="0"
     inkscape:window-maximized="1"
     inkscape:current-layer="svg2">
    <sodipodi:guide
       position="-4.6919009,14.856334"
       orientation="0,1"
       id="guide22613"
       inkscape:locked="false"
       inkscape:label=""
       inkscape:color="rgb(0,134,229)" />
    <sodipodi:guide
       position="1.2246881,23.35309"
       orientation="-1,0"
       id="guide22615"
       inkscape:locked="false"
       inkscape:label=""
       inkscape:color="rgb(0,134,229)" />
  </sodipodi:namedview>
  <g
     id="g8737"
     transform="translate(-14.011456,0.15103056)">
    <g
       id="g6924"
       transform="matrix(0,-0.9581108,-0.9581108,0,15.844934,30.677726)"
       clip-path="url(#clipPath7769)"
       style="stroke-width:1.39163">
      <path
         d="M 0,0 H 30.331 V -0.34 H 0 C -0.256,-0.34 -0.241,0 0,0"
         style="fill:#231f20;fill-opacity:1;fill-rule:nonzero;stroke:none;stroke-width:1.39163"
         id="path6926" />
    </g>
    <g
       id="g6928"
       transform="matrix(0,-0.9581108,-0.9581108,0,17.229691,2.4788971)"
       clip-path="url(#clipPath7763)"
       style="stroke-width:1.39163">
      <path
         d="M 0,0 C 0.57,0.438 1.027,0.763 1.676,1.232 1.722,1.265 1.715,1.294 1.684,1.317 1.069,1.778 0.493,2.18 -0.016,2.548 -0.105,2.613 -0.258,2.435 -0.083,2.256 0.223,1.943 0.875,1.282 0.875,1.282 c 0,0 -0.544,-0.571 -0.958,-0.999 C -0.258,0.102 -0.102,-0.078 0,0"
         style="fill:#231f20;fill-opacity:1;fill-rule:nonzero;stroke:none;stroke-width:1.39163"
         id="path6930" />
    </g>
  </g>
</svg>
