<?xml version="1.0" encoding="UTF-8" standalone="no"?>
<svg
   version="1.0"
   width="32"
   height="32"
   id="svg2"
   sodipodi:docname="eddies.svg"
   inkscape:version="1.2.2 (b0a8486541, 2022-12-01)"
   xmlns:inkscape="http://www.inkscape.org/namespaces/inkscape"
   xmlns:sodipodi="http://sodipodi.sourceforge.net/DTD/sodipodi-0.dtd"
   xmlns="http://www.w3.org/2000/svg"
   xmlns:svg="http://www.w3.org/2000/svg">
  <sodipodi:namedview
     id="namedview22131"
     pagecolor="#ffffff"
     bordercolor="#666666"
     borderopacity="1.0"
     inkscape:showpageshadow="2"
     inkscape:pageopacity="0.0"
     inkscape:pagecheckerboard="0"
     inkscape:deskcolor="#d1d1d1"
     showgrid="false"
     showguides="true"
     inkscape:zoom="32.90625"
     inkscape:cx="15.984805"
     inkscape:cy="16"
     inkscape:window-width="1792"
     inkscape:window-height="1297"
     inkscape:window-x="1795"
     inkscape:window-y="676"
     inkscape:window-maximized="0"
     inkscape:current-layer="svg2">
    <sodipodi:guide
       position="10.083411,16"
       orientation="0,1"
       id="guide22613"
       inkscape:locked="false"
       inkscape:label=""
       inkscape:color="rgb(0,134,229)" />
    <sodipodi:guide
       position="16,24.496756"
       orientation="-1,0"
       id="guide22615"
       inkscape:locked="false"
       inkscape:label=""
       inkscape:color="rgb(0,134,229)" />
  </sodipodi:namedview>

  <g
     id="g9980"
     transform="matrix(1.3333333,0,0,-1.3333333,17.854441,16.273047)"
     clip-path="url(#clipPath924)">
    <path
       d="M 0,0 C -0.375,-1.438 -1.894,-1.193 -2.283,-0.697 -2.578,-0.323 -3.009,0.793 -1.408,1.61 0.247,2.455 1.533,0.982 1.6,0.008 1.8,-2.955 -3.628,-3.578 -4.322,-0.664 -4.569,0.37 -4.191,2.365 -1.813,2.968 L -1.76,2.773 C -3.943,2.22 -4.113,0.449 -3.891,-0.484 c 0.217,-0.912 0.932,-1.91 2.93,-1.735 1.686,0.149 2.222,1.474 2.18,2.094 -0.059,0.868 -1.147,2.11 -2.541,1.398 -1.399,-0.713 -0.966,-1.46 -0.75,-1.734 0.297,-0.379 1.524,-0.678 1.9,0.491 z"
       style="fill:#231f20;fill-opacity:1;fill-rule:nonzero;stroke:none"
       id="path9982" />
  </g>
</svg>
