<?xml version="1.0" encoding="UTF-8"?>
<svg xmlns="http://www.w3.org/2000/svg" version="1.0" width="10" height="6" id="svg2">
  <style type="text/css" id="base">
      .outline {
        fill: none;
        stroke: black;
        stroke-width: 0.3;
      }
      .inline {
        fill: none;
        stroke: none;
        stroke-width: 0.8;
      }
      .fill {
        fill: none;
        stroke: none;
        stroke-width: 0.3;
      }
      .baseline {
        fill: none;
        stroke: black;
        stroke-width: 0.5;
      }
      .basepoint {
        fill: white;
        stroke: black;
        stroke-width: 0.5;
      }
      COLORING{}
  </style>
  <g id="g1" transform="translate(4.722372,0.6952232)">
    <path
      class="baseline"
      d="m 0.27762803,3.2189848 v 2.085792" id="TOPSHP_17"/>
    <path
      class="fill uniform border12 horizontal02 vertical02 horizontal03 vertical03 cross02 saltire02 squared02"
      d="m 0.15096103,0.15837684 4.36495097,-0.0081 0.01955,3.05565796 -4.36494997,0.0081 z"/>
    <path
      class="fill horizontal13"
      d="M 4.523833,1.1734998 H 0.15699703 l 0.01264,2.039871 4.36683697,-0.007 z"/>
    <path
      class="fill vertical13"
      d="M 1.586646,0.15532084 V 3.2116148 l 2.949749,-0.0053 -0.02011,-3.05629296 z"/>
    <path
      class="fill horizontal23"
      d="M 4.53137,2.1916798 H 0.16202203 l 0.0076,1.021691 4.36683697,-0.007 z"/>
    <path
      class="fill vertical23"
      d="M 3.099209,0.15180884 V 3.2081028 l 1.437186,-0.0018 -0.02011,-3.05629296 z"/>
    <path
      class="fill horizontal12"
      d="M 4.526098,1.6921428 H 0.16205303 l 0.0076,1.522726 4.36656497,-0.0088 z"/>
    <path
      class="fill vertical12"
      d="M 2.359193,0.15357484 V 3.2095878 l 2.176983,-0.0035 -0.02016,-3.05601296 z"/>
    <path
      class="fill squared12"
      d="M 2.359193,1.6921428 H 0.16205303 l 0.0076,1.522726 2.18952897,-0.0053 z"/>
    <path
      class="fill squared12"
      d="M 2.359193,0.15357484 V 1.6921428 H 4.526098 L 4.516038,0.15005384 Z"/>
    <path
      class="inline cross12"
      d="M 2.352978,0.15433184 V 3.2099898"/>
    <path
      class="inline cross12"
      d="m 0.16073203,1.6862058 4.36561297,-0.008"/>
    <path
      class="inline saltire12"
      d="M 0.33455003,0.28514884 4.361842,3.0791738"/>
    <path
      class="inline saltire12"
      d="M 4.324225,0.29905784 0.33617703,3.0939298"/>
    <path
      class="outline border02"
      d="m 0.15096103,0.15837684 4.36495097,-0.0081 0.01955,3.05565796 -4.36494997,0.0081 z" id="path13"/>
  </g>
</svg>
