<?xml version="1.0" encoding="UTF-8" standalone="no"?>
<svg
   version="1.0"
   width="32"
   height="32"
   id="svg2"
   sodipodi:docname="fogsignal.svg"
   inkscape:version="1.2.2 (b0a8486541, 2022-12-01)"
   xmlns:inkscape="http://www.inkscape.org/namespaces/inkscape"
   xmlns:sodipodi="http://sodipodi.sourceforge.net/DTD/sodipodi-0.dtd"
   xmlns="http://www.w3.org/2000/svg"
   xmlns:svg="http://www.w3.org/2000/svg">
  <defs
     id="defs10" />
  <sodipodi:namedview
     id="namedview22131"
     pagecolor="#ffffff"
     bordercolor="#666666"
     borderopacity="1.0"
     inkscape:showpageshadow="2"
     inkscape:pageopacity="0.0"
     inkscape:pagecheckerboard="0"
     inkscape:deskcolor="#d1d1d1"
     showgrid="false"
     showguides="true"
     inkscape:zoom="32.90625"
     inkscape:cx="15.984805"
     inkscape:cy="16"
     inkscape:window-width="1792"
     inkscape:window-height="1297"
     inkscape:window-x="1685"
     inkscape:window-y="692"
     inkscape:window-maximized="0"
     inkscape:current-layer="svg2">
    <sodipodi:guide
       position="10.083411,16"
       orientation="0,1"
       id="guide22613"
       inkscape:locked="false"
       inkscape:label=""
       inkscape:color="rgb(0,134,229)" />
    <sodipodi:guide
       position="16,24.496756"
       orientation="-1,0"
       id="guide22615"
       inkscape:locked="false"
       inkscape:label=""
       inkscape:color="rgb(0,134,229)" />
  </sodipodi:namedview>
  <g
     id="g103189"
     transform="matrix(-0.0165129,1.333231,1.333231,0.0165129,-79.474056,-89.611965)"
     inkscape:transform-center-x="-4.9103491"
     inkscape:transform-center-y="5.0339354">
    <path
       d="m 80.3997,79.9873 c 1.182,-0.485 2.289,-1.205 3.249,-2.166 0.944,-0.946 1.717,-2.006 2.156,-3.219 l -0.787,-0.313 c -0.404,1.1 -1.108,2.069 -1.972,2.93 -0.871,0.871 -1.881,1.537 -3.003,1.936 l 0.357,0.832"
       style="fill:#ec008c;fill-opacity:1;fill-rule:nonzero;stroke:none"
       id="path6464"
       clip-path="url(#clipPath99878)" />
    <path
       d="m 79.5417,77.8873 c 0.91,-0.375 1.764,-0.93 2.502,-1.67 0.728,-0.726 1.313,-1.486 1.658,-2.463 l -0.795,-0.326 c -0.295,0.828 -0.832,1.533 -1.474,2.178 -0.65,0.648 -1.391,1.146 -2.244,1.43 l 0.353,0.851"
       style="fill:#ec008c;fill-opacity:1;fill-rule:nonzero;stroke:none"
       id="path6468"
       clip-path="url(#clipPath100673)" />
    <path
       d="m 78.6947,75.7863 c 0.639,-0.264 1.227,-0.653 1.747,-1.172 0.508,-0.508 0.94,-1.047 1.162,-1.709 l -0.793,-0.311 c -0.185,0.559 -0.544,0.992 -0.971,1.418 -0.43,0.432 -0.913,0.744 -1.504,0.94 l 0.359,0.834"
       style="fill:#ec008c;fill-opacity:1;fill-rule:nonzero;stroke:none"
       id="path6472"
       clip-path="url(#clipPath99968)" />
  </g>
</svg>
