<?xml version="1.0" encoding="UTF-8" standalone="no"?>
<svg
   version="1.0"
   width="32"
   height="32"
   id="svg2"
   sodipodi:docname="marina.svg"
   inkscape:version="1.2.2 (b0a8486541, 2022-12-01)"
   xmlns:inkscape="http://www.inkscape.org/namespaces/inkscape"
   xmlns:sodipodi="http://sodipodi.sourceforge.net/DTD/sodipodi-0.dtd"
   xmlns="http://www.w3.org/2000/svg"
   xmlns:svg="http://www.w3.org/2000/svg">
  <sodipodi:namedview
     id="namedview22131"
     pagecolor="#ffffff"
     bordercolor="#666666"
     borderopacity="1.0"
     inkscape:showpageshadow="2"
     inkscape:pageopacity="0.0"
     inkscape:pagecheckerboard="0"
     inkscape:deskcolor="#d1d1d1"
     showgrid="false"
     showguides="true"
     inkscape:zoom="33.71875"
     inkscape:cx="15.733086"
     inkscape:cy="15.614458"
     inkscape:window-width="1792"
     inkscape:window-height="1297"
     inkscape:window-x="1685"
     inkscape:window-y="692"
     inkscape:window-maximized="0"
     inkscape:current-layer="svg2">
    <sodipodi:guide
       position="10.083411,16"
       orientation="0,1"
       id="guide22613"
       inkscape:locked="false"
       inkscape:label=""
       inkscape:color="rgb(0,134,229)" />
    <sodipodi:guide
       position="16,24.496756"
       orientation="-1,0"
       id="guide22615"
       inkscape:locked="false"
       inkscape:label=""
       inkscape:color="rgb(0,134,229)" />
  </sodipodi:namedview>

  <g
     id="g116721"
     transform="matrix(1.3333333,0,0,-1.3333333,-90.388397,194.32306)">
    <g
       id="g936"
       transform="translate(75.2543,133.7433)"
       clip-path="url(#clipPath116700)">
      <path
         d="M 0,0 C 0,2.505 2.031,4.536 4.537,4.536 7.043,4.536 9.074,2.505 9.074,0 9.074,-2.507 7.043,-4.538 4.537,-4.538 2.031,-4.538 0,-2.507 0,0 Z"
         style="fill:none;stroke:#ec008c;stroke-width:0.567;stroke-linecap:butt;stroke-linejoin:miter;stroke-miterlimit:3.864;stroke-dasharray:none;stroke-opacity:1"
         id="path938" />
    </g>
    <g
       id="g940"
       transform="translate(75.8573,130.9754)"
       clip-path="url(#clipPath116694)">
      <path
         d="M 0,0 H 7.781 C 7.781,0 6.563,-1.981 3.719,-1.981 1.437,-1.981 0,0 0,0"
         style="fill:#ec008c;fill-opacity:1;fill-rule:nonzero;stroke:none"
         id="path942" />
    </g>
    <path
       d="m 79.499,130.628 h 0.511 v 7.75 h -0.511 z"
       style="fill:#ec008c;fill-opacity:1;fill-rule:nonzero;stroke:none"
       id="path944"
       clip-path="url(#clipPath116688)" />
    <g
       id="g946"
       transform="translate(79.5643,136.8734)"
       clip-path="url(#clipPath116682)">
      <path
         d="m 0,0 c -0.875,-0.219 -3.582,-1.941 -2.442,-5.614 0.219,0.298 0.829,1.016 1.641,1.125 -0.812,1.492 -0.461,3.324 0.731,4.239 C -0.002,-0.197 -0.075,-0.046 0,0"
         style="fill:#ec008c;fill-opacity:1;fill-rule:nonzero;stroke:none"
         id="path948" />
    </g>
    <g
       id="g950"
       transform="translate(80.9993,137.3974)"
       clip-path="url(#clipPath116676)">
      <path
         d="m 0,0 c 0.008,0.033 -0.039,0.086 -0.08,0.027 -0.548,-0.562 -1.193,-1.433 -1.203,-2.008 -0.062,-3.282 0.296,-4.171 0.296,-4.171 0,0 1.875,0.906 3.222,1.168 C 0.985,-3.672 0.063,-1.655 0,0"
         style="fill:#ec008c;fill-opacity:1;fill-rule:nonzero;stroke:none"
         id="path952" />
    </g>
  </g>
</svg>
