<?xml version="1.0" encoding="UTF-8" standalone="no"?>
<svg
   version="1.0"
   width="32"
   height="32"
   id="svg2"
   sodipodi:docname="military.svg"
   inkscape:version="1.2.2 (b0a8486541, 2022-12-01)"
   xmlns:inkscape="http://www.inkscape.org/namespaces/inkscape"
   xmlns:sodipodi="http://sodipodi.sourceforge.net/DTD/sodipodi-0.dtd"
   xmlns="http://www.w3.org/2000/svg"
   xmlns:svg="http://www.w3.org/2000/svg">
  <defs
     id="defs15" />
  <sodipodi:namedview
     id="namedview22131"
     pagecolor="#ffffff"
     bordercolor="#666666"
     borderopacity="1.0"
     inkscape:showpageshadow="2"
     inkscape:pageopacity="0.0"
     inkscape:pagecheckerboard="0"
     inkscape:deskcolor="#d1d1d1"
     showgrid="false"
     showguides="true"
     inkscape:zoom="33.71875"
     inkscape:cx="12.693234"
     inkscape:cy="13.271548"
     inkscape:window-width="1792"
     inkscape:window-height="1297"
     inkscape:window-x="1689"
     inkscape:window-y="724"
     inkscape:window-maximized="0"
     inkscape:current-layer="svg2">
    <sodipodi:guide
       position="10.083411,16"
       orientation="0,1"
       id="guide22613"
       inkscape:locked="false"
       inkscape:label=""
       inkscape:color="rgb(0,134,229)" />
    <sodipodi:guide
       position="16,24.496756"
       orientation="-1,0"
       id="guide22615"
       inkscape:locked="false"
       inkscape:label=""
       inkscape:color="rgb(0,134,229)" />
  </sodipodi:namedview>
  <g
     id="g163087"
     transform="matrix(1.3333333,0,0,-1.3333333,-656.80944,279.26107)">
    <g
       id="g2474"
       transform="translate(505.3697,196.2778)"
       clip-path="url(#clipPath43011)">
      <path
         d="M 0,0 C 0.428,-0.637 0.816,-0.743 0.822,-1.974 0.824,-2.275 0.758,-2.658 0.744,-2.849 0.713,-2.95 0.775,-2.944 0.791,-2.961 0.861,-3.022 1.247,-2.22 1.224,-1.637 1.218,-1.483 1.126,-0.954 1.005,-0.662 0.888,-0.379 0.645,-0.057 0.38,0.136 0.134,0.316 0.001,0.384 -0.051,0.221 -0.078,0.137 -0.054,0.081 0,0"
         style="fill:#ec008c;fill-opacity:1;fill-rule:nonzero;stroke:none"
         id="path2476" />
    </g>
    <g
       id="g2478"
       transform="translate(504.6757,195.4288)"
       clip-path="url(#clipPath43005)">
      <path
         d="M 0,0 C 0,-0.382 0.263,-0.736 0.594,-1.108 0.918,-1.475 0.943,-1.844 0.991,-2.164 1.059,-2.607 1.025,-2.717 1.012,-3.038 1.004,-3.232 0.938,-3.38 0.832,-3.616 0.787,-3.716 0.719,-3.581 0.703,-3.281 0.688,-3 0.562,-2.156 0.148,-1.598 -0.291,-1.009 -0.469,-0.75 -0.5,-0.358 -0.538,0.117 -0.247,0.8 -0.146,0.838 -0.08,0.864 0.166,0.927 0.166,0.792 0.168,0.661 0,0.202 0,0"
         style="fill:#ec008c;fill-opacity:1;fill-rule:nonzero;stroke:none"
         id="path2480" />
    </g>
    <g
       id="g2482"
       transform="translate(505.5967,197.4678)"
       clip-path="url(#clipPath42999)">
      <path
         d="m 0,0 c 0,-0.548 -0.444,-0.993 -0.992,-0.993 -0.548,0 -0.992,0.445 -0.992,0.993 0,0.547 0.444,0.992 0.992,0.992 C -0.444,0.992 0,0.547 0,0"
         style="fill:#ec008c;fill-opacity:1;fill-rule:nonzero;stroke:none"
         id="path2484" />
    </g>
    <g
       id="g2486"
       transform="translate(503.7697,196.0938)"
       clip-path="url(#clipPath42993)">
      <path
         d="m 0,0 c -0.203,-0.211 -0.391,-0.665 -0.391,-1.148 0,-0.595 0.416,-1.031 0.703,-1.438 C 0.661,-3.081 0.953,-3.148 1.109,-4.321 1.187,-4.902 0.984,-5.49 0.953,-5.657 0.936,-5.751 0.84,-6.003 0.786,-6.007 0.746,-6.01 0.742,-5.75 0.75,-5.571 c 0.024,0.555 -0.324,1.458 -0.609,1.86 -0.262,0.368 -0.947,1.453 -0.985,2.328 -0.043,0.993 0.356,1.423 0.528,1.594 0.067,0.068 0.262,0.268 0.328,0.274 C 0.048,0.533 0.291,0.311 0.25,0.257 0.16,0.179 0.082,0.085 0,0"
         style="fill:#ec008c;fill-opacity:1;fill-rule:nonzero;stroke:none"
         id="path2488" />
    </g>
  </g>
</svg>
