<?xml version="1.0" encoding="UTF-8" standalone="no"?>
<svg
   version="1.0"
   width="12"
   height="12"
   id="svg2"
   sodipodi:docname="no-diving.svg"
   inkscape:version="1.4.3 (0d15f75042, 2025-12-25)"
   xmlns:inkscape="http://www.inkscape.org/namespaces/inkscape"
   xmlns:sodipodi="http://sodipodi.sourceforge.net/DTD/sodipodi-0.dtd"
   xmlns="http://www.w3.org/2000/svg"
   xmlns:svg="http://www.w3.org/2000/svg">
  <defs
     id="defs1" />
  <sodipodi:namedview
     id="namedview1"
     pagecolor="#ffffff"
     bordercolor="#000000"
     borderopacity="0.25"
     inkscape:showpageshadow="2"
     inkscape:pageopacity="0.0"
     inkscape:pagecheckerboard="0"
     inkscape:deskcolor="#d1d1d1"
     inkscape:zoom="59.125"
     inkscape:cx="5.8520085"
     inkscape:cy="5.2769556"
     inkscape:window-width="3840"
     inkscape:window-height="2094"
     inkscape:window-x="0"
     inkscape:window-y="0"
     inkscape:window-maximized="1"
     inkscape:current-layer="svg2" />
  <g
     id="g227403"
     transform="translate(-20.864196,-16.8528)">
    <g
       id="g2974"
       transform="matrix(1.3333333,0,0,-1.3333333,29.632863,23.357466)"
       clip-path="url(#clipPath42015)">
      <path
         d="M 0,0 0.41,-0.221 0.615,-0.463 0.81,-0.604 0.423,-1.135 0.162,-1.252 0.059,-1.485 0.135,-1.881 0.301,-2.178 0.779,-2.709 1.273,-2.926 1.129,-3.11 0.611,-2.809 c -1.106,0.595 -0.967,1.357 -1.511,1.701 L -1.446,-0.897 -0.684,0.217 0,0"
         style="fill:#ec008c;fill-opacity:1;fill-rule:evenodd;stroke:none"
         id="path2976" />
    </g>
    <g
       id="g2978"
       transform="matrix(1.3333333,0,0,-1.3333333,32.692863,22.717466)"
       clip-path="url(#clipPath42009)">
      <path
         d="m 0,0 -0.59,-1.164 0.117,-0.072 0.107,-0.131 0.141,-0.193 -0.005,-0.27 -0.036,-0.096 0.28,-0.169 -0.707,-0.676 -0.159,0.293 -0.115,-0.022 0.022,-0.15 -0.159,-0.076 -0.152,0.041 v 0.197 l -0.26,0.072 -0.158,0.244 -0.037,0.242 0.086,0.294 0.369,0.535 0.455,0.049 0.063,-0.008 0.545,1.15 z"
         style="fill:#ec008c;fill-opacity:1;fill-rule:evenodd;stroke:none"
         id="path2980" />
    </g>
    <g
       id="g2982"
       transform="matrix(1.3333333,0,0,-1.3333333,27.250196,20.5868)"
       clip-path="url(#clipPath42003)">
      <path
         d="m 0,0 0.689,-0.342 0.288,-0.142 0.224,-0.114 1.445,-0.81 0.145,-0.328 -0.225,-0.135 -0.343,-0.028 -1.129,0.608 -0.418,0.275 -0.199,0.129 -0.791,0.518 -0.37,0.32 0.211,0.242 z"
         style="fill:#ec008c;fill-opacity:1;fill-rule:evenodd;stroke:none"
         id="path2984" />
    </g>
    <g
       id="g2986"
       transform="matrix(1.3333333,0,0,-1.3333333,23.904863,20.3348)"
       clip-path="url(#clipPath41997)">
      <path
         d="M 0,0 0.59,-0.111 1.723,-0.8 2.43,-1.132 2.789,-1.48 2.961,-1.629 3.117,-1.74 2.631,-2.964 l -0.233,0.062 -0.379,0.1 -0.531,0.138 -1.584,0.141 -0.455,0.049 -1.615,-0.28 v 1.143 l 0.986,-0.356 0.904,-0.279 0.18,-0.049 1.131,0.266 0.76,-0.021 0.518,-0.073 -0.405,0.401 -0.731,0.49 -0.648,0.728 -0.484,0.176 -1.752,-0.359 v 1.146 z"
         style="fill:#ec008c;fill-opacity:1;fill-rule:evenodd;stroke:none"
         id="path2988" />
    </g>
    <g
       id="g2990"
       transform="matrix(1.3333333,0,0,-1.3333333,31.27153,17.696133)"
       clip-path="url(#clipPath41991)">
      <path
         d="M 0,0 -6.25,-7.735"
         style="fill:none;stroke:#ec008c;stroke-width:0.283;stroke-linecap:butt;stroke-linejoin:miter;stroke-miterlimit:4;stroke-dasharray:none;stroke-opacity:1"
         id="path2992" />
    </g>
    <g
       id="g2994"
       transform="matrix(1.3333333,0,0,-1.3333333,22.938197,17.696133)"
       clip-path="url(#clipPath41985)">
      <path
         d="M 0,0 6.25,-7.735"
         style="fill:none;stroke:#ec008c;stroke-width:0.283;stroke-linecap:butt;stroke-linejoin:miter;stroke-miterlimit:4;stroke-dasharray:none;stroke-opacity:1"
         id="path2996" />
    </g>
  </g>
</svg>
