<?xml version="1.0" encoding="UTF-8" standalone="no"?>
<svg
   version="1.0"
   width="32"
   height="32"
   id="svg2"
   sodipodi:docname="pillar.svg"
   inkscape:version="1.2.2 (b0a8486541, 2022-12-01)"
   xmlns:inkscape="http://www.inkscape.org/namespaces/inkscape"
   xmlns:sodipodi="http://sodipodi.sourceforge.net/DTD/sodipodi-0.dtd"
   xmlns="http://www.w3.org/2000/svg"
   xmlns:svg="http://www.w3.org/2000/svg">
  <defs
     id="defs20" />
  <sodipodi:namedview
     id="namedview18"
     pagecolor="#ffffff"
     bordercolor="#eeeeee"
     borderopacity="1"
     inkscape:showpageshadow="0"
     inkscape:pageopacity="0"
     inkscape:pagecheckerboard="0"
     inkscape:deskcolor="#505050"
     showgrid="false"
     inkscape:zoom="64"
     inkscape:cx="12.492188"
     inkscape:cy="14.65625"
     inkscape:window-width="2391"
     inkscape:window-height="1826"
     inkscape:window-x="1436"
     inkscape:window-y="88"
     inkscape:window-maximized="0"
     inkscape:current-layer="svg2"
     showguides="true">
    <sodipodi:guide
       position="16,21.058596"
       orientation="-1,0"
       id="guide163"
       inkscape:locked="false"
       inkscape:label=""
       inkscape:color="rgb(0,134,229)" />
    <sodipodi:guide
       position="27.817128,16"
       orientation="0,1"
       id="guide215"
       inkscape:locked="false"
       inkscape:label=""
       inkscape:color="rgb(0,134,229)" />
  </sodipodi:namedview>
  <style
     type="text/css"
     id="base">
      .outline {
        fill: none;
        stroke: #111111;
        stroke-width: 0.5;
      }
      .fill {
        stroke: none;
        stroke-width: 0.3;
        fill: none;
      }
      .base {
        fill: white;
      }
      FILL{}
  </style>
  <g
     id="g1701"
     transform="rotate(15,16,16)">
    <path
       class="fill v02"
       id="path300"
       d="M 16 4.4882812 L 15.193359 4.4882812 L 14.621094 12.576172 L 12.871094 16.837891 L 16 16 L 16 4.4882812 z " />
    <path
       class="fill v12"
       id="path304"
       d="M 16 4.4882812 L 16 16 L 18.507812 15.328125 L 17.378906 12.576172 L 16.794922 4.4882812 L 16 4.4882812 z " />
    <path
       class="fill h34 h12"
       id="path1687"
       d="m 14.371094,13.158203 -1.503906,3.681641 5.640624,-1.511719 -0.890624,-2.169922 z" />
    <path
       class="fill h24 h12"
       id="path1930"
       d="m 14.775391,10.279297 -0.166016,2.296875 -0.238281,0.582031 h 3.246094 l -0.238282,-0.582031 -0.166015,-2.296875 z" />
    <path
       class="fill h14 h02"
       id="path1927"
       d="m 14.982422,7.4023438 -0.207031,2.8769532 h 2.4375 L 17.005859,7.4023438 Z" />
    <path
       class="fill h04 h02"
       id="path1924"
       d="m 15.193359,4.4882812 -0.210937,2.9140626 h 2.023437 L 16.794922,4.4882812 Z" />
    <path
       class="fill h23"
       id="path1684"
       d="m 14.638672,12.162109 -0.0293,0.414063 -1.742187,4.263672 5.640624,-1.511719 -1.128906,-2.751953 -0.0293,-0.414063 z" />
    <path
       class="fill h13"
       id="path1936"
       d="m 14.916016,8.3242188 -0.277344,3.8378902 h 2.710937 L 17.072266,8.3242188 Z" />
    <path
       class="fill h03"
       id="path1933"
       d="m 15.193359,4.4882812 -0.277343,3.8359376 h 2.15625 L 16.794922,4.4882812 Z" />
    <path
       class="outline"
       id="path1690"
       d="m 15.205078,4.4882812 -0.583984,8.0878908 -1.75,4.261719 5.636718,-1.509766 -1.128906,-2.751953 -0.583984,-8.0878908 z" />
  </g>
  <path
     class="outline"
     d="m 11.457132,16 h 9.085736"
     id="path5179"
     sodipodi:nodetypes="cc" />
  <circle
     class="outline base"
     id="path5349"
     cx="16"
     cy="16"
     r="1" /></svg>
