<?xml version="1.0" encoding="UTF-8" standalone="no"?>
<svg
   version="1.0"
   width="11"
   height="14"
   id="svg2"
   sodipodi:docname="pillar.svg"
   inkscape:version="1.4.3 (0d15f75042, 2025-12-25)"
   xmlns:inkscape="http://www.inkscape.org/namespaces/inkscape"
   xmlns:sodipodi="http://sodipodi.sourceforge.net/DTD/sodipodi-0.dtd"
   xmlns="http://www.w3.org/2000/svg"
   xmlns:svg="http://www.w3.org/2000/svg">
  <defs
     id="defs1" />
  <sodipodi:namedview
     id="namedview1"
     pagecolor="#ffffff"
     bordercolor="#000000"
     borderopacity="0.25"
     inkscape:showpageshadow="2"
     inkscape:pageopacity="0.0"
     inkscape:pagecheckerboard="0"
     inkscape:deskcolor="#d1d1d1"
     showguides="true"
     inkscape:zoom="59.125"
     inkscape:cx="3.1035941"
     inkscape:cy="10.012685"
     inkscape:window-width="3840"
     inkscape:window-height="2094"
     inkscape:window-x="0"
     inkscape:window-y="0"
     inkscape:window-maximized="1"
     inkscape:current-layer="svg2">
    <sodipodi:guide
       position="16.658685,2"
       orientation="0,1"
       id="guide1"
       inkscape:locked="false"
       inkscape:label=""
       inkscape:color="rgb(0,134,229)" />
    <sodipodi:guide
       position="5.5,7.462995"
       orientation="-1,0"
       id="guide2"
       inkscape:locked="false"
       inkscape:label=""
       inkscape:color="rgb(0,134,229)" />
  </sodipodi:namedview>
  <style
     type="text/css"
     id="base">
      .outline {
        fill: none;
        stroke: black;
        stroke-width: 0.3;
      }
      .inline {
        fill: none;
        stroke: none;
        stroke-width: 0.8;
      }
      .fill {
        fill: none;
        stroke: none;
        stroke-width: 0.3;
      }
      .baseline {
        fill: none;
        stroke: black;
        stroke-width: 0.5;
      }
      .basepoint {
        fill: white;
        stroke: black;
        stroke-width: 0.5;
      }
      COLORING{}
  </style>
  <g
     id="BOYSHP_4"
     transform="rotate(15,25.941515,-25.877709)">
    <path
       class="fill uniform vertical02 vertical03 horizontal02 horizontal03 horizontal04 cross02"
       id="path300"
       d="m 16.794922,4.4882812 h -1.601563 l -0.572265,8.0878908 -1.75,4.261719 5.636684,-1.509848 -1.128872,-2.751871 z" />
    <path
       class="fill vertical12"
       id="path304"
       d="M 16,4.4882812 V 16.000001 l 2.507812,-0.671875 -1.128906,-2.751953 -0.583984,-8.0878918 z" />
    <path
       class="fill horizontal13"
       id="path1936"
       d="m 14.921413,8.3317231 -0.312038,4.2444499 -1.742187,4.263672 5.640624,-1.511719 -1.128906,-2.751954 -0.306084,-4.2391184 z" />
    <path
       class="fill horizontal23"
       id="path1684"
       d="m 14.638675,12.16211 -0.0293,0.414063 -1.742187,4.263672 5.640624,-1.511719 -1.128906,-2.751953 -0.0293,-0.414063 z" />
    <path
       class="fill horizontal14"
       id="path1927"
       d="m 14.982422,7.4023445 -0.373047,5.1738285 -1.742187,4.263672 5.640624,-1.51172 -1.128906,-2.751953 -0.373047,-5.1738275 z" />
    <path
       class="fill horizontal24 horizontal12"
       id="path1930"
       d="m 14.775391,10.279298 -0.166016,2.296875 -1.738281,4.261718 5.636684,-1.509848 -1.128872,-2.75187 -0.166015,-2.296875 z" />
    <path
       class="fill horizontal34"
       id="path1687"
       d="m 14.371094,13.158204 -1.503906,3.681641 5.640624,-1.511719 -0.890624,-2.169922 z" />
    <path
       class="inline cross12 vertical13"
       d="M 16,4.4882812 V 16"
       id="path401" />
    <path
       class="inline cross12"
       d="m 14.638675,12.16211 c 0.844576,0.160371 1.848102,0.177586 2.710931,0"
       id="path403" />
    <path
       class="outline"
       id="path1690"
       d="m 15.205078,4.4882812 -0.583984,8.0878908 -1.75,4.261719 5.636718,-1.509766 -1.128906,-2.751953 -0.583984,-8.0878908 z" />
  </g>
  <path
     class="baseline"
     d="M 0.95713201,11.999999 H 10.042868"
     id="path5179" />
  <circle
     class="basepoint"
     id="path5349"
     cx="5.5"
     cy="12"
     r="1" />
</svg>
