<?xml version="1.0" encoding="UTF-8" standalone="no"?>
<svg
   version="1.0"
   width="10"
   height="10"
   id="svg2"
   sodipodi:docname="pylon.svg"
   inkscape:version="1.4.3 (0d15f75042, 2025-12-25)"
   xmlns:inkscape="http://www.inkscape.org/namespaces/inkscape"
   xmlns:sodipodi="http://sodipodi.sourceforge.net/DTD/sodipodi-0.dtd"
   xmlns="http://www.w3.org/2000/svg"
   xmlns:svg="http://www.w3.org/2000/svg">
  <defs
     id="defs1" />
  <sodipodi:namedview
     id="namedview1"
     pagecolor="#ffffff"
     bordercolor="#000000"
     borderopacity="0.25"
     inkscape:showpageshadow="2"
     inkscape:pageopacity="0.0"
     inkscape:pagecheckerboard="0"
     inkscape:deskcolor="#d1d1d1"
     inkscape:zoom="59.125"
     inkscape:cx="2.2832981"
     inkscape:cy="2.2579281"
     inkscape:window-width="2280"
     inkscape:window-height="1403"
     inkscape:window-x="26"
     inkscape:window-y="23"
     inkscape:window-maximized="0"
     inkscape:current-layer="g1684" />
  <g
     id="g1684"
     transform="matrix(2.6508023,0,0,-2.6508023,-442.97663,976.49725)">
    <g
       id="g1686"
       clip-path="url(#clipPath1690)"
       transform="translate(0.18522038,-0.18572127)">
      <g
         id="g1692"
         transform="translate(167.3654,366.677)">
        <path
           d="M 0,0 C 0,0.799 0.648,1.446 1.446,1.446 2.245,1.446 2.892,0.799 2.892,0 2.892,-0.798 2.245,-1.445 1.446,-1.445 0.648,-1.445 0,-0.798 0,0 Z"
           style="fill:none;stroke:#231f20;stroke-width:0.51;stroke-linecap:butt;stroke-linejoin:miter;stroke-miterlimit:3.864;stroke-dasharray:none;stroke-opacity:1"
           id="path1694" />
      </g>
      <g
         id="g1696"
         transform="translate(168.3156,366.677)">
        <path
           d="M 0,0 C 0,0.274 0.222,0.496 0.496,0.496 0.77,0.496 0.992,0.274 0.992,0 0.992,-0.274 0.77,-0.495 0.496,-0.495 0.222,-0.495 0,-0.274 0,0"
           style="fill:#231f20;fill-opacity:1;fill-rule:evenodd;stroke:none"
           id="path1698" />
      </g>
    </g>
  </g>
</svg>
