<?xml version="1.0" encoding="UTF-8" standalone="no"?>
<svg
   version="1.0"
   width="32"
   height="32"
   id="svg2"
   sodipodi:docname="radar_reflector.svg"
   inkscape:version="1.2.2 (b0a8486541, 2022-12-01)"
   xmlns:inkscape="http://www.inkscape.org/namespaces/inkscape"
   xmlns:sodipodi="http://sodipodi.sourceforge.net/DTD/sodipodi-0.dtd"
   xmlns="http://www.w3.org/2000/svg"
   xmlns:svg="http://www.w3.org/2000/svg">
  <defs
     id="defs16" />
  <sodipodi:namedview
     id="namedview298"
     pagecolor="#ffffff"
     bordercolor="#eeeeee"
     borderopacity="1"
     inkscape:showpageshadow="0"
     inkscape:pageopacity="0"
     inkscape:pagecheckerboard="0"
     inkscape:deskcolor="#505050"
     showgrid="false"
     inkscape:zoom="33.4375"
     inkscape:cx="10.676636"
     inkscape:cy="16"
     inkscape:window-width="2046"
     inkscape:window-height="1314"
     inkscape:window-x="1512"
     inkscape:window-y="537"
     inkscape:window-maximized="0"
     showguides="true"
     inkscape:current-layer="svg2">
    <sodipodi:guide
       position="8.2841121,16"
       orientation="0,1"
       id="guide141"
       inkscape:locked="false"
       inkscape:label=""
       inkscape:color="rgb(0,134,229)" />
    <sodipodi:guide
       position="16,21.472897"
       orientation="-1,0"
       id="guide193"
       inkscape:locked="false"
       inkscape:label=""
       inkscape:color="rgb(0,134,229)" />
  </sodipodi:namedview>
  <g
     id="g9515"
     transform="matrix(1.3333333,0,0,-1.3333333,-364.71079,757.13263)"
     style="stroke-width:0;stroke-dasharray:none;stroke:none;fill:#000000">
    <g
       id="g7774"
       transform="translate(282.7146,559.9186)"
       style="stroke-width:0;stroke-dasharray:none;stroke:none;fill:#000000">
      <path
         d="M 0,0 0.54,0.313 1.391,-1.16 0.851,-1.473 Z"
         id="path7776"
         style="stroke-width:0;stroke-dasharray:none;stroke:none;fill:#000000" />
    </g>
    <g
       id="g7778"
       transform="translate(287.7916,560.2706)"
       style="stroke-width:0;stroke-dasharray:none;stroke:none;fill:#000000">
      <path
         d="m 0,0 0.54,-0.313 -0.85,-1.472 -0.54,0.311 z"
         id="path7780"
         style="stroke-width:0;stroke-dasharray:none;stroke:none;fill:#000000" />
    </g>
    <g
       id="g7782"
       transform="translate(281.1226,558.0266)"
       style="stroke-width:0;stroke-dasharray:none;stroke:none;fill:#000000">
      <path
         d="M 0,0 0.313,0.54 1.785,-0.31 1.474,-0.85 Z"
         id="path7784"
         style="stroke-width:0;stroke-dasharray:none;stroke:none;fill:#000000" />
    </g>
    <g
       id="g7786"
       transform="translate(289.6306,558.5696)"
       style="stroke-width:0;stroke-dasharray:none;stroke:none;fill:#000000">
      <path
         d="M 0,0 0.313,-0.541 -1.16,-1.391 -1.473,-0.85 Z"
         id="path7788"
         style="stroke-width:0;stroke-dasharray:none;stroke:none;fill:#000000" />
    </g>
    <g
       id="g7790"
       transform="translate(282.1206,557.4526)"
       style="stroke-width:0;stroke-dasharray:none;stroke:none;fill:#000000">
      <path
         d="M 0,0 C 0.306,0.713 0.834,1.337 1.558,1.755 3.334,2.781 5.606,2.172 6.63,0.396 6.705,0.267 6.756,0.18 6.826,0.004 L 6.295,-0.297 C 6.241,-0.164 6.164,-0.045 6.09,0.084 5.237,1.563 3.348,2.069 1.869,1.215 1.246,0.856 0.808,0.321 0.545,-0.308 L 0,0"
         id="path7792"
         style="stroke-width:0;stroke-dasharray:none;stroke:none;fill:#000000" />
    </g>
    <path
       d="m 285.224,559.111 h 0.624 v 1.702 h -0.624 z"
       id="path7794"
       style="stroke-width:0;stroke-dasharray:none;stroke:none;fill:#000000" />
  </g>
</svg>
