<?xml version="1.0" encoding="UTF-8" standalone="no"?>
<svg
   version="1.0"
   width="32"
   height="32"
   id="svg2"
   xmlns="http://www.w3.org/2000/svg"
   xmlns:svg="http://www.w3.org/2000/svg">

  <g
     id="g9515"
     transform="matrix(1.3333333,0,0,-1.3333333,-364.71079,757.13263)">
    <g
       id="g7774"
       transform="translate(282.7146,559.9186)"
       clip-path="url(#clipPath75193)">
      <path
         d="M 0,0 0.54,0.313 1.391,-1.16 0.851,-1.473 Z"
         style="fill:#231f20;fill-opacity:1;fill-rule:nonzero;stroke:none"
         id="path7776" />
    </g>
    <g
       id="g7778"
       transform="translate(287.7916,560.2706)"
       clip-path="url(#clipPath75187)">
      <path
         d="m 0,0 0.54,-0.313 -0.85,-1.472 -0.54,0.311 z"
         style="fill:#231f20;fill-opacity:1;fill-rule:nonzero;stroke:none"
         id="path7780" />
    </g>
    <g
       id="g7782"
       transform="translate(281.1226,558.0266)"
       clip-path="url(#clipPath75181)">
      <path
         d="M 0,0 0.313,0.54 1.785,-0.31 1.474,-0.85 Z"
         style="fill:#231f20;fill-opacity:1;fill-rule:nonzero;stroke:none"
         id="path7784" />
    </g>
    <g
       id="g7786"
       transform="translate(289.6306,558.5696)"
       clip-path="url(#clipPath75175)">
      <path
         d="M 0,0 0.313,-0.541 -1.16,-1.391 -1.473,-0.85 Z"
         style="fill:#231f20;fill-opacity:1;fill-rule:nonzero;stroke:none"
         id="path7788" />
    </g>
    <g
       id="g7790"
       transform="translate(282.1206,557.4526)"
       clip-path="url(#clipPath75169)">
      <path
         d="M 0,0 C 0.306,0.713 0.834,1.337 1.558,1.755 3.334,2.781 5.606,2.172 6.63,0.396 6.705,0.267 6.756,0.18 6.826,0.004 L 6.295,-0.297 C 6.241,-0.164 6.164,-0.045 6.09,0.084 5.237,1.563 3.348,2.069 1.869,1.215 1.246,0.856 0.808,0.321 0.545,-0.308 L 0,0"
         style="fill:#231f20;fill-opacity:1;fill-rule:nonzero;stroke:none"
         id="path7792" />
    </g>
    <path
       d="m 285.224,559.111 h 0.624 v 1.702 h -0.624 z"
       style="fill:#231f20;fill-opacity:1;fill-rule:nonzero;stroke:none"
       id="path7794"
       clip-path="url(#clipPath75163)" />
  </g>
</svg>
