<?xml version="1.0" encoding="UTF-8" standalone="no"?>
<svg
   version="1.0"
   width="32"
   height="32"
   id="svg2"
   sodipodi:docname="sandwaves.svg"
   inkscape:version="1.2.2 (b0a8486541, 2022-12-01)"
   xmlns:inkscape="http://www.inkscape.org/namespaces/inkscape"
   xmlns:sodipodi="http://sodipodi.sourceforge.net/DTD/sodipodi-0.dtd"
   xmlns="http://www.w3.org/2000/svg"
   xmlns:svg="http://www.w3.org/2000/svg">

  <g
     id="g6479"
     transform="matrix(0.4069634,0,0,-0.4069634,-47.239326,208.58733)"
     style="stroke-width:3.2763">
    <g
       id="g6481"
       clip-path="url(#clipPath6485)"
       style="stroke-width:3.2763">
      <g
         id="g6487"
         transform="translate(122.5906,470.2979)"
         style="stroke-width:3.2763">
        <path
           d="m 0,0 c 6.164,4.829 12.021,8.37 14.447,7.3 1.116,-0.492 1.802,-1.721 0.928,-4.675 -0.439,-1.484 -0.674,-2.538 -0.519,-3.188 0.638,-2.67 5.492,0.689 6.519,1.387 3.541,2.412 8.273,5.983 10.845,5.845 1.189,-0.063 2.489,-0.684 1.971,-2.994 -0.592,-2.636 -0.639,-4.579 1.81,-4.579 2.544,-0.088 5.932,2.675 8.249,4.279 2.331,1.613 4.714,3.011 6.564,2.885 1.206,-0.081 2.366,-0.708 1.819,-3.275 -0.508,-2.385 -1.001,-4.088 0.45,-4.498 2.979,-0.741 7.587,2.251 12.542,5.788"
           style="fill:none;stroke:#231f20;stroke-width:1.11394;stroke-linecap:butt;stroke-linejoin:miter;stroke-miterlimit:3.864;stroke-dasharray:none;stroke-opacity:1"
           id="path6489" />
      </g>
    </g>
  </g>
</svg>
