<?xml version="1.0" encoding="UTF-8" standalone="no"?>
<svg
   version="1.0"
   width="14"
   height="10"
   id="svg2"
   sodipodi:docname="seal.svg"
   inkscape:version="1.4.3 (0d15f75042, 2025-12-25)"
   xmlns:inkscape="http://www.inkscape.org/namespaces/inkscape"
   xmlns:sodipodi="http://sodipodi.sourceforge.net/DTD/sodipodi-0.dtd"
   xmlns="http://www.w3.org/2000/svg"
   xmlns:svg="http://www.w3.org/2000/svg">
  <defs
     id="defs1" />
  <sodipodi:namedview
     id="namedview1"
     pagecolor="#ffffff"
     bordercolor="#000000"
     borderopacity="0.25"
     inkscape:showpageshadow="2"
     inkscape:pageopacity="0.0"
     inkscape:pagecheckerboard="0"
     inkscape:deskcolor="#d1d1d1"
     inkscape:zoom="59.125"
     inkscape:cx="8.5412262"
     inkscape:cy="4.1775899"
     inkscape:window-width="3840"
     inkscape:window-height="2094"
     inkscape:window-x="0"
     inkscape:window-y="0"
     inkscape:window-maximized="1"
     inkscape:current-layer="svg2" />
  <path
     d="m 11.957765,6.6282015 c 0.169334,-0.1946666 0.304,-0.384 0.404,-0.5493333 0.624,-1.0306666 0.421334,-1.2813333 0.517334,-1.8799999 0.05733,-0.3373334 0.016,-0.6333334 0.157333,-1.0026667 0.192,-0.512 0.874667,-0.6626666 0.850667,-1.1053333 0.084,-1.0013333 -0.377334,-1.044 -1.361334,-1.0866667 -0.750666,-0.032 -1.3,-0.68133327 -2.032,0.6813334 -0.233333,0.4373333 -0.448,0.6893333 -0.8666664,1.3973333 l -0.188,0.2973333 c -0.3253333,-0.061333 -0.6773333,-0.093333 -0.9399999,-0.076 -1.908,0.128 -2.476,0.8946667 -3.44,1.2986666 -0.5986666,0.252 -1.6226666,0.2813334 -2.4706666,0.6813334 -0.4946666,0.232 -0.6093333,0.9306666 -0.8413333,1.8319999 -0.1413333,0.552 -3.3986666,1.9773333 -0.336,1.64 0.468,-0.050667 1.0053333,-1.1466667 1.328,-1.0413333 0.8013333,0.2666666 1.492,0.3253333 2.3173333,0.017333 0.284,0.1266667 1.1666666,0.4946667 1.9119999,0.556 1.5826667,0.1293333 2.752,-0.048 3.653333,-0.568 0.190667,0.3466667 0.330667,0.8266666 0.248,1.3306666 -0.076,0.4693334 1.052,-0.4973333 1.150667,-0.6666666 0.354667,-0.604 0.156,-1.2666667 0.06267,-1.4813333 -0.04933,-0.1146667 -0.125334,-0.2746667 -0.125334,-0.2746667"
     style="fill:#2ea948;fill-opacity:1;fill-rule:nonzero;stroke:none;stroke-width:1.33333"
     id="path1976"
     clip-path="url(#clipPath7824)" />
</svg>
