<?xml version="1.0" encoding="UTF-8" standalone="no"?>
<svg
   version="1.0"
   width="32"
   height="32"
   id="svg2"
   sodipodi:docname="shellfish.svg"
   inkscape:version="1.2.2 (b0a8486541, 2022-12-01)"
   xmlns:inkscape="http://www.inkscape.org/namespaces/inkscape"
   xmlns:sodipodi="http://sodipodi.sourceforge.net/DTD/sodipodi-0.dtd"
   xmlns="http://www.w3.org/2000/svg"
   xmlns:svg="http://www.w3.org/2000/svg">

  <g
     id="g159977"
     transform="matrix(1.3333333,0,0,-1.3333333,-371.65783,168.25328)">
    <g
       id="g836"
       transform="translate(286.5531,115.4002)"
       clip-path="url(#clipPath24208)">
      <path
         d="m 0,0 1.922,2.226 c 0,0 0.695,-0.445 1.641,-0.363 C 4.508,1.947 7.734,2.949 8.375,0.5 9.014,-1.947 7.262,-4.59 4.119,-4.729 1.367,-4.85 0.744,-2.895 0.779,-2.002 0.836,-0.668 0,0 0,0 Z"
         style="fill:none;stroke:#ec008c;stroke-width:0.567;stroke-linecap:butt;stroke-linejoin:miter;stroke-miterlimit:3.864;stroke-dasharray:none;stroke-opacity:1"
         id="path838" />
    </g>
    <g
       id="g840"
       transform="translate(289.3931,116.4862)"
       clip-path="url(#clipPath24202)">
      <path
         d="M 0,0 C 0,0 1.863,-0.809 3.476,-0.698"
         style="fill:none;stroke:#ec008c;stroke-width:0.567;stroke-linecap:butt;stroke-linejoin:miter;stroke-miterlimit:3.864;stroke-dasharray:none;stroke-opacity:1"
         id="path842" />
    </g>
    <g
       id="g844"
       transform="translate(288.9751,115.6502)"
       clip-path="url(#clipPath24196)">
      <path
         d="M 0,0 3.838,-2.252"
         style="fill:none;stroke:#ec008c;stroke-width:0.567;stroke-linecap:butt;stroke-linejoin:miter;stroke-miterlimit:3.864;stroke-dasharray:none;stroke-opacity:1"
         id="path846" />
    </g>
    <g
       id="g848"
       transform="translate(288.3341,114.6502)"
       clip-path="url(#clipPath24190)">
      <path
         d="M 0,0 C 0.418,-0.475 1.363,-1.363 1.725,-2.365"
         style="fill:none;stroke:#ec008c;stroke-width:0.567;stroke-linecap:butt;stroke-linejoin:miter;stroke-miterlimit:3.864;stroke-dasharray:none;stroke-opacity:1"
         id="path850" />
    </g>
  </g>
</svg>
