<?xml version="1.0" encoding="UTF-8" standalone="no"?>
<svg
   version="1.0"
   width="11"
   height="7"
   id="svg2"
   sodipodi:docname="spherical.svg"
   inkscape:version="1.4.3 (0d15f75042, 2025-12-25)"
   xmlns:inkscape="http://www.inkscape.org/namespaces/inkscape"
   xmlns:sodipodi="http://sodipodi.sourceforge.net/DTD/sodipodi-0.dtd"
   xmlns="http://www.w3.org/2000/svg"
   xmlns:svg="http://www.w3.org/2000/svg">
  <defs
     id="defs1" />
  <sodipodi:namedview
     id="namedview1"
     pagecolor="#ffffff"
     bordercolor="#000000"
     borderopacity="0.25"
     inkscape:showpageshadow="2"
     inkscape:pageopacity="0.0"
     inkscape:pagecheckerboard="0"
     inkscape:deskcolor="#d1d1d1"
     showguides="true"
     inkscape:zoom="59.125"
     inkscape:cx="4.1860465"
     inkscape:cy="4.6004228"
     inkscape:window-width="3840"
     inkscape:window-height="2094"
     inkscape:window-x="0"
     inkscape:window-y="0"
     inkscape:window-maximized="1"
     inkscape:current-layer="svg2">
    <sodipodi:guide
       position="17.090777,2"
       orientation="0,1"
       id="guide1"
       inkscape:locked="false"
       inkscape:label=""
       inkscape:color="rgb(0,134,229)" />
    <sodipodi:guide
       position="5.5,11.465381"
       orientation="-1,0"
       id="guide2"
       inkscape:locked="false"
       inkscape:label=""
       inkscape:color="rgb(0,134,229)" />
  </sodipodi:namedview>
  <style
     type="text/css"
     id="base">
      .outline {
        fill: none;
        stroke: black;
        stroke-width: 0.3;
      }
      .inline {
        fill: none;
        stroke: none;
        stroke-width: 0.8;
      }
      .fill {
        fill: none;
        stroke: none;
        stroke-width: 0.3;
      }
      .baseline {
        fill: none;
        stroke: black;
        stroke-width: 0.5;
      }
      .basepoint {
        fill: white;
        stroke: black;
        stroke-width: 0.5;
      }
      COLORING{}
  </style>
  <path
     class="fill uniform vertical02 vertical03 horizontal02 horizontal03 horizontal04 cross02"
     id="BOYSHP_3"
     d="M 5.8593749,0.552277 C 3.2309199,0.552277 1.9609689,3.22213 2.6178129,5 h 6.483124 C 9.7577809,3.22213 8.4878299,0.552277 5.8593749,0.552277" />
  <path
     id="path372"
     class="fill vertical12"
     d="M 6.6660159,0.644531 5.4999999,5 h 3.601562 C 9.6870019,3.4154 8.7394969,1.124381 6.6660159,0.644531 Z" />
  <path
     id="path383"
     class="fill vertical13"
     d="M 5.5546879,0.566406 4.3671879,5 h 4.734374 c 0.656844,-1.777868 -0.613735,-4.447266 -3.242187,-4.447266 -0.104047,0 -0.204933,0.0055 -0.304687,0.01367 z" />
  <path
     id="path388"
     class="fill vertical23"
     d="M 7.7089839,1.085938 6.6601559,5 h 2.441406 C 9.5775889,3.711547 9.0407919,1.955472 7.7089839,1.085938 Z" />
  <path
     id="path301"
     class="fill horizontal13"
     d="M 3.6230469,1.384766 C 2.5789249,2.315725 2.1904829,3.845047 2.6171879,5 h 6.484374 c 0.242768,-0.657095 0.220322,-1.435552 -0.03516,-2.15625 z" />
  <path
     id="path371"
     class="fill horizontal23"
     d="M 9.2089839,4.628906 2.6425779,2.869141 C 2.3951459,3.582581 2.3771659,4.35034 2.6171879,5 h 6.484374 c 0.04438,-0.120124 0.08057,-0.243952 0.107422,-0.371094 z" />
  <path
     id="path304"
     class="fill horizontal14"
     d="M 4.0488279,1.0625 C 2.6893439,1.923299 2.1366449,3.699323 2.6171879,5 h 6.484374 C 9.4013359,4.188606 9.2984689,3.192042 8.8496089,2.347656 Z" />
  <path
     id="path984"
     class="fill horizontal24 horizontal12"
     d="M 9.2617189,3.771484 3.0156249,2.097656 C 2.4440339,2.988984 2.2870939,4.106541 2.6171879,5 h 6.484374 c 0.140528,-0.380363 0.190757,-0.801521 0.160157,-1.228516 z" />
  <path
     id="path989"
     class="fill horizontal34"
     d="M 8.9570309,5 2.5273439,3.277344 C 2.3980269,3.86784 2.4224919,4.473022 2.6171879,5 Z" />
  <path
     class="inline cross12"
     d="M 5.4999999,5 6.6660159,0.644531"
     id="path262" />
  <path
     class="inline cross12"
     d="m 3.0182029,2.097656 c 1.874311,0.89326 3.934649,1.484975 6.243516,1.673828"
     id="path264" />
  <path
     class="outline"
     id="path8447"
     d="M 5.8593749,0.552277 C 3.2309199,0.552277 1.9609689,3.22213 2.6178129,5 h 6.483124 C 9.7577809,3.22213 8.4878299,0.552277 5.8593749,0.552277" />
  <path
     class="baseline"
     d="M 1.3165069,5 H 10.402243"
     id="path915" />
  <circle
     class="basepoint"
     id="path5349"
     cx="5.5"
     cy="5"
     r="1" />
</svg>
