<?xml version="1.0" encoding="UTF-8" standalone="no"?>
<svg
   version="1.0"
   width="16"
   height="16"
   id="svg2"
   sodipodi:docname="wreck-hull_showing.svg"
   inkscape:version="1.4.3 (0d15f75042, 2025-12-25)"
   xmlns:inkscape="http://www.inkscape.org/namespaces/inkscape"
   xmlns:sodipodi="http://sodipodi.sourceforge.net/DTD/sodipodi-0.dtd"
   xmlns="http://www.w3.org/2000/svg"
   xmlns:svg="http://www.w3.org/2000/svg">
  <defs
     id="defs1" />
  <sodipodi:namedview
     id="namedview1"
     pagecolor="#ffffff"
     bordercolor="#000000"
     borderopacity="0.25"
     inkscape:showpageshadow="2"
     inkscape:pageopacity="0.0"
     inkscape:pagecheckerboard="0"
     inkscape:deskcolor="#d1d1d1"
     showguides="true"
     inkscape:zoom="59.125"
     inkscape:cx="6.9006342"
     inkscape:cy="6.9852008"
     inkscape:window-width="3840"
     inkscape:window-height="2094"
     inkscape:window-x="0"
     inkscape:window-y="0"
     inkscape:window-maximized="1"
     inkscape:current-layer="svg2">
    <sodipodi:guide
       position="25.801665,8"
       orientation="0,1"
       id="guide1"
       inkscape:locked="false"
       inkscape:label=""
       inkscape:color="rgb(0,134,229)" />
    <sodipodi:guide
       position="8,15.085161"
       orientation="-1,0"
       id="guide2"
       inkscape:locked="false"
       inkscape:label=""
       inkscape:color="rgb(0,134,229)" />
  </sodipodi:namedview>
  <g
     id="g25250"
     transform="matrix(1.3333333,0,0,-1.3333333,-353.81924,371.28615)">
    <g
       id="g376"
       transform="translate(270.6571,272.4132)"
       clip-path="url(#clipPath24982)">
      <path
         d="M 0,0 H -4.453 V 0.34 H 0.03 Z"
         style="fill:#231f20;fill-opacity:1;fill-rule:nonzero;stroke:none"
         id="path378" />
    </g>
    <g
       id="g380"
       transform="translate(272.0391,272.6972)"
       clip-path="url(#clipPath24976)">
      <path
         d="M 0,0 H 5.221 V -0.285 H -0.076 Z"
         style="fill:#231f20;fill-opacity:1;fill-rule:nonzero;stroke:none"
         id="path382" />
    </g>
    <g
       id="g384"
       transform="translate(266.4961,276.1122)"
       clip-path="url(#clipPath24970)">
      <path
         d="m 0,0 10.764,-3.414 v -0.285 c 0,0 -5.061,0.016 -5.143,0.207 C 5.519,-3.25 5.059,-2.818 4.971,-2.776 4.824,-2.704 4.088,-3.056 4.03,-3.451 3.534,-3.659 2.26,-3.414 2.26,-3.414 L 0,0"
         style="fill:#231f20;fill-opacity:1;fill-rule:nonzero;stroke:none"
         id="path386" />
    </g>
    <g
       id="g388"
       transform="translate(272.5571,277.7162)"
       clip-path="url(#clipPath24964)">
      <path
         d="m 0,0 0.674,-0.22 -1.051,-3.234 -0.674,0.219 z"
         style="fill:#231f20;fill-opacity:1;fill-rule:nonzero;stroke:none"
         id="path390" />
    </g>
    <g
       id="g392"
       transform="translate(270.6271,272.4592)"
       clip-path="url(#clipPath24958)">
      <path
         d="M 0,0 C 0,0.408 0.33,0.738 0.737,0.738 1.144,0.738 1.474,0.408 1.474,0 1.474,-0.406 1.144,-0.736 0.737,-0.736 0.33,-0.736 0,-0.406 0,0 Z"
         style="fill:none;stroke:#231f20;stroke-width:0.34;stroke-linecap:butt;stroke-linejoin:miter;stroke-miterlimit:3.864;stroke-dasharray:none;stroke-opacity:1"
         id="path394" />
    </g>
  </g>
</svg>
