<?xml version="1.0" encoding="UTF-8" standalone="no"?>
<svg
   version="1.0"
   width="32"
   height="32"
   id="svg2"
   xmlns="http://www.w3.org/2000/svg"
   xmlns:svg="http://www.w3.org/2000/svg">
   <g
     id="g171214"
     transform="matrix(1.3333333,0,0,-1.3333333,-90.629064,156.80053)">
    <g
       id="g2074"
       transform="translate(76.6433,102.8014)"
       clip-path="url(#clipPath114972)">
      <path
         d="M 0,0 C 0.781,-0.907 1.923,-1.492 3.214,-1.494 4.504,-1.492 5.646,-0.907 6.427,0 H 0"
         style="fill:#ec008c;fill-opacity:1;fill-rule:nonzero;stroke:none"
         id="path2076" />
    </g>
    <g
       id="g2078"
       transform="translate(79.5653,102.4534)"
       clip-path="url(#clipPath114966)">
      <path
         d="M 0,0 V 7.184 C 0,7.325 0.116,7.44 0.256,7.44 0.396,7.44 0.512,7.325 0.512,7.184 V 0 C 0.512,-0.141 0.396,-0.256 0.256,-0.256 0.116,-0.256 0,-0.141 0,0"
         style="fill:#ec008c;fill-opacity:1;fill-rule:nonzero;stroke:none"
         id="path2080" />
    </g>
    <g
       id="g2082"
       transform="translate(79.6313,108.6984)"
       clip-path="url(#clipPath114960)">
      <path
         d="m 0,0 c -0.875,-0.219 -3.582,-1.942 -2.441,-5.615 0.218,0.298 0.828,1.017 1.64,1.127 -0.812,1.491 -0.461,3.323 0.73,4.238 C -0.002,-0.197 -0.076,-0.047 0,0"
         style="fill:#ec008c;fill-opacity:1;fill-rule:nonzero;stroke:none"
         id="path2084" />
    </g>
    <g
       id="g2086"
       transform="translate(81.0663,109.2234)"
       clip-path="url(#clipPath114954)">
      <path
         d="m 0,0 c 0.008,0.031 -0.039,0.086 -0.08,0.026 -0.549,-0.562 -1.193,-1.434 -1.203,-2.008 -0.063,-3.281 0.296,-4.171 0.296,-4.171 0,0 1.875,0.906 3.221,1.168 C 0.984,-3.672 0.063,-1.657 0,0"
         style="fill:#ec008c;fill-opacity:1;fill-rule:nonzero;stroke:none"
         id="path2088" />
    </g>
  </g>
</svg>
