<?xml version="1.0" encoding="UTF-8" standalone="no"?>
<svg
   version="1.0"
   width="32"
   height="32"
   id="svg2"
   sodipodi:docname="circle.svg"
   inkscape:version="1.2.2 (b0a8486541, 2022-12-01)"
   xmlns:inkscape="http://www.inkscape.org/namespaces/inkscape"
   xmlns:sodipodi="http://sodipodi.sourceforge.net/DTD/sodipodi-0.dtd"
   xmlns="http://www.w3.org/2000/svg"
   xmlns:svg="http://www.w3.org/2000/svg">
  <style
     type="text/css"
     id="base">
      .outline {
        fill: none;
        stroke: black;
        stroke-width: 0.3;
      }
      .inline {
        fill: none;
        stroke: none;
        stroke-width: 0.8;
      }
      .fill {
        fill: none;
        stroke: none;
        stroke-width: 0.3;
      }
      .baseline {
        fill: none;
        stroke: black;
        stroke-width: 0.5;
      }
      .basepoint {
        fill: white;
        stroke: black;
        stroke-width: 0.5;
      }
      COLORING{}
  </style>
  <path
     class="baseline" style="fill:none; stroke:black; stroke-width:0.5;"
     d="M 16,13.914208 V 16"
     id="path241" />
  <circle
     class="fill uniform border12 vertical02 horizontal02 vertical03 horizontal03 cross02 saltire02 squared02" style="fill:#808080; stroke:none;"
     id="path348"
     cx="16"
     cy="11.905389"
     r="2.0098038" />
  <path
     id="path366"
     class="fill vertical12 vertical23" style="fill:none; stroke:none;"
     d="M 16,9.8945939 V 13.915542 A 2.0098038,2.0098038 0 0 0 18.010474,11.905067 2.0098038,2.0098038 0 0 0 16,9.8945939 Z" />
  <path
     id="circle369"
     class="fill horizontal12 horizontal23" style="fill:none; stroke:none;"
     d="M 18.010474,11.905067 H 13.989525 A 2.0098038,2.0098038 0 0 0 16,13.915542 2.0098038,2.0098038 0 0 0 18.010474,11.905067 Z" />
  <path
     class="inline cross12 horizontal13" style="fill:none; stroke:none;"
     d="m 13.989525,11.905067 4.020279,3.22e-4"
     id="path309" />
  <path
     class="inline cross12 vertical13" style="fill:none; stroke:none;"
     d="m 15.999826,9.8950885 -3.22e-4,4.0202795"
     id="path311" />
  <path
     class="inline saltire12" style="fill:none; stroke:none;"
     d="m 17.421162,10.483959 -2.842994,2.842539"
     id="path313" />
  <path
     class="inline saltire12" style="fill:none; stroke:none;"
     d="m 14.578168,10.483959 2.842994,2.842539"
     id="path369" />
  <path
     id="circle303"
     class="fill squared12" style="fill:#fab20b; stroke:none;"
     d="M 16 11.90625 L 13.990234 11.90625 A 2.0098038 2.0098038 0 0 0 16 13.916016 L 16 11.90625 z " />
  <path
     id="path438"
     class="fill squared12" style="fill:#fab20b; stroke:none;"
     d="M 16 9.8964844 L 16 11.90625 L 18.009766 11.90625 A 2.0098038 2.0098038 0 0 0 16 9.8964844 z " />
  <circle
     class="outline border02" style="fill:none; stroke:black; stroke-width:0.3;"
     id="circle13"
     cx="16"
     cy="11.905389"
     r="2.0098038" />
</svg>