<?xml version="1.0" encoding="UTF-8" standalone="no"?>
<svg
   version="1.0"
   width="32"
   height="32"
   id="svg2"
   sodipodi:docname="barrel-b.svg"
   inkscape:version="1.2.2 (b0a8486541, 2022-12-01)"
   xmlns:inkscape="http://www.inkscape.org/namespaces/inkscape"
   xmlns:sodipodi="http://sodipodi.sourceforge.net/DTD/sodipodi-0.dtd"
   xmlns="http://www.w3.org/2000/svg"
   xmlns:svg="http://www.w3.org/2000/svg">
  <sodipodi:namedview
     id="namedview7288"
     pagecolor="#ffffff"
     bordercolor="#666666"
     borderopacity="1.0"
     inkscape:showpageshadow="2"
     inkscape:pageopacity="0.0"
     inkscape:pagecheckerboard="0"
     inkscape:deskcolor="#d1d1d1"
     showgrid="false"
     inkscape:zoom="24.71875"
     inkscape:cx="16"
     inkscape:cy="15.979772"
     inkscape:window-width="1349"
     inkscape:window-height="1158"
     inkscape:window-x="1454"
     inkscape:window-y="487"
     inkscape:window-maximized="0"
     inkscape:current-layer="svg2" />
  <g
     id="g1166"
     transform="matrix(1.3333333,0,0,-1.3333333,11.990273,16.096377)"
     clip-path="url(#clipPath5560)"
     style="fill:#ffffff">
    <path
       d="M 0,0 C 0,0.206 -0.062,0.405 -0.083,0.617 -0.292,2.64 0.734,3.234 2.526,3.234 4.344,3.234 5.364,2.359 5.194,0.617 5.172,0.4 5.146,0.218 5.074,-0.014"
       style="fill:#ffffff;stroke:#231f20;stroke-width:0.68;stroke-linecap:butt;stroke-linejoin:miter;stroke-miterlimit:3.864;stroke-dasharray:none;stroke-opacity:1"
       id="path1168" />
  </g>
  <g
     id="g1158"
     transform="matrix(1.3333333,0,0,-1.3333333,17.165073,16.011043)"
     clip-path="url(#clipPath5572)">
    <path
       d="M 0,0 H 2.672"
       style="fill:none;stroke:#231f20;stroke-width:0.34;stroke-linecap:butt;stroke-linejoin:miter;stroke-miterlimit:3.864;stroke-dasharray:none;stroke-opacity:1"
       id="path1160" />
  </g>
  <g
     id="g1162"
     transform="matrix(1.3333333,0,0,-1.3333333,10.143607,16.011043)"
     clip-path="url(#clipPath5566)">
    <path
       d="M 0,0 H 3.561"
       style="fill:none;stroke:#231f20;stroke-width:0.34;stroke-linecap:butt;stroke-linejoin:miter;stroke-miterlimit:3.864;stroke-dasharray:none;stroke-opacity:1"
       id="path1164" />
  </g>
  <g
     id="g1170"
     transform="matrix(1.3333333,0,0,-1.3333333,13.250273,12.20571)"
     clip-path="url(#clipPath5554)">
    <path
       d="M 0,0 C 0,0 0.118,-0.16 0.173,-0.249 0.649,-1.017 0.837,-1.736 0.844,-2.754"
       style="fill:none;stroke:#231f20;stroke-width:0.567;stroke-linecap:butt;stroke-linejoin:miter;stroke-miterlimit:3.864;stroke-dasharray:none;stroke-opacity:1"
       id="path1172" />
  </g>
  <g
     id="g1174"
     transform="matrix(1.3333333,0,0,-1.3333333,14.909073,16.011043)"
     clip-path="url(#clipPath5548)"
     style="fill:#ffffff">
    <path
       d="M 0,0 C 0,0.454 0.368,0.822 0.822,0.822 1.275,0.822 1.644,0.454 1.644,0 1.644,-0.454 1.275,-0.822 0.822,-0.822 0.368,-0.822 0,-0.454 0,0 Z"
       style="fill:#ffffff;stroke:#231f20;stroke-width:0.34;stroke-linecap:butt;stroke-linejoin:miter;stroke-miterlimit:3.864;stroke-dasharray:none;stroke-opacity:1"
       id="path1176" />
  </g>
  <path
     d="m 13.490273,12.175043 c 0.708,-0.458667 3.874667,-0.625333 4.750667,0.708 0.876,1.333333 0.709333,3.084 0.709333,3.084 h -1.666667 c -0.04267,-1.542667 -1.7713,-0.874348 -1.937967,-0.791681 -0.166667,0.084 -0.314033,0.333014 -0.314033,0.707681 -0.581333,0 -1.081333,-3.625333 -1.541333,-3.708"
     style="fill:#231f20;fill-opacity:1;fill-rule:nonzero;stroke:none;stroke-width:1.33333"
     id="path1180"
     clip-path="url(#clipPath7968)" />
</svg>
