<?xml version="1.0" encoding="UTF-8" standalone="no"?>
<svg
   version="1.0"
   width="32"
   height="32"
   id="svg2"
   xmlns="http://www.w3.org/2000/svg"
   xmlns:svg="http://www.w3.org/2000/svg">
   <path
     d="m 11.989278,16.092569 c 0,-0.274667 -0.08267,-0.54 -0.110667,-0.822667 -0.278666,-2.697333 1.089334,-3.489333 3.478667,-3.489333 2.424,0 3.784,1.166667 3.557333,3.489333 -0.028,0.289334 -0.064,0.532 -0.16,0.841334"
     style="fill:none;stroke:#231f20;stroke-width:0.906667;stroke-linecap:butt;stroke-linejoin:miter;stroke-miterlimit:3.864;stroke-dasharray:none;stroke-opacity:1"
     id="path782"
     clip-path="url(#clipPath9657)" />
  <path
     d="m 17.165144,16.007236 h 3.561333"
     style="fill:none;stroke:#231f20;stroke-width:0.453333;stroke-linecap:butt;stroke-linejoin:miter;stroke-miterlimit:3.864;stroke-dasharray:none;stroke-opacity:1"
     id="path774"
     clip-path="url(#clipPath9672)" />
  <path
     d="m 10.142478,16.007236 h 4.748"
     style="fill:none;stroke:#231f20;stroke-width:0.453333;stroke-linecap:butt;stroke-linejoin:miter;stroke-miterlimit:3.864;stroke-dasharray:none;stroke-opacity:1"
     id="path778"
     clip-path="url(#clipPath9702)" />
  <path
     d="m 13.249145,12.201903 c 0,0 0.157333,0.213333 0.230667,0.332 0.634666,1.024 0.885333,1.982667 0.894666,3.34"
     style="fill:none;stroke:#231f20;stroke-width:0.756;stroke-linecap:butt;stroke-linejoin:miter;stroke-miterlimit:3.864;stroke-dasharray:none;stroke-opacity:1"
     id="path786"
     clip-path="url(#clipPath9687)" />
  <path
     d="m 14.907811,16.007236 c 0,-0.605333 0.490667,-1.096 1.096,-1.096 0.605333,0 1.096,0.490667 1.096,1.096 0,0.605333 -0.490667,1.096 -1.096,1.096 -0.605333,0 -1.096,-0.490667 -1.096,-1.096 z"
     style="fill:none;stroke:#231f20;stroke-width:0.453333;stroke-linecap:butt;stroke-linejoin:miter;stroke-miterlimit:3.864;stroke-dasharray:none;stroke-opacity:1"
     id="path790"
     clip-path="url(#clipPath9642)" />
</svg>
