<?xml version="1.0" encoding="UTF-8" standalone="no"?>
<svg
   version="1.0"
   width="32"
   height="32"
   id="svg2"
   xmlns="http://www.w3.org/2000/svg"
   xmlns:svg="http://www.w3.org/2000/svg">
   <g
     id="g816"
     transform="matrix(1.3333333,0,0,-1.3333333,16.799999,15.977102)"
     clip-path="url(#clipPath6124)">
    <path
       d="M 0,0 H 2.244"
       style="fill:none;stroke:#231f20;stroke-width:0.283;stroke-linecap:butt;stroke-linejoin:miter;stroke-miterlimit:3.864;stroke-dasharray:none;stroke-opacity:1"
       id="path818" />
  </g>
  <g
     id="g820"
     transform="matrix(1.3333333,0,0,-1.3333333,12.208,15.977102)"
     clip-path="url(#clipPath6118)">
    <path
       d="M 0,0 H 2.122"
       style="fill:none;stroke:#231f20;stroke-width:0.283;stroke-linecap:butt;stroke-linejoin:miter;stroke-miterlimit:3.864;stroke-dasharray:none;stroke-opacity:1"
       id="path822" />
  </g>
  <g
     id="g824"
     transform="matrix(1.3333333,0,0,-1.3333333,15.017199,16.014436)"
     clip-path="url(#clipPath6112)"
     style="fill:none">
    <path
       d="M 0,0 C 0,0.407 0.33,0.737 0.737,0.737 1.145,0.737 1.475,0.407 1.475,0 1.475,-0.406 1.145,-0.736 0.737,-0.736 0.33,-0.736 0,-0.406 0,0 Z"
       style="fill:none;stroke:#231f20;stroke-width:0.34;stroke-linecap:butt;stroke-linejoin:miter;stroke-miterlimit:3.864;stroke-dasharray:none;stroke-opacity:1"
       id="path826" />
  </g>
  <g
     id="g828"
     transform="matrix(1.3333333,0,0,-1.3333333,14.866534,9.3771025)"
     clip-path="url(#clipPath6106)">
    <path
       d="m 0,0 h 1.7 v -5.103 c 0,0 -0.364,0.792 -0.812,0.813 C 0.419,-4.27 0,-5.103 0,-5.103 V 0"
       style="fill:#231f20;fill-opacity:1;fill-rule:nonzero;stroke:none"
       id="path830" />
  </g>
</svg>
