<?xml version="1.0" encoding="UTF-8" standalone="no"?>
<svg
   version="1.0"
   width="32"
   height="32"
   id="svg2"
   xmlns="http://www.w3.org/2000/svg"
   xmlns:svg="http://www.w3.org/2000/svg">
  <g
     id="g832"
     transform="matrix(1.3333333,0,0,-1.3333333,13.732733,16.045057)"
     clip-path="url(#clipPath6100)"
     style="fill:none">
    <path
       d="M 0,0 0.651,5.151 H 2.805 L 3.409,0"
       style="fill:none;stroke:#231f20;stroke-width:0.567;stroke-linecap:butt;stroke-linejoin:miter;stroke-miterlimit:3.864;stroke-dasharray:none;stroke-opacity:1"
       id="path834" />
  </g>
  <g
     id="g836"
     transform="matrix(1.3333333,0,0,-1.3333333,15.0726,15.973057)"
     clip-path="url(#clipPath6094)"
     style="fill:none">
    <path
       d="M 0,0 C 0,0.385 0.312,0.695 0.694,0.695 1.078,0.695 1.39,0.385 1.39,0 1.39,-0.384 1.078,-0.693 0.694,-0.693 0.312,-0.693 0,-0.384 0,0 Z"
       style="fill:none;stroke:#231f20;stroke-width:0.34;stroke-linecap:butt;stroke-linejoin:miter;stroke-miterlimit:3.864;stroke-dasharray:none;stroke-opacity:1"
       id="path838" />
  </g>
  <g
     id="g840"
     transform="matrix(1.3333333,0,0,-1.3333333,15.0634,16.179724)"
     clip-path="url(#clipPath6088)">
    <path
       d="M 0,0 H -1.848 V 0.311 H 0.063 Z"
       style="fill:#231f20;fill-opacity:1;fill-rule:nonzero;stroke:none"
       id="path842" />
  </g>
  <g
     id="g844"
     transform="matrix(1.3333333,0,0,-1.3333333,17.019266,15.765057)"
     clip-path="url(#clipPath6082)">
    <path
       d="M 0,0 H 1.786 V -0.311 H -0.062 Z"
       style="fill:#231f20;fill-opacity:1;fill-rule:nonzero;stroke:none"
       id="path846" />
  </g>
</svg>
