<?xml version="1.0" encoding="UTF-8" standalone="no"?>
<svg
   version="1.0"
   width="32"
   height="32"
   id="svg2"
   sodipodi:docname="can-b.svg"
   inkscape:version="1.2.2 (b0a8486541, 2022-12-01)"
   xmlns:inkscape="http://www.inkscape.org/namespaces/inkscape"
   xmlns:sodipodi="http://sodipodi.sourceforge.net/DTD/sodipodi-0.dtd"
   xmlns="http://www.w3.org/2000/svg"
   xmlns:svg="http://www.w3.org/2000/svg">
  <sodipodi:namedview
     id="namedview10186"
     pagecolor="#ffffff"
     bordercolor="#666666"
     borderopacity="1.0"
     inkscape:showpageshadow="2"
     inkscape:pageopacity="0.0"
     inkscape:pagecheckerboard="0"
     inkscape:deskcolor="#d1d1d1"
     showgrid="false"
     showguides="true"
     inkscape:zoom="30.53125"
     inkscape:cx="15.230297"
     inkscape:cy="16.032753"
     inkscape:window-width="1704"
     inkscape:window-height="1195"
     inkscape:window-x="1946"
     inkscape:window-y="755"
     inkscape:window-maximized="0"
     inkscape:current-layer="svg2">
    <sodipodi:guide
       position="124.46264,16"
       orientation="0,1"
       id="guide10194"
       inkscape:locked="false"
       inkscape:label=""
       inkscape:color="rgb(0,134,229)" />
    <sodipodi:guide
       position="16,-27.61105"
       orientation="-1,0"
       id="guide10196"
       inkscape:locked="false"
       inkscape:label=""
       inkscape:color="rgb(0,134,229)" />
  </sodipodi:namedview>

  <path
     d="m 13.528552,10.914583 6.96,1.865333 -0.842667,3.296 -2.770666,-0.084 c 0,0 -0.369334,-0.958666 -0.876,-0.957333 -0.510667,0 -0.869334,0.978667 -0.869334,0.978667 l -2.984,0.06267 1.382667,-5.161333"
     style="fill:#231f20;fill-opacity:1;fill-rule:nonzero;stroke:none;stroke-width:1.33333"
     id="path654"
     clip-path="url(#clipPath14087)" />
  <g
     id="g656"
     transform="matrix(1.3333333,0,0,-1.3333333,16.952418,16.003917)"
     clip-path="url(#clipPath6364-6)">
    <path
       d="M 0,0 H 3.098"
       style="fill:none;stroke:#231f20;stroke-width:0.34;stroke-linecap:butt;stroke-linejoin:miter;stroke-miterlimit:3.864;stroke-dasharray:none;stroke-opacity:1"
       id="path658" />
  </g>
  <g
     id="g660"
     transform="matrix(1.3333333,0,0,-1.3333333,10.913752,16.003917)"
     clip-path="url(#clipPath6358-2)">
    <path
       d="M 0,0 H 3.158"
       style="fill:none;stroke:#231f20;stroke-width:0.34;stroke-linecap:butt;stroke-linejoin:miter;stroke-miterlimit:3.864;stroke-dasharray:none;stroke-opacity:1"
       id="path662" />
  </g>
  <g
     id="g664"
     transform="matrix(1.3333333,0,0,-1.3333333,14.977752,16.003917)"
     clip-path="url(#clipPath6352-8)"
     style="fill:none">
    <path
       d="M 0,0 C 0,0.423 0.343,0.765 0.765,0.765 1.188,0.765 1.531,0.423 1.531,0 1.531,-0.423 1.188,-0.765 0.765,-0.765 0.343,-0.765 0,-0.423 0,0 Z"
       style="fill:none;stroke:#231f20;stroke-width:0.34;stroke-linecap:butt;stroke-linejoin:miter;stroke-miterlimit:3.864;stroke-dasharray:none;stroke-opacity:1"
       id="path666" />
  </g>
</svg>
