<?xml version="1.0" encoding="UTF-8" standalone="no"?>
<svg
   version="1.0"
   width="32"
   height="32"
   id="svg2"
   sodipodi:docname="floodlight-w.svg"
   inkscape:version="1.2.2 (b0a8486541, 2022-12-01)"
   xmlns:inkscape="http://www.inkscape.org/namespaces/inkscape"
   xmlns:sodipodi="http://sodipodi.sourceforge.net/DTD/sodipodi-0.dtd"
   xmlns="http://www.w3.org/2000/svg"
   xmlns:svg="http://www.w3.org/2000/svg">
  <sodipodi:namedview
     id="namedview341"
     pagecolor="#ffffff"
     bordercolor="#eeeeee"
     borderopacity="1"
     inkscape:showpageshadow="0"
     inkscape:pageopacity="0"
     inkscape:pagecheckerboard="0"
     inkscape:deskcolor="#505050"
     showgrid="false"
     inkscape:zoom="28.28125"
     inkscape:cx="15.080663"
     inkscape:cy="16"
     inkscape:window-width="1644"
     inkscape:window-height="1149"
     inkscape:window-x="1335"
     inkscape:window-y="356"
     inkscape:window-maximized="0"
     inkscape:current-layer="svg2" />
    <g
     id="g10615"
     transform="matrix(1.3333333,0,0,-1.3333333,-110.09978,870.01614)">
    <path
       d="m 89.9657,643.4453 0.069,0.106 c 0.998,1.432 2.658,2.369 4.536,2.369 1.904,0 3.536,-0.962 4.556,-2.425 l 0.054,-0.087"
       style="fill:none;stroke:#fab20b;stroke-width:0.567;stroke-linecap:butt;stroke-linejoin:miter;stroke-miterlimit:3.864;stroke-dasharray:none;stroke-opacity:1"
       id="path6476"
       clip-path="url(#clipPath100133)" />
    <path
       d="m 94.4258,641.5703 -0.418,3.76 -0.08,0.559 c 0.138,0.019 0.474,0.034 0.656,0.035 0.185,10e-4 0.461,-0.007 0.629,-0.039 l -0.07,-0.555 -0.419,-3.76 h -0.298"
       style="fill:#fab20b;fill-opacity:1;fill-rule:nonzero;stroke:none"
       id="path6480"
       clip-path="url(#clipPath100988)" />
    <path
       d="m 93.9037,641.3793 -1.968,3.231 -0.308,0.473 c 0.115,0.075 0.413,0.231 0.579,0.308 0.166,0.079 0.421,0.189 0.587,0.231 l 0.17,-0.532 1.209,-3.585 -0.269,-0.126"
       style="fill:#fab20b;fill-opacity:1;fill-rule:nonzero;stroke:none"
       id="path6484"
       clip-path="url(#clipPath99698)" />
    <path
       d="m 94.9657,641.4923 1.21,3.585 0.164,0.54 c 0.133,-0.041 0.443,-0.169 0.61,-0.246 0.166,-0.077 0.414,-0.201 0.553,-0.301 l -0.299,-0.473 -1.968,-3.231 -0.27,0.126"
       style="fill:#fab20b;fill-opacity:1;fill-rule:nonzero;stroke:none"
       id="path6488"
       clip-path="url(#clipPath101063)" />
    <path
       d="m 93.5977,641.0553 -3.149,2.097 -0.48,0.298 c 0.073,0.117 0.277,0.384 0.395,0.525 0.118,0.141 0.301,0.348 0.434,0.457 l 0.379,-0.412 2.611,-2.737 -0.19,-0.228"
       style="fill:#fab20b;fill-opacity:1;fill-rule:nonzero;stroke:none"
       id="path6492"
       clip-path="url(#clipPath101168)" />
    <path
       d="m 95.3707,641.2393 2.612,2.736 0.376,0.42 c 0.103,-0.091 0.33,-0.339 0.45,-0.479 0.119,-0.14 0.291,-0.358 0.374,-0.507 l -0.471,-0.301 -3.15,-2.097 -0.191,0.228"
       style="fill:#fab20b;fill-opacity:1;fill-rule:nonzero;stroke:none"
       id="path6496"
       clip-path="url(#clipPath101678)" />
  </g>
</svg>
