<?xml version="1.0" encoding="UTF-8" standalone="no"?>
<svg
   version="1.0"
   width="32"
   height="32"
   id="svg2"
   sodipodi:docname="mooring-w.svg"
   inkscape:version="1.2.2 (b0a8486541, 2022-12-01)"
   xmlns:inkscape="http://www.inkscape.org/namespaces/inkscape"
   xmlns:sodipodi="http://sodipodi.sourceforge.net/DTD/sodipodi-0.dtd"
   xmlns="http://www.w3.org/2000/svg"
   xmlns:svg="http://www.w3.org/2000/svg">
  <sodipodi:namedview
     id="namedview10186"
     pagecolor="#ffffff"
     bordercolor="#666666"
     borderopacity="1.0"
     inkscape:showpageshadow="2"
     inkscape:pageopacity="0.0"
     inkscape:pagecheckerboard="0"
     inkscape:deskcolor="#d1d1d1"
     showgrid="false"
     showguides="true"
     inkscape:zoom="30.53125"
     inkscape:cx="16"
     inkscape:cy="16"
     inkscape:window-width="1704"
     inkscape:window-height="1195"
     inkscape:window-x="1946"
     inkscape:window-y="755"
     inkscape:window-maximized="0"
     inkscape:current-layer="svg2">
    <sodipodi:guide
       position="124.46264,16"
       orientation="0,1"
       id="guide10194"
       inkscape:locked="false"
       inkscape:label=""
       inkscape:color="rgb(0,134,229)" />
    <sodipodi:guide
       position="16,-27.61105"
       orientation="-1,0"
       id="guide10196"
       inkscape:locked="false"
       inkscape:label=""
       inkscape:color="rgb(0,134,229)" />
  </sodipodi:namedview>

  <g
     id="g28114"
     transform="translate(-8.9813763,0.212049)">
    <g
       id="g792"
       transform="matrix(1.3333333,0,0,-1.3333333,26.131894,15.786634)"
       clip-path="url(#clipPath6160)">
      <path
         d="M 0,0 H 2.671"
         style="fill:none;stroke:#231f20;stroke-width:0.34;stroke-linecap:butt;stroke-linejoin:miter;stroke-miterlimit:3.864;stroke-dasharray:none;stroke-opacity:1"
         id="path794" />
    </g>
    <g
       id="g796"
       transform="matrix(1.3333333,0,0,-1.3333333,19.109228,15.786634)"
       clip-path="url(#clipPath6154)">
      <path
         d="M 0,0 H 3.561"
         style="fill:none;stroke:#231f20;stroke-width:0.34;stroke-linecap:butt;stroke-linejoin:miter;stroke-miterlimit:3.864;stroke-dasharray:none;stroke-opacity:1"
         id="path798" />
    </g>
    <g
       id="g800"
       transform="matrix(1.3333333,0,0,-1.3333333,20.955895,15.8733)"
       clip-path="url(#clipPath6148)">
      <path
         d="M 0,0 C 0,0.206 -0.062,0.406 -0.083,0.617 -0.292,2.641 0.734,3.235 2.526,3.235 4.344,3.235 5.364,2.36 5.194,0.617 5.173,0.401 5.146,0.218 5.074,-0.013"
         style="fill:none;stroke:#231f20;stroke-width:0.68;stroke-linecap:butt;stroke-linejoin:miter;stroke-miterlimit:3.864;stroke-dasharray:none;stroke-opacity:1"
         id="path802" />
    </g>
    <g
       id="g804"
       transform="matrix(1.3333333,0,0,-1.3333333,22.215761,11.982634)"
       clip-path="url(#clipPath6142)">
      <path
         d="M 0,0 C 0,0 0.118,-0.16 0.173,-0.249 0.649,-1.016 0.837,-1.736 0.844,-2.754"
         style="fill:none;stroke:#231f20;stroke-width:0.567;stroke-linecap:butt;stroke-linejoin:miter;stroke-miterlimit:3.864;stroke-dasharray:none;stroke-opacity:1"
         id="path806" />
    </g>
    <g
       id="g808"
       transform="matrix(1.3333333,0,0,-1.3333333,23.874428,15.786634)"
       clip-path="url(#clipPath6136)">
      <path
         d="M 0,0 C 0,0.454 0.368,0.821 0.822,0.821 1.276,0.821 1.644,0.454 1.644,0 1.644,-0.454 1.276,-0.823 0.822,-0.823 0.368,-0.823 0,-0.454 0,0 Z"
         style="fill:none;stroke:#231f20;stroke-width:0.34;stroke-linecap:butt;stroke-linejoin:miter;stroke-miterlimit:3.864;stroke-dasharray:none;stroke-opacity:1"
         id="path810" />
    </g>
    <g
       id="g812"
       transform="matrix(1.3333333,0,0,-1.3333333,23.342428,9.854634)"
       clip-path="url(#clipPath6130)">
      <path
         d="M 0,0 C 0,0.438 0.355,0.795 0.794,0.795 1.232,0.795 1.587,0.438 1.587,0 1.587,-0.438 1.232,-0.794 0.794,-0.794 0.355,-0.794 0,-0.438 0,0 Z"
         style="fill:none;stroke:#231f20;stroke-width:0.34;stroke-linecap:butt;stroke-linejoin:miter;stroke-miterlimit:3.864;stroke-dasharray:none;stroke-opacity:1"
         id="path814" />
    </g>
  </g>
</svg>
