<?xml version="1.0" encoding="UTF-8" standalone="no"?>
<svg
   version="1.0"
   width="32"
   height="32"
   id="svg2"
   sodipodi:docname="mooring-b.svg"
   inkscape:version="1.2.2 (b0a8486541, 2022-12-01)"
   xmlns:inkscape="http://www.inkscape.org/namespaces/inkscape"
   xmlns:sodipodi="http://sodipodi.sourceforge.net/DTD/sodipodi-0.dtd"
   xmlns="http://www.w3.org/2000/svg"
   xmlns:svg="http://www.w3.org/2000/svg">
  <sodipodi:namedview
     id="namedview10186"
     pagecolor="#ffffff"
     bordercolor="#666666"
     borderopacity="1.0"
     inkscape:showpageshadow="2"
     inkscape:pageopacity="0.0"
     inkscape:pagecheckerboard="0"
     inkscape:deskcolor="#d1d1d1"
     showgrid="false"
     showguides="true"
     inkscape:zoom="30.53125"
     inkscape:cx="16"
     inkscape:cy="16"
     inkscape:window-width="1704"
     inkscape:window-height="1195"
     inkscape:window-x="1946"
     inkscape:window-y="755"
     inkscape:window-maximized="0"
     inkscape:current-layer="svg2">
    <sodipodi:guide
       position="124.46264,16"
       orientation="0,1"
       id="guide10194"
       inkscape:locked="false"
       inkscape:label=""
       inkscape:color="rgb(0,134,229)" />
    <sodipodi:guide
       position="16,-27.61105"
       orientation="-1,0"
       id="guide10196"
       inkscape:locked="false"
       inkscape:label=""
       inkscape:color="rgb(0,134,229)" />
  </sodipodi:namedview>

  <g
     id="g29293"
     transform="translate(-9.5466351,3.8176377)">
    <g
       id="g1100"
       transform="matrix(1.3333333,0,0,-1.3333333,23.076194,7.0910473)"
       clip-path="url(#clipPath5662)">
      <path
         d="M 0,0 5.22,-1.398 4.588,-3.871 2.51,-3.808 c 0,0 -0.277,0.719 -0.657,0.718 -0.383,0 -0.652,-0.733 -0.652,-0.733 L -1.037,-3.871 0,0"
         style="fill:#231f20;fill-opacity:1;fill-rule:nonzero;stroke:none"
         id="path1102" />
    </g>
    <g
       id="g1104"
       transform="matrix(1.3333333,0,0,-1.3333333,26.501527,12.179047)"
       clip-path="url(#clipPath5656)">
      <path
         d="M 0,0 H 3.098"
         style="fill:none;stroke:#231f20;stroke-width:0.34;stroke-linecap:butt;stroke-linejoin:miter;stroke-miterlimit:3.864;stroke-dasharray:none;stroke-opacity:1"
         id="path1106" />
    </g>
    <g
       id="g1108"
       transform="matrix(1.3333333,0,0,-1.3333333,20.462994,12.179047)"
       clip-path="url(#clipPath5650)">
      <path
         d="M 0,0 H 3.158"
         style="fill:none;stroke:#231f20;stroke-width:0.34;stroke-linecap:butt;stroke-linejoin:miter;stroke-miterlimit:3.864;stroke-dasharray:none;stroke-opacity:1"
         id="path1110" />
    </g>
    <g
       id="g1112"
       transform="matrix(1.3333333,0,0,-1.3333333,24.52686,12.179047)"
       clip-path="url(#clipPath5644)">
      <path
         d="M 0,0 C 0,0.423 0.343,0.764 0.765,0.764 1.188,0.764 1.531,0.423 1.531,0 1.531,-0.423 1.188,-0.766 0.765,-0.766 0.343,-0.766 0,-0.423 0,0 Z"
         style="fill:none;stroke:#231f20;stroke-width:0.34;stroke-linecap:butt;stroke-linejoin:miter;stroke-miterlimit:3.864;stroke-dasharray:none;stroke-opacity:1"
         id="path1114" />
    </g>
    <g
       id="g1116"
       transform="matrix(1.3333333,0,0,-1.3333333,25.74286,6.7897139)"
       clip-path="url(#clipPath5638)">
      <path
         d="M 0,0 C 0,0.437 0.354,0.794 0.794,0.794 1.232,0.794 1.587,0.437 1.587,0 1.587,-0.439 1.232,-0.794 0.794,-0.794 0.354,-0.794 0,-0.439 0,0 Z"
         style="fill:none;stroke:#231f20;stroke-width:0.34;stroke-linecap:butt;stroke-linejoin:miter;stroke-miterlimit:3.864;stroke-dasharray:none;stroke-opacity:1"
         id="path1118" />
    </g>
  </g>
</svg>
