<?xml version="1.0" encoding="UTF-8" standalone="no"?>
<svg
   version="1.0"
   width="32"
   height="32"
   id="svg2"
   xmlns="http://www.w3.org/2000/svg"
   xmlns:svg="http://www.w3.org/2000/svg">
    <g
     id="g224052">
    <g
       id="g2268"
       transform="matrix(1.3333333,0,0,-1.3333333,13.47467,11.720338)"
       clip-path="url(#clipPath43329)">
      <path
         d="M 0,0 3.789,-6.562"
         style="fill:none;stroke:#ec008c;stroke-width:0.283;stroke-linecap:butt;stroke-linejoin:miter;stroke-miterlimit:3.864;stroke-dasharray:none;stroke-opacity:1"
         id="path2270" />
    </g>
    <g
       id="g2272"
       transform="matrix(1.3333333,0,0,-1.3333333,18.52667,11.720338)"
       clip-path="url(#clipPath43323)">
      <path
         d="M 0,0 -3.789,-6.562"
         style="fill:none;stroke:#ec008c;stroke-width:0.283;stroke-linecap:butt;stroke-linejoin:miter;stroke-miterlimit:3.864;stroke-dasharray:none;stroke-opacity:1"
         id="path2274" />
    </g>
    <g
       id="g2276"
       transform="matrix(1.3333333,0,0,-1.3333333,14.933337,12.321671)"
       clip-path="url(#clipPath43317)">
      <path
         d="M 0,0 C 0,0.454 0.368,0.822 0.822,0.822 1.276,0.822 1.644,0.454 1.644,0 1.644,-0.453 1.276,-0.821 0.822,-0.821 0.368,-0.821 0,-0.453 0,0 Z"
         style="fill:none;stroke:#ec008c;stroke-width:0.283;stroke-linecap:butt;stroke-linejoin:miter;stroke-miterlimit:3.864;stroke-dasharray:none;stroke-opacity:1"
         id="path2278" />
    </g>
    <g
       id="g2280"
       transform="matrix(1.3333333,0,0,-1.3333333,15.63467,20.147005)"
       clip-path="url(#clipPath43311)">
      <path
         d="m 0,0 c 0.017,0.48 0.063,2.257 0.063,5.173 0.111,0.006 0.315,0.006 0.425,0 0,-2.916 0.063,-4.72 0.085,-5.204 0.002,-0.032 0.049,-0.09 0.003,-0.146 -0.067,-0.057 -0.275,-0.435 -0.275,-0.435 0,0 -0.161,0.314 -0.281,0.428 C -0.016,-0.099 -0.001,-0.037 0,0"
         style="fill:#ec008c;fill-opacity:1;fill-rule:nonzero;stroke:none"
         id="path2282" />
    </g>
    <g
       id="g2284"
       transform="matrix(1.3333333,0,0,-1.3333333,13.15067,17.911005)"
       clip-path="url(#clipPath43305)">
      <path
         d="m 0,0 c 0.374,-0.924 1.174,-1.409 2.17,-1.383 0.934,0.023 1.687,0.443 2.068,1.297 l 0.16,-0.086 C 3.972,-1.124 3.198,-1.85 2.155,-1.876 1.04,-1.905 0.263,-1.113 -0.156,-0.078 L 0,0"
         style="fill:#ec008c;fill-opacity:1;fill-rule:nonzero;stroke:none"
         id="path2286" />
    </g>
    <g
       id="g2288"
       transform="matrix(1.3333333,0,0,-1.3333333,17.692003,18.088338)"
       clip-path="url(#clipPath43299)">
      <path
         d="M 0,0 C 0,0 0.546,0.116 0.85,0.292 0.983,0.367 1.161,0.538 1.225,0.589 1.241,0.601 1.272,0.583 1.27,0.562 1.26,0.478 1.207,0.23 1.211,0.071 c 0.01,-0.367 0.195,-0.92 0.195,-0.92 0,0 -0.047,-0.068 -0.1,0.058 -0.004,0.008 -0.323,0.567 -0.385,0.8 C 0.695,-0.053 0.101,-0.064 0.093,-0.064 -0.055,-0.069 0,0 0,0"
         style="fill:#ec008c;fill-opacity:1;fill-rule:nonzero;stroke:none"
         id="path2290" />
    </g>
    <g
       id="g2292"
       transform="matrix(1.3333333,0,0,-1.3333333,12.433337,19.040338)"
       clip-path="url(#clipPath43293)">
      <path
         d="M 0,0 C 0,0 0.171,0.532 0.173,0.883 0.173,1.036 0.115,1.276 0.102,1.357 0.099,1.375 0.132,1.394 0.147,1.382 0.216,1.33 0.404,1.161 0.543,1.086 0.866,0.91 1.438,0.795 1.438,0.795 c 0,0 0.036,-0.075 -0.1,-0.06 C 1.33,0.736 0.684,0.74 0.453,0.803 0.392,0.576 0.105,0.057 0.102,0.049 0.033,-0.081 0,0 0,0"
         style="fill:#ec008c;fill-opacity:1;fill-rule:nonzero;stroke:none"
         id="path2294" />
    </g>
    <path
       d="m 499.548,339.554 h 2.834 v 0.425 h -2.834 z"
       style="fill:#ec008c;fill-opacity:1;fill-rule:nonzero;stroke:none"
       id="path2296"
       clip-path="url(#clipPath43287)"
       transform="matrix(1.3333333,0,0,-1.3333333,-651.92358,468.24406)" />
  </g>
</svg>
