<?xml version="1.0" encoding="UTF-8" standalone="no"?>
<svg
   version="1.0"
   width="32"
   height="32"
   id="svg2"
   sodipodi:docname="obstruction.svg"
   inkscape:version="1.2.2 (b0a8486541, 2022-12-01)"
   xmlns:inkscape="http://www.inkscape.org/namespaces/inkscape"
   xmlns:sodipodi="http://sodipodi.sourceforge.net/DTD/sodipodi-0.dtd"
   xmlns="http://www.w3.org/2000/svg"
   xmlns:svg="http://www.w3.org/2000/svg">
  <defs
     id="defs9" />
  <sodipodi:namedview
     id="namedview22131"
     pagecolor="#ffffff"
     bordercolor="#666666"
     borderopacity="1.0"
     inkscape:showpageshadow="2"
     inkscape:pageopacity="0.0"
     inkscape:pagecheckerboard="0"
     inkscape:deskcolor="#d1d1d1"
     showgrid="false"
     showguides="true"
     inkscape:zoom="32.90625"
     inkscape:cx="15.984805"
     inkscape:cy="16"
     inkscape:window-width="1792"
     inkscape:window-height="1297"
     inkscape:window-x="1721"
     inkscape:window-y="568"
     inkscape:window-maximized="0"
     inkscape:current-layer="svg2">
    <sodipodi:guide
       position="10.083411,16"
       orientation="0,1"
       id="guide22613"
       inkscape:locked="false"
       inkscape:label=""
       inkscape:color="rgb(0,134,229)" />
    <sodipodi:guide
       position="16,24.496756"
       orientation="-1,0"
       id="guide22615"
       inkscape:locked="false"
       inkscape:label=""
       inkscape:color="rgb(0,134,229)" />
  </sodipodi:namedview>
  <g
     id="g796"
     transform="matrix(0.72909444,0,0,0.72863893,4.3453817,4.3471777)"
     style="stroke-width:1.37199">
    <g
       id="g268"
       transform="matrix(1.3333333,0,0,-1.3333333,9.8355543,16.000666)"
       clip-path="url(#clipPath25144)"
       style="stroke-width:1.37199">
      <path
         d="M 0,0 C 0,2.58 2.092,4.672 4.672,4.672 7.252,4.672 9.343,2.58 9.343,0 9.343,-2.58 7.252,-4.671 4.672,-4.671 2.092,-4.671 0,-2.58 0,0"
         style="display:inline;fill:#cceffc;fill-opacity:1;fill-rule:nonzero;stroke:none;stroke-width:1.37199"
         id="path270" />
    </g>
    <path
       d="m 15.571554,9.8579998 c 2.984,-0.26 5.848,1.6520002 6.605333,4.6280002 0.841333,3.306666 -1.241333,6.674666 -4.653333,7.521333 -3.410667,0.846666 -6.858667,-1.148 -7.6999999,-4.456 -0.8426666,-3.308 1.2413329,-6.674667 4.6533329,-7.522667"
       style="display:inline;fill:none;stroke:#231f20;stroke-width:1.37199;stroke-linecap:round;stroke-linejoin:miter;stroke-miterlimit:3.864;stroke-dasharray:0.0137199, 2.82631;stroke-dashoffset:0;stroke-opacity:1"
       id="path213268"
       clip-path="url(#clipPath213277)" />
  </g>
</svg>
