<?xml version="1.0" encoding="UTF-8" standalone="no"?>
<svg
   version="1.0"
   width="32"
   height="32"
   id="svg2"
   sodipodi:docname="overfalls.svg"
   inkscape:version="1.2.2 (b0a8486541, 2022-12-01)"
   xmlns:inkscape="http://www.inkscape.org/namespaces/inkscape"
   xmlns:sodipodi="http://sodipodi.sourceforge.net/DTD/sodipodi-0.dtd"
   xmlns="http://www.w3.org/2000/svg"
   xmlns:svg="http://www.w3.org/2000/svg">
  <sodipodi:namedview
     id="namedview22131"
     pagecolor="#ffffff"
     bordercolor="#666666"
     borderopacity="1.0"
     inkscape:showpageshadow="2"
     inkscape:pageopacity="0.0"
     inkscape:pagecheckerboard="0"
     inkscape:deskcolor="#d1d1d1"
     showgrid="false"
     showguides="true"
     inkscape:zoom="32.90625"
     inkscape:cx="15.984805"
     inkscape:cy="16"
     inkscape:window-width="1792"
     inkscape:window-height="1297"
     inkscape:window-x="1795"
     inkscape:window-y="676"
     inkscape:window-maximized="0"
     inkscape:current-layer="svg2">
    <sodipodi:guide
       position="10.083411,16"
       orientation="0,1"
       id="guide22613"
       inkscape:locked="false"
       inkscape:label=""
       inkscape:color="rgb(0,134,229)" />
    <sodipodi:guide
       position="16,24.496756"
       orientation="-1,0"
       id="guide22615"
       inkscape:locked="false"
       inkscape:label=""
       inkscape:color="rgb(0,134,229)" />
  </sodipodi:namedview>

  <g
     id="g4292"
     transform="translate(47.912334,10.332197)">
    <g
       id="g9744"
       transform="matrix(1.3333333,0,0,-1.3333333,-42.420667,6.4444784)"
       clip-path="url(#clipPath4146)">
      <path
         d="m 0,0 c 0,0 0.254,-1.213 1.442,-1.213 1.156,0 1.441,1.194 1.441,1.194 0,0 -0.09,0.033 -0.146,-0.031 C 2.591,-0.214 2.258,-0.688 1.442,-0.688 0.59,-0.688 0.26,-0.206 0.143,-0.034 0.101,0.018 0,0 0,0"
         style="fill:#231f20;fill-opacity:1;fill-rule:nonzero;stroke:none"
         id="path9746" />
    </g>
    <g
       id="g9748"
       transform="matrix(1.3333333,0,0,-1.3333333,-38.416133,6.6280784)"
       clip-path="url(#clipPath4140)">
      <path
         d="m 0,0 c 0,0 0.229,-0.848 1.298,-0.848 1.04,0 1.297,0.834 1.297,0.834 0,0 -0.057,0.078 -0.134,-0.019 C 2.329,-0.147 2,-0.451 1.265,-0.451 0.498,-0.451 0.226,-0.143 0.12,-0.022 0.069,0.064 0,0 0,0"
         style="fill:#231f20;fill-opacity:1;fill-rule:nonzero;stroke:none"
         id="path9750" />
    </g>
    <g
       id="g9752"
       transform="matrix(1.3333333,0,0,-1.3333333,-34.7872,6.6280784)"
       clip-path="url(#clipPath4134)">
      <path
         d="m 0,0 c 0,0 0.229,-0.848 1.297,-0.848 1.041,0 1.297,0.834 1.297,0.834 0,0 -0.056,0.078 -0.134,-0.019 -0.131,-0.114 -0.461,-0.418 -1.195,-0.418 -0.767,0 -1.04,0.308 -1.145,0.429 C 0.069,0.064 0,0 0,0"
         style="fill:#231f20;fill-opacity:1;fill-rule:nonzero;stroke:none"
         id="path9754" />
    </g>
    <g
       id="g9756"
       transform="matrix(1.3333333,0,0,-1.3333333,-31.158934,6.6280784)"
       clip-path="url(#clipPath4128)">
      <path
         d="m 0,0 c 0,0 0.229,-0.848 1.297,-0.848 1.041,0 1.298,0.834 1.298,0.834 0,0 -0.057,0.078 -0.135,-0.019 C 2.329,-0.147 2,-0.451 1.265,-0.451 0.498,-0.451 0.225,-0.143 0.12,-0.022 0.069,0.064 0,0 0,0"
         style="fill:#231f20;fill-opacity:1;fill-rule:nonzero;stroke:none"
         id="path9758" />
    </g>
    <g
       id="g9760"
       transform="matrix(1.3333333,0,0,-1.3333333,-27.530667,6.6280784)"
       clip-path="url(#clipPath4122)">
      <path
         d="m 0,0 c 0,0 0.229,-0.848 1.298,-0.848 1.04,0 1.297,0.834 1.297,0.834 0,0 -0.057,0.078 -0.134,-0.019 C 2.329,-0.147 2,-0.451 1.265,-0.451 0.498,-0.451 0.226,-0.143 0.12,-0.022 0.069,0.064 0,0 0,0"
         style="fill:#231f20;fill-opacity:1;fill-rule:nonzero;stroke:none"
         id="path9762" />
    </g>
    <g
       id="g9764"
       transform="matrix(1.3333333,0,0,-1.3333333,-39.754,3.2778118)"
       clip-path="url(#clipPath4116)">
      <path
         d="m 0,0 c 0,0 0.254,-1.213 1.442,-1.213 1.156,0 1.441,1.194 1.441,1.194 0,0 -0.09,0.033 -0.146,-0.031 C 2.591,-0.214 2.258,-0.687 1.442,-0.687 0.59,-0.687 0.26,-0.206 0.143,-0.034 0.101,0.018 0,0 0,0"
         style="fill:#231f20;fill-opacity:1;fill-rule:nonzero;stroke:none"
         id="path9766" />
    </g>
    <g
       id="g9768"
       transform="matrix(1.3333333,0,0,-1.3333333,-35.749467,3.4614118)"
       clip-path="url(#clipPath4110)">
      <path
         d="m 0,0 c 0,0 0.229,-0.848 1.298,-0.848 1.04,0 1.297,0.834 1.297,0.834 0,0 -0.057,0.078 -0.134,-0.019 C 2.329,-0.147 2,-0.451 1.265,-0.451 0.498,-0.451 0.226,-0.143 0.12,-0.022 0.069,0.064 0,0 0,0"
         style="fill:#231f20;fill-opacity:1;fill-rule:nonzero;stroke:none"
         id="path9770" />
    </g>
    <g
       id="g9772"
       transform="matrix(1.3333333,0,0,-1.3333333,-32.120533,3.4614118)"
       clip-path="url(#clipPath4104)">
      <path
         d="m 0,0 c 0,0 0.229,-0.848 1.297,-0.848 1.041,0 1.297,0.834 1.297,0.834 0,0 -0.056,0.078 -0.134,-0.019 -0.131,-0.114 -0.461,-0.418 -1.195,-0.418 -0.767,0 -1.04,0.308 -1.145,0.429 C 0.069,0.064 0,0 0,0"
         style="fill:#231f20;fill-opacity:1;fill-rule:nonzero;stroke:none"
         id="path9774" />
    </g>
    <g
       id="g9776"
       transform="matrix(1.3333333,0,0,-1.3333333,-28.492267,3.4614118)"
       clip-path="url(#clipPath4098)">
      <path
         d="m 0,0 c 0,0 0.229,-0.848 1.297,-0.848 1.041,0 1.298,0.834 1.298,0.834 0,0 -0.057,0.078 -0.135,-0.019 C 2.329,-0.147 2,-0.451 1.265,-0.451 0.498,-0.451 0.225,-0.143 0.12,-0.022 0.069,0.064 0,0 0,0"
         style="fill:#231f20;fill-opacity:1;fill-rule:nonzero;stroke:none"
         id="path9778" />
    </g>
    <g
       id="g9780"
       transform="matrix(1.3333333,0,0,-1.3333333,-24.864,3.4614118)"
       clip-path="url(#clipPath4092)">
      <path
         d="m 0,0 c 0,0 0.229,-0.848 1.298,-0.848 1.04,0 1.297,0.834 1.297,0.834 0,0 -0.057,0.078 -0.134,-0.019 C 2.329,-0.147 2,-0.451 1.265,-0.451 0.498,-0.451 0.226,-0.143 0.12,-0.022 0.069,0.064 0,0 0,0"
         style="fill:#231f20;fill-opacity:1;fill-rule:nonzero;stroke:none"
         id="path9782" />
    </g>
  </g>
</svg>
