<?xml version="1.0" encoding="UTF-8" standalone="no"?>
<svg
   version="1.0"
   width="32"
   height="32"
   id="svg2"
   sodipodi:docname="pillar-b.svg"
   inkscape:version="1.2.2 (b0a8486541, 2022-12-01)"
   xmlns:inkscape="http://www.inkscape.org/namespaces/inkscape"
   xmlns:sodipodi="http://sodipodi.sourceforge.net/DTD/sodipodi-0.dtd"
   xmlns="http://www.w3.org/2000/svg"
   xmlns:svg="http://www.w3.org/2000/svg">
  <sodipodi:namedview
     id="namedview10186"
     pagecolor="#ffffff"
     bordercolor="#666666"
     borderopacity="1.0"
     inkscape:showpageshadow="2"
     inkscape:pageopacity="0.0"
     inkscape:pagecheckerboard="0"
     inkscape:deskcolor="#d1d1d1"
     showgrid="false"
     showguides="true"
     inkscape:zoom="30.53125"
     inkscape:cx="16"
     inkscape:cy="16"
     inkscape:window-width="1704"
     inkscape:window-height="1195"
     inkscape:window-x="1946"
     inkscape:window-y="755"
     inkscape:window-maximized="0"
     inkscape:current-layer="svg2">
    <sodipodi:guide
       position="124.46264,16"
       orientation="0,1"
       id="guide10194"
       inkscape:locked="false"
       inkscape:label=""
       inkscape:color="rgb(0,134,229)" />
    <sodipodi:guide
       position="16,-27.61105"
       orientation="-1,0"
       id="guide10196"
       inkscape:locked="false"
       inkscape:label=""
       inkscape:color="rgb(0,134,229)" />
  </sodipodi:namedview>

  <g
     id="g21739"
     transform="translate(-7.7152316,4.1396534)">
    <g
       id="g704"
       transform="matrix(1.3333333,0,0,-1.3333333,24.670143,11.825001)"
       clip-path="url(#clipPath6292)">
      <path
         d="M 0,0 H 2.684"
         style="fill:none;stroke:#231f20;stroke-width:0.34;stroke-linecap:butt;stroke-linejoin:miter;stroke-miterlimit:3.864;stroke-dasharray:none;stroke-opacity:1"
         id="path706" />
    </g>
    <g
       id="g708"
       transform="matrix(1.3333333,0,0,-1.3333333,19.17801,11.825001)"
       clip-path="url(#clipPath6286)">
      <path
         d="M 0,0 H 2.624"
         style="fill:none;stroke:#231f20;stroke-width:0.34;stroke-linecap:butt;stroke-linejoin:miter;stroke-miterlimit:3.864;stroke-dasharray:none;stroke-opacity:1"
         id="path710" />
    </g>
    <g
       id="g712"
       transform="matrix(1.3333333,0,0,-1.3333333,22.703343,11.828868)"
       clip-path="url(#clipPath6280)">
      <path
         d="M 0,0 C 0,0.422 0.343,0.765 0.765,0.765 1.187,0.765 1.53,0.422 1.53,0 1.53,-0.423 1.187,-0.765 0.765,-0.765 0.343,-0.765 0,-0.423 0,0 Z"
         style="fill:none;stroke:#231f20;stroke-width:0.34;stroke-linecap:butt;stroke-linejoin:miter;stroke-miterlimit:3.864;stroke-dasharray:none;stroke-opacity:1"
         id="path714" />
    </g>
    <g
       id="g716"
       transform="matrix(1.3333333,0,0,-1.3333333,20.46081,11.825001)"
       clip-path="url(#clipPath6274)">
      <path
         d="M 0,0 2.047,2.686 4.031,8.479 5.203,8.135 4.359,2.448 4.691,-0.002 3.192,-0.001 c 0,0 -0.065,0.659 -0.688,0.702 C 1.832,0.748 1.771,-0.001 1.771,-0.001 L 0,0"
         style="fill:#231f20;fill-opacity:1;fill-rule:nonzero;stroke:none"
         id="path718" />
    </g>
    <g
       id="g720"
       transform="matrix(1.3333333,0,0,-1.3333333,20.46081,11.825001)"
       clip-path="url(#clipPath6268)">
      <path
         d="M 0,0 2.047,2.686 4.031,8.479 5.203,8.135 4.359,2.448 4.691,-0.002"
         style="fill:none;stroke:#231f20;stroke-width:0.283;stroke-linecap:butt;stroke-linejoin:miter;stroke-miterlimit:3.864;stroke-dasharray:none;stroke-opacity:1"
         id="path722" />
    </g>
  </g>
</svg>
