<?xml version="1.0" encoding="UTF-8" standalone="no"?>
<svg
   version="1.0"
   width="32"
   height="32"
   id="svg2"
   sodipodi:docname="pylon.svg"
   inkscape:version="1.2.2 (b0a8486541, 2022-12-01)"
   xmlns:inkscape="http://www.inkscape.org/namespaces/inkscape"
   xmlns:sodipodi="http://sodipodi.sourceforge.net/DTD/sodipodi-0.dtd"
   xmlns="http://www.w3.org/2000/svg"
   xmlns:svg="http://www.w3.org/2000/svg">

  <g
     id="g1684"
     transform="matrix(1.3333333,0,0,-1.3333333,-209.08159,504.90332)">
    <g
       id="g1686"
       clip-path="url(#clipPath1690)">
      <g
         id="g1692"
         transform="translate(167.3654,366.677)">
        <path
           d="M 0,0 C 0,0.799 0.648,1.446 1.446,1.446 2.245,1.446 2.892,0.799 2.892,0 2.892,-0.798 2.245,-1.445 1.446,-1.445 0.648,-1.445 0,-0.798 0,0 Z"
           style="fill:none;stroke:#231f20;stroke-width:0.51;stroke-linecap:butt;stroke-linejoin:miter;stroke-miterlimit:3.864;stroke-dasharray:none;stroke-opacity:1"
           id="path1694" />
      </g>
      <g
         id="g1696"
         transform="translate(168.3156,366.677)">
        <path
           d="M 0,0 C 0,0.274 0.222,0.496 0.496,0.496 0.77,0.496 0.992,0.274 0.992,0 0.992,-0.274 0.77,-0.495 0.496,-0.495 0.222,-0.495 0,-0.274 0,0"
           style="fill:#231f20;fill-opacity:1;fill-rule:evenodd;stroke:none"
           id="path1698" />
      </g>
    </g>
  </g>
</svg>
