<?xml version="1.0" encoding="UTF-8" standalone="no"?>
<svg
   version="1.0"
   width="32"
   height="32"
   id="svg2"
   xmlns="http://www.w3.org/2000/svg"
   xmlns:svg="http://www.w3.org/2000/svg">
   <g
     id="g237941"
     transform="matrix(1.3333333,0,0,-1.3333333,-341.26146,459.63826)">
    <g
       id="g420"
       transform="translate(268.5301,334.1932)"
       clip-path="url(#clipPath24916)">
      <path
         d="M 0,0 0.393,-0.228 -0.51,-1.507 -0.657,-1.421 Z"
         style="fill:#231f20;fill-opacity:1;fill-rule:nonzero;stroke:none"
         id="path422" />
    </g>
    <g
       id="g424"
       transform="translate(266.9701,331.4922)"
       clip-path="url(#clipPath24910)">
      <path
         d="M 0,0 0.393,-0.228 1.05,1.193 0.902,1.278 Z"
         style="fill:#231f20;fill-opacity:1;fill-rule:nonzero;stroke:none"
         id="path426" />
    </g>
    <g
       id="g428"
       transform="translate(269.5051,332.9553)"
       clip-path="url(#clipPath24904)">
      <path
         d="m 0,0 v -0.454 l -1.559,0.142 v 0.17 z"
         style="fill:#231f20;fill-opacity:1;fill-rule:nonzero;stroke:none"
         id="path430" />
    </g>
    <g
       id="g432"
       transform="translate(266.3871,332.9553)"
       clip-path="url(#clipPath24898)">
      <path
         d="m 0,0 v -0.454 l 1.559,0.142 v 0.17 z"
         style="fill:#231f20;fill-opacity:1;fill-rule:nonzero;stroke:none"
         id="path434" />
    </g>
    <g
       id="g436"
       transform="translate(266.9701,333.9652)"
       clip-path="url(#clipPath24892)">
      <path
         d="M 0,0 0.393,0.228 1.05,-1.193 0.902,-1.279 Z"
         style="fill:#231f20;fill-opacity:1;fill-rule:nonzero;stroke:none"
         id="path438" />
    </g>
    <g
       id="g440"
       transform="translate(268.5301,331.2642)"
       clip-path="url(#clipPath24886)">
      <path
         d="M 0,0 0.393,0.228 -0.51,1.506 -0.657,1.421 Z"
         style="fill:#231f20;fill-opacity:1;fill-rule:nonzero;stroke:none"
         id="path442" />
    </g>
  </g>
</svg>
