<?xml version="1.0" encoding="UTF-8" standalone="no"?>
<svg
   version="1.0"
   width="32"
   height="32"
   id="svg2"
   sodipodi:docname="spar.svg"
   inkscape:version="1.2.2 (b0a8486541, 2022-12-01)"
   xmlns:inkscape="http://www.inkscape.org/namespaces/inkscape"
   xmlns:sodipodi="http://sodipodi.sourceforge.net/DTD/sodipodi-0.dtd"
   xmlns="http://www.w3.org/2000/svg"
   xmlns:svg="http://www.w3.org/2000/svg">

  <g
     id="g22807"
     transform="translate(-8.5394223,2.8535136)">
    <g
       id="g740"
       transform="matrix(1.3333333,0,0,-1.3333333,23.568081,13.136447)"
       clip-path="url(#clipPath6238)">
      <path
         d="M 0,0 C 0,0.423 0.343,0.765 0.765,0.765 1.187,0.765 1.53,0.423 1.53,0 1.53,-0.424 1.187,-0.765 0.765,-0.765 0.343,-0.765 0,-0.424 0,0 Z"
         style="fill:none;stroke:#231f20;stroke-width:0.34;stroke-linecap:butt;stroke-linejoin:miter;stroke-miterlimit:3.864;stroke-dasharray:none;stroke-opacity:1"
         id="path742" />
    </g>
    <g
       id="g744"
       transform="matrix(1.3333333,0,0,-1.3333333,27.907948,2.9404469)"
       clip-path="url(#clipPath6232)">
      <path
         d="m 0,0 -1.104,0.268 -1.875,-7.417 c 0,0 0.387,0.168 0.636,0.152 0.232,-0.016 0.544,-0.132 0.544,-0.132 L 0,0"
         style="fill:#231f20;fill-opacity:1;fill-rule:evenodd;stroke:none"
         id="path746" />
    </g>
    <g
       id="g748"
       transform="matrix(1.3333333,0,0,-1.3333333,25.673281,13.135113)"
       clip-path="url(#clipPath6226)">
      <path
         d="M 0,0 H 1.172"
         style="fill:none;stroke:#231f20;stroke-width:0.34;stroke-linecap:butt;stroke-linejoin:miter;stroke-miterlimit:3.864;stroke-dasharray:none;stroke-opacity:1"
         id="path750" />
    </g>
    <g
       id="g752"
       transform="matrix(1.3333333,0,0,-1.3333333,21.942615,13.135113)"
       clip-path="url(#clipPath6220)">
      <path
         d="M 0,0 H 1.234"
         style="fill:none;stroke:#231f20;stroke-width:0.34;stroke-linecap:butt;stroke-linejoin:miter;stroke-miterlimit:3.864;stroke-dasharray:none;stroke-opacity:1"
         id="path754" />
    </g>
  </g>
</svg>
