<?xml version="1.0" encoding="UTF-8" standalone="no"?>
<svg
   version="1.0"
   width="32"
   height="32"
   id="svg2"
   sodipodi:docname="sphere-h.svg"
   inkscape:version="1.2.2 (b0a8486541, 2022-12-01)"
   xmlns:inkscape="http://www.inkscape.org/namespaces/inkscape"
   xmlns:sodipodi="http://sodipodi.sourceforge.net/DTD/sodipodi-0.dtd"
   xmlns="http://www.w3.org/2000/svg"
   xmlns:svg="http://www.w3.org/2000/svg">

  <g
     id="g18554"
     transform="translate(-7.2479849,3.5418493)">
    <g
       id="g1076"
       transform="matrix(1.3333333,0,0,-1.3333333,24.842397,7.230352)"
       clip-path="url(#clipPath5698)">
      <path
         d="M 0,0 -1.116,-3.067"
         style="fill:none;stroke:#231f20;stroke-width:0.34;stroke-linecap:butt;stroke-linejoin:miter;stroke-miterlimit:3.864;stroke-dasharray:none;stroke-opacity:1"
         id="path1078" />
    </g>
    <g
       id="g1080"
       transform="matrix(1.3333333,0,0,-1.3333333,24.25973,12.430352)"
       clip-path="url(#clipPath5692)">
      <path
         d="M 0,0 H 2.969"
         style="fill:none;stroke:#231f20;stroke-width:0.34;stroke-linecap:butt;stroke-linejoin:miter;stroke-miterlimit:3.864;stroke-dasharray:none;stroke-opacity:1"
         id="path1082" />
    </g>
    <g
       id="g1084"
       transform="matrix(1.3333333,0,0,-1.3333333,18.946397,12.430352)"
       clip-path="url(#clipPath5686)">
      <path
         d="M 0,0 H 2.438"
         style="fill:none;stroke:#231f20;stroke-width:0.34;stroke-linecap:butt;stroke-linejoin:miter;stroke-miterlimit:3.864;stroke-dasharray:none;stroke-opacity:1"
         id="path1086" />
    </g>
    <g
       id="g1088"
       transform="matrix(1.3333333,0,0,-1.3333333,22.20773,12.430352)"
       clip-path="url(#clipPath5680)">
      <path
         d="M 0,0 C 0,0.423 0.343,0.765 0.765,0.765 1.188,0.765 1.53,0.423 1.53,0 1.53,-0.423 1.188,-0.765 0.765,-0.765 0.343,-0.765 0,-0.423 0,0 Z"
         style="fill:none;stroke:#231f20;stroke-width:0.34;stroke-linecap:butt;stroke-linejoin:miter;stroke-miterlimit:3.864;stroke-dasharray:none;stroke-opacity:1"
         id="path1090" />
    </g>
    <g
       id="g1092"
       transform="matrix(1.3333333,0,0,-1.3333333,26.342397,12.425019)"
       clip-path="url(#clipPath5674)">
      <path
         d="M 0,0 C 0.586,0.641 0.516,1.805 0.286,2.333 -0.11,3.285 -1.018,3.943 -2.063,3.943 -3.11,3.943 -4.022,3.28 -4.416,2.323 -4.805,1.531 -4.422,0.36 -4.047,-0.008"
         style="fill:none;stroke:#231f20;stroke-width:0.34;stroke-linecap:butt;stroke-linejoin:miter;stroke-miterlimit:3.864;stroke-dasharray:none;stroke-opacity:1"
         id="path1094" />
    </g>
    <g
       id="g1096"
       transform="matrix(1.3333333,0,0,-1.3333333,25.994263,12.106219)"
       clip-path="url(#clipPath5668)">
      <path
         d="m 0,0 c 0.456,0.498 0.421,1.498 0.222,1.955 -0.346,0.831 -1.134,1.394 -2.023,1.394 -0.892,0 -1.687,-0.577 -2.03,-1.411 -0.312,-0.633 0.01,-1.654 0.294,-1.932 l 0.15,-0.182 -0.509,-0.125 c -0.066,0.066 -0.272,-0.048 -0.336,0.051 -0.373,0.58 -0.635,1.658 -0.25,2.468 0.444,1.08 1.479,1.84 2.681,1.84 1.197,0 2.228,-0.752 2.675,-1.825 C 1.113,1.682 1.222,0.513 0.679,-0.281 0.632,-0.35 0.405,-0.254 0.348,-0.317 c 0,0 -0.31,0.16 -0.477,0.102 C -0.296,-0.274 0,0 0,0"
         style="fill:#231f20;fill-opacity:1;fill-rule:nonzero;stroke:none"
         id="path1098" />
    </g>
  </g>
</svg>
