<?xml version="1.0" encoding="UTF-8" standalone="no"?>
<svg
   version="1.0"
   width="32"
   height="32"
   id="svg2"
   sodipodi:docname="sphere-w.svg"
   inkscape:version="1.2.2 (b0a8486541, 2022-12-01)"
   xmlns:inkscape="http://www.inkscape.org/namespaces/inkscape"
   xmlns:sodipodi="http://sodipodi.sourceforge.net/DTD/sodipodi-0.dtd"
   xmlns="http://www.w3.org/2000/svg"
   xmlns:svg="http://www.w3.org/2000/svg">

  <g
     id="g17456"
     transform="translate(-7.890569,4.299134)">
    <g
       id="g684"
       transform="matrix(1.3333333,0,0,-1.3333333,24.914795,11.709045)"
       clip-path="url(#clipPath6322)">
      <path
         d="M 0,0 H 2.969"
         style="fill:none;stroke:#231f20;stroke-width:0.34;stroke-linecap:butt;stroke-linejoin:miter;stroke-miterlimit:3.864;stroke-dasharray:none;stroke-opacity:1"
         id="path686" />
    </g>
    <g
       id="g688"
       transform="matrix(1.3333333,0,0,-1.3333333,19.601462,11.709045)"
       clip-path="url(#clipPath6316)">
      <path
         d="M 0,0 H 2.438"
         style="fill:none;stroke:#231f20;stroke-width:0.34;stroke-linecap:butt;stroke-linejoin:miter;stroke-miterlimit:3.864;stroke-dasharray:none;stroke-opacity:1"
         id="path690" />
    </g>
    <g
       id="g692"
       transform="matrix(1.3333333,0,0,-1.3333333,22.862795,11.709045)"
       clip-path="url(#clipPath6310)">
      <path
         d="M 0,0 C 0,0.423 0.343,0.764 0.765,0.764 1.188,0.764 1.53,0.423 1.53,0 1.53,-0.423 1.188,-0.765 0.765,-0.765 0.343,-0.765 0,-0.423 0,0 Z"
         style="fill:none;stroke:#231f20;stroke-width:0.34;stroke-linecap:butt;stroke-linejoin:miter;stroke-miterlimit:3.864;stroke-dasharray:none;stroke-opacity:1"
         id="path694" />
    </g>
    <g
       id="g696"
       transform="matrix(1.3333333,0,0,-1.3333333,26.997462,11.703712)"
       clip-path="url(#clipPath6304)">
      <path
         d="M 0,0 C 0.586,0.641 0.516,1.805 0.286,2.333 -0.11,3.285 -1.019,3.943 -2.062,3.943 -3.11,3.943 -4.021,3.28 -4.416,2.323 -4.805,1.531 -4.422,0.36 -4.047,-0.008"
         style="fill:none;stroke:#231f20;stroke-width:0.34;stroke-linecap:butt;stroke-linejoin:miter;stroke-miterlimit:3.864;stroke-dasharray:none;stroke-opacity:1"
         id="path698" />
    </g>
    <g
       id="g700"
       transform="matrix(1.3333333,0,0,-1.3333333,26.648262,11.386379)"
       clip-path="url(#clipPath6298)">
      <path
         d="m 0,0 c 0.456,0.498 0.421,1.498 0.222,1.955 -0.346,0.831 -1.134,1.394 -2.023,1.394 -0.892,0 -1.687,-0.577 -2.03,-1.411 -0.312,-0.633 0.01,-1.654 0.294,-1.932 l 0.15,-0.182 -0.509,-0.125 c -0.066,0.066 -0.272,-0.048 -0.337,0.051 -0.372,0.58 -0.634,1.658 -0.25,2.468 0.445,1.08 1.48,1.84 2.682,1.84 1.197,0 2.228,-0.752 2.675,-1.825 0.239,-0.551 0.348,-1.72 -0.195,-2.514 -0.047,-0.07 -0.274,0.027 -0.331,-0.036 0,0 -0.31,0.16 -0.477,0.102 C -0.296,-0.274 0,0 0,0"
         style="fill:#231f20;fill-opacity:1;fill-rule:nonzero;stroke:none"
         id="path702" />
    </g>
  </g>
</svg>
