<?xml version="1.0" encoding="UTF-8" standalone="no"?>
<svg
   version="1.0"
   width="32"
   height="32"
   id="svg2"
   sodipodi:docname="superbuoy.svg"
   inkscape:version="1.2.2 (b0a8486541, 2022-12-01)"
   xmlns:inkscape="http://www.inkscape.org/namespaces/inkscape"
   xmlns:sodipodi="http://sodipodi.sourceforge.net/DTD/sodipodi-0.dtd"
   xmlns="http://www.w3.org/2000/svg"
   xmlns:svg="http://www.w3.org/2000/svg">

  <g
     id="g26923"
     transform="translate(-5.5140177,0.25522966)">
    <g
       id="g756"
       transform="matrix(1.3333333,0,0,-1.3333333,20.544849,15.948121)"
       clip-path="url(#clipPath6214)">
      <path
         d="M 0,0 H -5.672 V 0.313 H 0.063 Z"
         style="fill:#231f20;fill-opacity:1;fill-rule:nonzero;stroke:none"
         id="path758" />
    </g>
    <g
       id="g760"
       transform="matrix(1.3333333,0,0,-1.3333333,22.442183,15.530788)"
       clip-path="url(#clipPath6208)">
      <path
         d="M 0,0 H 5.661 V -0.313 H -0.063 Z"
         style="fill:#231f20;fill-opacity:1;fill-rule:nonzero;stroke:none"
         id="path762" />
    </g>
    <g
       id="g764"
       transform="matrix(1.3333333,0,0,-1.3333333,20.467516,15.740121)"
       clip-path="url(#clipPath6202)">
      <path
         d="M 0,0 C 0,0.423 0.343,0.765 0.765,0.765 1.188,0.765 1.531,0.423 1.531,0 1.531,-0.422 1.188,-0.764 0.765,-0.764 0.343,-0.764 0,-0.422 0,0 Z"
         style="fill:none;stroke:#231f20;stroke-width:0.34;stroke-linecap:butt;stroke-linejoin:miter;stroke-miterlimit:3.864;stroke-dasharray:none;stroke-opacity:1"
         id="path766" />
    </g>
    <g
       id="g768"
       transform="matrix(1.3333333,0,0,-1.3333333,15.251383,15.732121)"
       clip-path="url(#clipPath6196)">
      <path
         d="m 0,0 0.992,2.834 h 7.37 L 9.355,0"
         style="fill:none;stroke:#231f20;stroke-width:0.567;stroke-linecap:butt;stroke-linejoin:miter;stroke-miterlimit:3.864;stroke-dasharray:none;stroke-opacity:1"
         id="path770" />
    </g>
  </g>
</svg>
