<?xml version="1.0" encoding="UTF-8" standalone="no"?>
<svg
   version="1.0"
   width="32"
   height="32"
   id="svg2"
   sodipodi:docname="tide-gauge.svg"
   inkscape:version="1.2.2 (b0a8486541, 2022-12-01)"
   xmlns:inkscape="http://www.inkscape.org/namespaces/inkscape"
   xmlns:sodipodi="http://sodipodi.sourceforge.net/DTD/sodipodi-0.dtd"
   xmlns="http://www.w3.org/2000/svg"
   xmlns:svg="http://www.w3.org/2000/svg">

  <g
     id="g9116"
     transform="matrix(1.3333333,0,0,-1.3333333,-340.70946,643.05212)">
    <g
       id="g7802"
       transform="translate(266.9086,470.1456)"
       clip-path="url(#clipPath75145)">
      <path
         d="M 0,0 H -1.332 V 0.285 L 0.039,0.283 Z"
         style="fill:#231f20;fill-opacity:1;fill-rule:nonzero;stroke:none"
         id="path7804" />
    </g>
    <g
       id="g7806"
       transform="translate(268.2516,470.4306)"
       clip-path="url(#clipPath75139)">
      <path
         d="M 0,0 H 1.236 V -0.283 H -0.039 Z"
         style="fill:#231f20;fill-opacity:1;fill-rule:nonzero;stroke:none"
         id="path7808" />
    </g>
    <path
       d="m 265.691,474.113 h 3.685 v 0.482 h -3.685 z"
       style="fill:#231f20;fill-opacity:1;fill-rule:nonzero;stroke:none"
       id="path7810"
       clip-path="url(#clipPath75133)" />
    <path
       d="m 266.399,472.136 h 2.268 v 0.481 h -2.268 z"
       style="fill:#231f20;fill-opacity:1;fill-rule:nonzero;stroke:none"
       id="path7812"
       clip-path="url(#clipPath75127)" />
    <path
       d="m 266.399,476.103 h 2.268 v 0.483 h -2.268 z"
       style="fill:#231f20;fill-opacity:1;fill-rule:nonzero;stroke:none"
       id="path7814"
       clip-path="url(#clipPath75121)" />
    <g
       id="g7816"
       transform="translate(267.5336,478.2437)"
       clip-path="url(#clipPath75115)">
      <path
         d="M 0,0 V -7.295"
         style="fill:none;stroke:#231f20;stroke-width:0.482;stroke-linecap:butt;stroke-linejoin:miter;stroke-miterlimit:3.864;stroke-dasharray:none;stroke-opacity:1"
         id="path7818" />
    </g>
    <g
       id="g7820"
       transform="translate(266.8786,470.2886)"
       clip-path="url(#clipPath75109)">
      <path
         d="M 0,0 C 0,0.361 0.292,0.654 0.653,0.654 1.015,0.654 1.308,0.361 1.308,0 1.308,-0.362 1.015,-0.653 0.653,-0.653 0.292,-0.653 0,-0.362 0,0 Z"
         style="fill:none;stroke:#231f20;stroke-width:0.283;stroke-linecap:butt;stroke-linejoin:miter;stroke-miterlimit:3.864;stroke-dasharray:none;stroke-opacity:1"
         id="path7822" />
    </g>
  </g>
</svg>
