<?xml version="1.0" encoding="UTF-8" standalone="no"?>
<!-- Created with Inkscape (http://www.inkscape.org/) -->

<svg
   width="24mm"
   height="24mm"
   viewBox="0 0 24 24"
   version="1.1"
   id="svg5"
   xmlns="http://www.w3.org/2000/svg"
   xmlns:svg="http://www.w3.org/2000/svg">
  <defs
     id="defs2" />
  <g
     id="layer1">
    <rect
       style="fill:#f9ecc0;fill-opacity:1;stroke:none;stroke-width:0;stroke-linecap:round;stroke-linejoin:bevel;stroke-dasharray:none;paint-order:stroke fill markers"
       id="rect2404"
       width="28.345062"
       height="28.345062"
       x="-2.1725309"
       y="-2.1725316"
       ry="2.0864544"
       rx="2.0864544" />
    <path
       fill="currentColor"
       d="m 14.730085,10.423785 -0.422346,-7.0363823 -3.883954,5.8825132 -7.0363823,0.4223454 5.8825132,3.8839527 0.4223454,7.036383 3.8839527,-5.882512 7.036383,-0.422346 -5.882512,-3.883954 m -8.4718166,0.03773 4.6909216,-0.281564 0.333093,1.627745 -5.0240146,-1.346183 m 4.2032396,7.280223 -0.281564,-4.690922 1.627744,-0.333092 -1.34618,5.024014 m 3.076984,-11.4834629 0.281564,4.6909219 -1.627745,0.333093 1.346181,-5.0240149 m -0.487683,7.5617879 -0.333092,-1.627745 5.024015,1.346181 -4.690923,0.281564 m -4.4385247,1.349213 -2.9824802,0.508564 1.9316706,-2.328621 1.0521905,0.666558 -0.00138,1.153499 m 6.5569838,0.218446 0.508565,2.98248 -2.328621,-1.931671 0.666557,-1.05219 1.153499,0.0014 M 8.8307308,8.6122843 8.3221655,5.6298041 10.650787,7.5614747 10.003461,8.5418935 8.8307308,8.6122843 m 6.5569842,0.2184465 2.98248,-0.5085653 -1.93167,2.3286215 -1.052191,-0.666557 z"
       id="path5"
       style="fill:#3a65ff;fill-opacity:1;stroke:none;stroke-width:0;stroke-dasharray:none" />
  </g>
</svg>
